SplineFontDB: 3.0
FontName: Oswald
FullName: Oswald 
FamilyName: Oswald
Weight: Book
Copyright: Copyright (c) 2011-12 by vernon adams. All rights reserved.
Version: 2.000
ItalicAngle: 0
UnderlinePosition: -103
UnderlineWidth: 102
Ascent: 1638
Descent: 410
sfntRevision: 0x00020000
LayerCount: 2
Layer: 0 1 "Back"  1
Layer: 1 1 "Fore"  0
NeedsXUIDChange: 1
XUID: [1021 14 500265001 3293584]
FSType: 0
OS2Version: 1
OS2_WeightWidthSlopeOnly: 0
OS2_UseTypoMetrics: 1
CreationTime: 1331554094
ModificationTime: 1337200860
PfmFamily: 17
TTFWeight: 400
TTFWidth: 5
LineGap: 0
VLineGap: 0
Panose: 2 0 5 6 0 0 0 2 0 4
OS2TypoAscent: 806
OS2TypoAOffset: 1
OS2TypoDescent: -236
OS2TypoDOffset: 1
OS2TypoLinegap: 0
OS2WinAscent: 20
OS2WinAOffset: 1
OS2WinDescent: 14
OS2WinDOffset: 1
HheadAscent: 20
HheadAOffset: 1
HheadDescent: -14
HheadDOffset: 1
OS2SubXSize: 2937
OS2SubYSize: 2726
OS2SubXOff: 0
OS2SubYOff: 588
OS2SupXSize: 2937
OS2SupYSize: 2726
OS2SupXOff: 0
OS2SupYOff: 2001
OS2StrikeYSize: 209
OS2StrikeYPos: 1049
OS2Vendor: 'newt'
OS2CodePages: 00000093.00000000
OS2UnicodeRanges: a000006f.4000004b.00000000.00000000
Lookup: 4 0 1 "'liga' Standard Ligatures in Latin lookup 0"  {"'liga' Standard Ligatures in Latin lookup 0 subtable"  } ['liga' ('DFLT' <'dflt' > 'latn' <'dflt' > ) ]
Lookup: 258 0 0 "'kern' Horizontal Kerning in Latin lookup 0"  {"'kern' Horizontal Kerning in Latin lookup 0 subtable"  } ['kern' ('latn' <'dflt' > ) ]
Lookup: 258 0 0 "'kern' Horizontal Kerning in Latin lookup 1"  {"'kern' Horizontal Kerning in Latin lookup 1 per glyph data 0"  "'kern' Horizontal Kerning in Latin lookup 1 kerning class 1"  } ['kern' ('DFLT' <'dflt' > 'latn' <'dflt' > ) ]
MarkAttachClasses: 1
DEI: 91125
KernClass2: 77 58 "'kern' Horizontal Kerning in Latin lookup 1 kerning class 1" 
 81 A Agrave Aacute Acircumflex Atilde Adieresis Aring Amacron Abreve Aogonek uni0202
 1 B
 75 D O Q Eth Ograve Oacute Ocircumflex Otilde Odieresis Oslash uni020C uni020E
 6 Dcaron
 1 E
 6 Eacute
 6 Ecaron

StartChar: .notdef
Encoding: 65536 -1 0
Width: 748
Flags: HW
LayerCount: 2
Fore
SplineSet
136 68 m 1,0,-1
 544 68 l 1,1,-1
 544 1297 l 1,2,-1
 136 1297 l 1,3,-1
 136 68 l 1,0,-1
68 0 m 1,4,-1
 68 1365 l 1,5,-1
 612 1365 l 1,6,-1
 612 0 l 1,7,-1
 68 0 l 1,4,-1
EndSplineSet
EndChar

StartChar: exclam
Encoding: 33 33 4
Width: 375
Flags: HW
LayerCount: 2
Fore
SplineSet
64 256 m 1,0,-1
 320 256 l 1,1,-1
 320 0 l 1,2,-1
 64 0 l 1,3,-1
 64 256 l 1,0,-1
64 1792 m 1,4,-1
 320 1792 l 1,5,-1
 274 384 l 1,6,-1
 128 384 l 1,7,-1
 64 1792 l 1,4,-1
EndSplineSet
EndChar

StartChar: quotedbl
Encoding: 34 34 5
Width: 704
Flags: HW
LayerCount: 2
Fore
SplineSet
385 1792 m 1,0,-1
 641 1792 l 1,1,-1
 577 1328 l 1,2,-1
 449 1328 l 1,3,-1
 385 1792 l 1,0,-1
62 1792 m 1,4,-1
 318 1792 l 1,5,-1
 254 1328 l 1,6,-1
 126 1328 l 1,7,-1
 62 1792 l 1,4,-1
EndSplineSet
EndChar

StartChar: numbersign
Encoding: 35 35 6
Width: 1088
Flags: HW
LayerCount: 2
Fore
SplineSet
437 832 m 1,0,-1
 630 832 l 1,1,-1
 657 1024 l 1,2,-1
 465 1024 l 1,3,-1
 437 832 l 1,0,-1
1024 1024 m 1,4,-1
 913 1024 l 1,5,-1
 885 832 l 1,6,-1
 1024 832 l 1,7,-1
 1024 640 l 1,8,-1
 858 640 l 1,9,-1
 768 0 l 1,10,-1
 512 0 l 1,11,-1
 602 640 l 1,12,-1
 410 640 l 1,13,-1
 320 0 l 1,14,-1
 64 0 l 1,15,-1
 154 640 l 1,16,-1
 64 640 l 1,17,-1
 64 832 l 1,18,-1
 181 832 l 1,19,-1
 209 1024 l 1,20,-1
 64 1024 l 1,21,-1
 64 1216 l 1,22,-1
 236 1216 l 1,23,-1
 318 1792 l 1,24,-1
 574 1792 l 1,25,-1
 492 1216 l 1,26,-1
 684 1216 l 1,27,-1
 766 1792 l 1,28,-1
 1022 1792 l 1,29,-1
 940 1216 l 1,30,-1
 1024 1216 l 1,31,-1
 1024 1024 l 1,4,-1
EndSplineSet
EndChar

StartChar: dollar
Encoding: 36 36 7
Width: 1216
Flags: HW
LayerCount: 2
Fore
SplineSet
724 628 m 2,0,-1
 704 648 l 1,1,-1
 704 198 l 1,2,3
 832 227 832 227 832 373.5 c 128,-1,4
 832 520 832 520 724 628 c 2,0,-1
384 1405 m 0,5,6
 384 1253 384 1253 512 1152 c 2,7,-1
 576 1101 l 1,8,-1
 576 1600 l 1,9,10
 484 1600 484 1600 434 1548 c 128,-1,11
 384 1496 384 1496 384 1405 c 0,5,6
127 1378 m 0,12,13
 127 1576 127 1576 250 1693 c 128,-1,14
 373 1810 373 1810 576 1810 c 1,15,-1
 576 1920 l 1,16,-1
 704 1920 l 1,17,-1
 704 1799 l 1,18,-1
 745 1790 l 1,19,20
 1061 1704 1061 1704 1088 1344 c 1,21,-1
 832 1280 l 1,22,23
 823 1468 823 1468 724 1549 c 1,24,-1
 704 1564 l 1,25,-1
 704 998 l 1,26,-1
 832 896 l 1,27,28
 945 808 945 808 1016.5 683.5 c 128,-1,29
 1088 559 1088 559 1088 389.5 c 128,-1,30
 1088 220 1088 220 984 112 c 128,-1,31
 880 4 880 4 704 -15 c 1,32,-1
 704 -128 l 1,33,-1
 576 -128 l 1,34,-1
 576 -15 l 1,35,36
 368 0 368 0 254.5 142.5 c 128,-1,37
 141 285 141 285 128 512 c 1,38,-1
 384 576 l 1,39,40
 394 283 394 283 555 208 c 1,41,-1
 576 200 l 1,42,-1
 576 755 l 1,43,-1
 320 960 l 2,44,45
 127 1116 127 1116 127 1378 c 0,12,13
EndSplineSet
EndChar

StartChar: percent
Encoding: 37 37 8
Width: 1999
Flags: HW
LayerCount: 2
Fore
SplineSet
1034 1518 m 1,0,-1
 1253 1518 l 1,1,-1
 971 0 l 1,2,-1
 751 0 l 1,3,-1
 1034 1518 l 1,0,-1
1421 487.5 m 128,-1,5
 1421 195 1421 195 1554.5 195 c 128,-1,6
 1688 195 1688 195 1688 487.5 c 128,-1,7
 1688 780 1688 780 1554.5 780 c 128,-1,4
 1421 780 1421 780 1421 487.5 c 128,-1,5
1554 0 m 128,-1,9
 1459 0 1459 0 1387.5 38.5 c 0,10,11
 1316 78 1316 78 1273 146 c 0,12,13
 1188 281 1188 281 1188 492 c 0,14,15
 1188 706 1188 706 1272 836 c 0,16,17
 1361 976 1361 976 1554 975 c 0,18,19
 1830 976 1830 976 1900 684 c 0,20,21
 1920 598 1920 598 1920.5 492.5 c 128,-1,22
 1921 387 1921 387 1900 300 c 128,-1,23
 1879 213 1879 213 1836 144.5 c 128,-1,24
 1793 76 1793 76 1721 38 c 128,-1,8
 1649 0 1649 0 1554 0 c 128,-1,9
311 1028 m 128,-1,26
 311 735 311 735 444.5 735 c 128,-1,27
 578 735 578 735 578 1028 c 128,-1,28
 578 1321 578 1321 444.5 1321 c 128,-1,25
 311 1321 311 1321 311 1028 c 128,-1,26
444 541 m 128,-1,30
 349 541 349 541 277.5 579.5 c 128,-1,31
 206 618 206 618 163 686 c 0,32,33
 78 820 78 820 78 1032 c 0,34,35
 78 1380 78 1380 275 1480 c 0,36,37
 347 1516 347 1516 434.5 1516 c 128,-1,38
 522 1516 522 1516 584 1491.5 c 128,-1,39
 646 1467 646 1467 688 1424 c 128,-1,40
 730 1381 730 1381 758 1320 c 0,41,42
 811 1205 811 1205 811 1066.5 c 128,-1,43
 811 928 811 928 789.5 840.5 c 128,-1,44
 768 753 768 753 725 685 c 128,-1,45
 682 617 682 617 610.5 579 c 128,-1,29
 539 541 539 541 444 541 c 128,-1,30
EndSplineSet
EndChar

StartChar: ampersand
Encoding: 38 38 9
Width: 1344
Flags: HW
LayerCount: 2
Fore
SplineSet
481 704 m 1,0,1
 384 576 384 576 384 384 c 128,-1,2
 384 192 384 192 512 192 c 0,3,4
 634 192 634 192 736 320 c 1,5,-1
 613 503 l 2,6,7
 600 524 600 524 568 564 c 0,8,9
 496 656 496 656 481 704 c 1,0,1
545 1024 m 1,10,11
 609 1104 609 1104 656.5 1229.5 c 128,-1,12
 704 1355 704 1355 704 1472 c 0,13,14
 704 1530 704 1530 669 1565 c 128,-1,15
 634 1600 634 1600 572.5 1600 c 128,-1,16
 511 1600 511 1600 479.5 1543.5 c 128,-1,17
 448 1487 448 1487 448 1415 c 128,-1,18
 448 1343 448 1343 465 1267 c 0,19,20
 489 1159 489 1159 545 1024 c 1,10,11
896 512 m 1,21,22
 931 591 931 591 960 832 c 1,23,-1
 1216 832 l 1,24,25
 1216 710 1216 710 1169 579 c 128,-1,26
 1122 448 1122 448 1057 350 c 1,27,28
 1132 256 1132 256 1216 256 c 1,29,-1
 1216 -18 l 1,30,31
 1160 -18 1160 -18 1130 -7 c 128,-1,32
 1100 4 1100 4 1084 9.5 c 128,-1,33
 1068 15 1068 15 1045.5 30.5 c 128,-1,34
 1023 46 1023 46 1013 51.5 c 128,-1,35
 1003 57 1003 57 980 78 c 128,-1,36
 957 99 957 99 952 103 c 0,37,38
 942 111 942 111 896 157 c 1,39,40
 758 -18 758 -18 512 -18 c 0,41,42
 334 -18 334 -18 231 92 c 128,-1,43
 128 202 128 202 128 384 c 0,44,45
 128 670 128 670 384 896 c 1,46,47
 370 925 370 925 326 1005.5 c 128,-1,48
 282 1086 282 1086 259 1134.5 c 128,-1,49
 236 1183 236 1183 214 1260.5 c 128,-1,50
 192 1338 192 1338 192 1408 c 0,51,52
 192 1588 192 1588 296 1699 c 128,-1,53
 400 1810 400 1810 570.5 1810 c 128,-1,54
 741 1810 741 1810 850.5 1718.5 c 128,-1,55
 960 1627 960 1627 960 1472 c 0,56,57
 960 1238 960 1238 724 982 c 0,58,59
 688 944 688 944 640 896 c 1,60,-1
 896 512 l 1,21,22
EndSplineSet
EndChar

StartChar: quotesingle
Encoding: 39 39 10
Width: 384
Flags: HW
LayerCount: 2
Fore
SplineSet
62 1792 m 1,0,-1
 318 1792 l 1,1,-1
 254 1328 l 1,2,-1
 126 1328 l 1,3,-1
 62 1792 l 1,0,-1
EndSplineSet
EndChar

StartChar: parenleft
Encoding: 40 40 11
Width: 640
Flags: HW
LayerCount: 2
Fore
SplineSet
384 896 m 1,0,-1
 381 645 l 1,1,2
 380 359 380 359 432 238 c 0,3,4
 479 128 479 128 576 128 c 1,5,-1
 576 -64 l 1,6,7
 408 -64 408 -64 320 24 c 0,8,9
 274 70 274 70 241 120 c 128,-1,10
 208 170 208 170 187.5 249.5 c 128,-1,11
 167 329 167 329 154 393.5 c 128,-1,12
 141 458 141 458 136 558 c 0,13,14
 128 719 128 719 128 868.5 c 128,-1,15
 128 1018 128 1018 129.5 1092.5 c 128,-1,16
 131 1167 131 1167 140 1280.5 c 128,-1,17
 149 1394 149 1394 166 1464.5 c 128,-1,18
 183 1535 183 1535 215.5 1617.5 c 128,-1,19
 248 1700 248 1700 295 1746 c 0,20,21
 406 1856 406 1856 576 1856 c 1,22,-1
 576 1664 l 1,23,24
 526 1664 526 1664 489.5 1632.5 c 128,-1,25
 453 1601 453 1601 432.5 1553 c 128,-1,26
 412 1505 412 1505 400 1432 c 0,27,28
 381 1316 381 1316 381 1143 c 1,29,-1
 384 896 l 1,0,-1
EndSplineSet
EndChar

StartChar: parenright
Encoding: 41 41 12
Width: 640
Flags: HW
LayerCount: 2
Fore
SplineSet
256 896 m 1,0,-1
 259 1147 l 1,1,2
 260 1433 260 1433 208 1554 c 0,3,4
 161 1664 161 1664 64 1664 c 1,5,-1
 64 1856 l 1,6,7
 232 1856 232 1856 320 1768 c 0,8,9
 366 1722 366 1722 399 1672 c 128,-1,10
 432 1622 432 1622 452.5 1542.5 c 128,-1,11
 473 1463 473 1463 486 1398.5 c 128,-1,12
 499 1334 499 1334 504 1234 c 0,13,14
 512 1073 512 1073 512 923.5 c 128,-1,15
 512 774 512 774 510.5 699.5 c 128,-1,16
 509 625 509 625 500 511.5 c 128,-1,17
 491 398 491 398 474 327.5 c 128,-1,18
 457 257 457 257 424.5 174.5 c 128,-1,19
 392 92 392 92 345 46 c 0,20,21
 234 -64 234 -64 64 -64 c 1,22,-1
 64 128 l 1,23,24
 114 128 114 128 150.5 159.5 c 128,-1,25
 187 191 187 191 207.5 239 c 128,-1,26
 228 287 228 287 240 360 c 0,27,28
 259 476 259 476 259 649 c 1,29,-1
 256 896 l 1,0,-1
EndSplineSet
EndChar

StartChar: asterisk
Encoding: 42 42 13
Width: 896
Flags: HW
LayerCount: 2
Fore
SplineSet
343 904 m 1,0,-1
 191 994 l 1,1,-1
 363 1237 l 1,2,-1
 106 1335 l 1,3,-1
 167 1496 l 1,4,-1
 412 1364 l 1,5,-1
 384 1664 l 1,6,-1
 576 1664 l 1,7,-1
 547 1364 l 1,8,-1
 793 1496 l 1,9,-1
 854 1335 l 1,10,-1
 597 1236 l 1,11,-1
 769 994 l 1,12,-1
 617 904 l 1,13,-1
 480 1181 l 1,14,-1
 343 904 l 1,0,-1
EndSplineSet
EndChar

StartChar: plus
Encoding: 43 43 14
Width: 704
Flags: HW
LayerCount: 2
Fore
SplineSet
256 384 m 1,0,-1
 256 576 l 1,1,-1
 64 576 l 1,2,-1
 64 768 l 1,3,-1
 256 768 l 1,4,-1
 256 960 l 1,5,-1
 448 960 l 1,6,-1
 448 768 l 1,7,-1
 640 768 l 1,8,-1
 640 576 l 1,9,-1
 448 576 l 1,10,-1
 448 384 l 1,11,-1
 256 384 l 1,0,-1
EndSplineSet
EndChar

StartChar: comma
Encoding: 44 44 15
Width: 408
Flags: HW
LayerCount: 2
Fore
SplineSet
76 256 m 1,0,-1
 332 256 l 1,1,2
 332 6 332 6 325.5 -54 c 128,-1,3
 319 -114 319 -114 307 -150.5 c 0,4,5
 295 -186 295 -186 275 -208 c 0,6,7
 231 -255 231 -255 140 -256 c 1,8,-1
 76 -128 l 1,9,10
 145 -128 145 -128 174.5 -98 c 128,-1,11
 204 -68 204 -68 204 0 c 1,12,-1
 76 0 l 1,13,-1
 76 256 l 1,0,-1
EndSplineSet
EndChar

StartChar: hyphen
Encoding: 45 45 16
Width: 384
Flags: HW
LayerCount: 2
Fore
SplineSet
0 640 m 1,0,-1
 384 640 l 1,1,-1
 384 448 l 1,2,-1
 0 448 l 1,3,-1
 0 640 l 1,0,-1
EndSplineSet
EndChar

StartChar: period
Encoding: 46 46 17
Width: 384
Flags: HW
LayerCount: 2
Fore
SplineSet
64 256 m 1,0,-1
 320 256 l 1,1,-1
 320 0 l 1,2,-1
 64 0 l 1,3,-1
 64 256 l 1,0,-1
EndSplineSet
EndChar

StartChar: slash
Encoding: 47 47 18
Width: 832
Flags: HW
LayerCount: 2
Fore
SplineSet
575 1792 m 1,0,-1
 832 1792 l 1,1,-1
 256 0 l 1,2,-1
 0 0 l 1,3,-1
 575 1792 l 1,0,-1
EndSplineSet
EndChar

StartChar: zero
Encoding: 48 48 19
Width: 1088
Flags: HW
LayerCount: 2
Fore
SplineSet
352 512 m 2,0,1
 352 192 352 192 544 192 c 128,-1,2
 736 192 736 192 736 512 c 2,3,-1
 736 1280 l 2,4,5
 736 1459 736 1459 682 1535 c 0,6,7
 636 1600 636 1600 544 1600 c 0,8,9
 377 1600 377 1600 356 1376 c 0,10,11
 352 1334 352 1334 352 1280 c 2,12,-1
 352 512 l 2,0,1
992 512 m 2,13,14
 992 271 992 271 877.5 126.5 c 128,-1,15
 763 -18 763 -18 544 -18 c 0,16,17
 398 -18 398 -18 296 51 c 0,18,19
 96 185 96 185 96 512 c 2,20,-1
 96 1280 l 2,21,22
 96 1527 96 1527 208 1668.5 c 128,-1,23
 320 1810 320 1810 543.5 1810 c 128,-1,24
 767 1810 767 1810 879.5 1668 c 128,-1,25
 992 1526 992 1526 992 1280 c 2,26,-1
 992 512 l 2,13,14
EndSplineSet
EndChar

StartChar: one
Encoding: 49 49 20
Width: 640
Flags: HW
LayerCount: 2
Fore
SplineSet
64 1600 m 1,0,1
 257 1669 257 1669 320 1792 c 1,2,-1
 512 1792 l 1,3,-1
 512 0 l 1,4,-1
 256 0 l 1,5,-1
 256 1408 l 1,6,-1
 64 1408 l 1,7,-1
 64 1600 l 1,0,1
EndSplineSet
EndChar

StartChar: two
Encoding: 50 50 21
Width: 1020
Flags: HW
LayerCount: 2
Fore
SplineSet
72 1280 m 2,0,1
 72 1810 72 1810 520 1810 c 0,2,3
 738 1810 738 1810 853 1687.5 c 128,-1,4
 968 1565 968 1565 968 1344 c 0,5,6
 968 1178 968 1178 908 1051 c 0,7,8
 861 952 861 952 776 832 c 1,9,-1
 328 256 l 1,10,-1
 968 256 l 1,11,-1
 968 0 l 1,12,-1
 71 0 l 1,13,-1
 71 256 l 1,14,-1
 520 896 l 1,15,16
 630 1047 630 1047 645.5 1081 c 128,-1,17
 661 1115 661 1115 675.5 1149 c 0,18,19
 690 1184 690 1184 696 1210 c 0,20,21
 712 1281 712 1281 712 1366 c 128,-1,22
 712 1451 712 1451 662.5 1525.5 c 128,-1,23
 613 1600 613 1600 520 1600 c 0,24,25
 410 1600 410 1600 366 1498 c 0,26,27
 328 1408 328 1408 328 1280 c 2,28,-1
 328 1216 l 1,29,-1
 72 1216 l 1,30,-1
 72 1280 l 2,0,1
EndSplineSet
EndChar

StartChar: three
Encoding: 51 51 22
Width: 1027
Flags: HW
LayerCount: 2
Fore
SplineSet
974 512 m 0,0,1
 974 -18 974 -18 526 -18 c 0,2,3
 308 -18 308 -18 193 104.5 c 128,-1,4
 78 227 78 227 78 448 c 2,5,-1
 78 512 l 1,6,-1
 334 512 l 1,7,8
 334 318 334 318 384 252 c 0,9,10
 430 192 430 192 526 192 c 0,11,12
 666 192 666 192 700 323 c 0,13,14
 718 394 718 394 718 530 c 128,-1,15
 718 666 718 666 658.5 749 c 128,-1,16
 599 832 599 832 462 832 c 1,17,-1
 462 1088 l 1,18,19
 602 1088 602 1088 660 1145.5 c 128,-1,20
 718 1203 718 1203 718 1337 c 128,-1,21
 718 1471 718 1471 676 1535.5 c 128,-1,22
 634 1600 634 1600 526 1600 c 0,23,24
 386 1600 386 1600 352 1469 c 0,25,26
 334 1398 334 1398 334 1280 c 1,27,-1
 78 1280 l 1,28,-1
 78 1344 l 2,29,30
 78 1564 78 1564 193.5 1687 c 128,-1,31
 309 1810 309 1810 526.5 1810 c 128,-1,32
 744 1810 744 1810 859 1687.5 c 128,-1,33
 974 1565 974 1565 974 1344 c 0,34,35
 974 1192 974 1192 906 1094.5 c 128,-1,36
 838 997 838 997 718 960 c 1,37,38
 843 918 843 918 908.5 803 c 128,-1,39
 974 688 974 688 974 512 c 0,0,1
EndSplineSet
EndChar

StartChar: four
Encoding: 52 52 23
Width: 1087
Flags: HW
LayerCount: 2
Fore
SplineSet
595 702 m 1,0,-1
 595 1472 l 1,1,-1
 339 702 l 1,2,-1
 595 702 l 1,0,-1
595 460 m 1,3,-1
 83 460 l 1,4,-1
 83 745 l 1,5,-1
 531 1793 l 1,6,-1
 851 1793 l 1,7,-1
 851 702 l 1,8,-1
 1049 702 l 1,9,-1
 1049 460 l 1,10,-1
 851 460 l 1,11,-1
 851 0 l 1,12,-1
 595 0 l 1,13,-1
 595 460 l 1,3,-1
EndSplineSet
EndChar

StartChar: five
Encoding: 53 53 24
Width: 1050
Flags: HW
LayerCount: 2
Fore
SplineSet
514 186 m 0,0,1
 552 186 552 186 578.5 192.5 c 128,-1,2
 605 199 605 199 624.5 211 c 128,-1,3
 644 223 644 223 660 240 c 128,-1,4
 676 257 676 257 687 278 c 128,-1,5
 698 299 698 299 706.5 324 c 128,-1,6
 715 349 715 349 719.5 376.5 c 128,-1,7
 724 404 724 404 727 434 c 128,-1,8
 730 464 730 464 730.5 495.5 c 128,-1,9
 731 527 731 527 732 559.5 c 128,-1,10
 733 592 733 592 732.5 619.5 c 128,-1,11
 732 647 732 647 732 674 c 128,-1,12
 732 701 732 701 731 731.5 c 128,-1,13
 730 762 730 762 725.5 797.5 c 128,-1,14
 721 833 721 833 713 857 c 128,-1,15
 705 881 705 881 691 905 c 128,-1,16
 677 929 677 929 657 943 c 0,17,18
 613 974 613 974 543 974 c 128,-1,19
 473 974 473 974 423 930 c 128,-1,20
 373 886 373 886 350 826 c 1,21,-1
 132 826 l 1,22,-1
 132 1792 l 1,23,-1
 924 1792 l 1,24,-1
 924 1536 l 1,25,-1
 364 1536 l 1,26,-1
 348 1102 l 1,27,28
 456 1166 456 1166 604 1166 c 0,29,30
 852 1166 852 1166 938 953 c 0,31,32
 988 828 988 828 988 676.5 c 128,-1,33
 988 525 988 525 976 432 c 128,-1,34
 964 339 964 339 933 253 c 128,-1,35
 902 167 902 167 852 109 c 0,36,37
 743 -18 743 -18 519.5 -18 c 128,-1,38
 296 -18 296 -18 194 116.5 c 128,-1,39
 92 251 92 251 92 512 c 1,40,-1
 348 512 l 1,41,-1
 348 472 l 2,42,43
 348 304 348 304 394 242 c 0,44,45
 436 186 436 186 514 186 c 0,0,1
EndSplineSet
EndChar

StartChar: six
Encoding: 54 54 25
Width: 1083
Flags: HW
LayerCount: 2
Fore
SplineSet
368 512 m 2,0,1
 368 384 368 384 397.5 315 c 128,-1,2
 427 246 427 246 466 219 c 128,-1,3
 505 192 505 192 560 192 c 128,-1,4
 615 192 615 192 654 219 c 0,5,6
 694 246 694 246 714 294 c 0,7,8
 752 384 752 384 752 512 c 2,9,-1
 752 570 l 2,10,11
 752 720 752 720 728 776 c 0,12,13
 703 835 703 835 687.5 848.5 c 128,-1,14
 672 862 672 862 654 874 c 0,15,16
 621 896 621 896 560 896 c 0,17,18
 436 896 436 896 368 768 c 1,19,-1
 368 512 l 2,0,1
112 1152 m 2,20,21
 112 1655 112 1655 380 1775 c 0,22,23
 458 1810 458 1810 560 1810 c 0,24,25
 776 1810 776 1810 892 1687.5 c 128,-1,26
 1008 1565 1008 1565 1008 1344 c 1,27,-1
 752 1344 l 1,28,29
 752 1472 752 1472 710.5 1536 c 128,-1,30
 669 1600 669 1600 560 1600 c 0,31,32
 368 1600 368 1600 368 1216 c 2,33,-1
 368 960 l 1,34,35
 442 1088 442 1088 624 1088 c 0,36,37
 840 1088 840 1088 928 942 c 0,38,39
 1008 807 1008 807 1008 576 c 0,40,41
 1008 321 1008 321 906 158 c 0,42,43
 796 -18 796 -18 560 -18 c 0,44,45
 296 -18 296 -18 180 228 c 0,46,47
 112 372 112 372 112 576 c 2,48,-1
 112 1152 l 2,20,21
EndSplineSet
EndChar

StartChar: seven
Encoding: 55 55 26
Width: 826
Flags: HW
LayerCount: 2
Fore
SplineSet
45 1792 m 1,0,-1
 762 1792 l 1,1,-1
 762 1669 l 1,2,-1
 436 0 l 1,3,-1
 190 0 l 1,4,-1
 518 1579 l 1,5,-1
 45 1579 l 1,6,-1
 45 1792 l 1,0,-1
EndSplineSet
EndChar

StartChar: eight
Encoding: 56 56 27
Width: 1024
Flags: HW
LayerCount: 2
Fore
SplineSet
328 626.5 m 128,-1,1
 320 576 320 576 320 514.5 c 128,-1,2
 320 453 320 453 323.5 411.5 c 128,-1,3
 327 370 327 370 338.5 325.5 c 128,-1,4
 350 281 350 281 370.5 254 c 128,-1,5
 391 227 391 227 427 209.5 c 128,-1,6
 463 192 463 192 513 192 c 128,-1,7
 563 192 563 192 599 210 c 128,-1,8
 635 228 635 228 655 255 c 0,9,10
 674 282 674 282 686 326 c 0,11,12
 704 394 704 394 704 484.5 c 128,-1,13
 704 575 704 575 696 625.5 c 128,-1,14
 688 676 688 676 668 722 c 128,-1,15
 648 768 648 768 609 793 c 128,-1,16
 570 818 570 818 513 818 c 128,-1,17
 456 818 456 818 416.5 793 c 128,-1,18
 377 768 377 768 356.5 722.5 c 128,-1,0
 336 677 336 677 328 626.5 c 128,-1,1
64 511 m 0,19,20
 64 678 64 678 110 779.5 c 128,-1,21
 156 881 156 881 258 946 c 1,22,23
 172 1011 172 1011 131 1106 c 128,-1,24
 90 1201 90 1201 90 1344 c 0,25,26
 90 1566 90 1566 196 1688 c 128,-1,27
 302 1810 302 1810 512.5 1810 c 128,-1,28
 723 1810 723 1810 828.5 1687.5 c 128,-1,29
 934 1565 934 1565 934 1344 c 0,30,31
 934 1200 934 1200 893.5 1105.5 c 128,-1,32
 853 1011 853 1011 767 946 c 1,33,34
 868 880 868 880 914 778 c 128,-1,35
 960 676 960 676 960 511 c 0,36,37
 960 255 960 255 854 118.5 c 128,-1,38
 748 -18 748 -18 512.5 -18 c 128,-1,39
 277 -18 277 -18 170.5 118.5 c 128,-1,40
 64 255 64 255 64 511 c 0,19,20
673 1344 m 0,41,42
 673 1600 673 1600 512 1600 c 128,-1,43
 351 1600 351 1600 351 1344 c 0,44,45
 350 1139 350 1139 428 1086 c 0,46,47
 462 1063 462 1063 512.5 1063 c 128,-1,48
 563 1063 563 1063 596.5 1086 c 0,49,50
 630 1108 630 1108 646 1152 c 0,51,52
 673 1226 673 1226 673 1344 c 0,41,42
EndSplineSet
EndChar

StartChar: nine
Encoding: 57 57 28
Width: 1083
Flags: HW
LayerCount: 2
Fore
SplineSet
732 1280 m 2,0,1
 732 1408 732 1408 702.5 1477 c 128,-1,2
 673 1546 673 1546 634 1573 c 128,-1,3
 595 1600 595 1600 540 1600 c 128,-1,4
 485 1600 485 1600 446 1573 c 0,5,6
 406 1546 406 1546 386 1498 c 0,7,8
 348 1408 348 1408 348 1280 c 2,9,-1
 348 1222 l 2,10,11
 348 1072 348 1072 372 1016 c 0,12,13
 397 957 397 957 412.5 943.5 c 128,-1,14
 428 930 428 930 446 918 c 0,15,16
 479 896 479 896 540 896 c 0,17,18
 662 896 662 896 732 1024 c 1,19,-1
 732 1280 l 2,0,1
988 640 m 2,20,21
 988 137 988 137 720 17 c 0,22,23
 642 -18 642 -18 540 -18 c 0,24,25
 324 -18 324 -18 208 104.5 c 128,-1,26
 92 227 92 227 92 448 c 1,27,-1
 348 448 l 1,28,29
 348 320 348 320 389.5 256 c 128,-1,30
 431 192 431 192 540 192 c 0,31,32
 732 192 732 192 732 576 c 2,33,-1
 732 832 l 1,34,35
 656 704 656 704 476 704 c 0,36,37
 260 704 260 704 172 850 c 0,38,39
 92 985 92 985 92 1216 c 0,40,41
 92 1471 92 1471 194 1634 c 0,42,43
 304 1810 304 1810 540 1810 c 0,44,45
 804 1810 804 1810 920 1564 c 0,46,47
 988 1420 988 1420 988 1216 c 2,48,-1
 988 640 l 2,20,21
EndSplineSet
EndChar

StartChar: colon
Encoding: 58 58 29
Width: 439
Flags: HW
LayerCount: 2
Fore
SplineSet
128 512 m 1,0,-1
 384 512 l 1,1,-1
 384 256 l 1,2,-1
 128 256 l 1,3,-1
 128 512 l 1,0,-1
128 1088 m 1,4,-1
 384 1088 l 1,5,-1
 384 832 l 1,6,-1
 128 832 l 1,7,-1
 128 1088 l 1,4,-1
EndSplineSet
EndChar

StartChar: semicolon
Encoding: 59 59 30
Width: 384
Flags: HW
LayerCount: 2
Fore
SplineSet
64 512 m 1,0,-1
 320 512 l 1,1,2
 320 262 320 262 313.5 202 c 128,-1,3
 307 142 307 142 295 105.5 c 0,4,5
 283 70 283 70 263 48 c 0,6,7
 219 0 219 0 128 0 c 1,8,-1
 64 128 l 1,9,10
 133 128 133 128 162.5 158 c 128,-1,11
 192 188 192 188 192 256 c 1,12,-1
 64 256 l 1,13,-1
 64 512 l 1,0,-1
64 1088 m 1,14,-1
 320 1088 l 1,15,-1
 320 832 l 1,16,-1
 64 832 l 1,17,-1
 64 1088 l 1,14,-1
EndSplineSet
EndChar

StartChar: less
Encoding: 60 60 31
Width: 832
Flags: HW
LayerCount: 2
Fore
SplineSet
64 768 m 1,0,-1
 704 1216 l 1,1,-1
 704 960 l 1,2,-1
 256 641 l 1,3,-1
 704 320 l 1,4,-1
 704 64 l 1,5,-1
 64 512 l 1,6,-1
 64 768 l 1,0,-1
EndSplineSet
EndChar

StartChar: equal
Encoding: 61 61 32
Width: 704
Flags: HW
LayerCount: 2
Fore
SplineSet
64 255 m 1,0,-1
 64 447 l 1,1,-1
 640 447 l 1,2,-1
 640 255 l 1,3,-1
 64 255 l 1,0,-1
64 576 m 1,4,-1
 64 768 l 1,5,-1
 640 768 l 1,6,-1
 640 576 l 1,7,-1
 64 576 l 1,4,-1
EndSplineSet
EndChar

StartChar: greater
Encoding: 62 62 33
Width: 832
Flags: HW
LayerCount: 2
Fore
SplineSet
768 512 m 1,0,-1
 128 64 l 1,1,-1
 128 320 l 1,2,-1
 576 641 l 1,3,-1
 128 960 l 1,4,-1
 128 1216 l 1,5,-1
 768 768 l 1,6,-1
 768 512 l 1,0,-1
EndSplineSet
EndChar

StartChar: question
Encoding: 63 63 34
Width: 1152
Flags: HW
LayerCount: 2
Fore
SplineSet
384 256 m 1,0,-1
 640 256 l 1,1,-1
 640 0 l 1,2,-1
 384 0 l 1,3,-1
 384 256 l 1,0,-1
384 704 m 1,4,5
 604 837 604 837 686 955 c 0,6,7
 768 1075 768 1075 768 1216 c 0,8,9
 768 1408 768 1408 576 1408 c 0,10,11
 468 1408 468 1408 426 1343.5 c 128,-1,12
 384 1279 384 1279 384 1152 c 1,13,-1
 128 1152 l 1,14,-1
 128 1216 l 2,15,16
 128 1435 128 1435 243.5 1549.5 c 128,-1,17
 359 1664 359 1664 577 1664 c 128,-1,18
 795 1664 795 1664 910 1548.5 c 128,-1,19
 1025 1433 1025 1433 1025 1218.5 c 128,-1,20
 1025 1004 1025 1004 923.5 865.5 c 128,-1,21
 822 727 822 727 640 640 c 1,22,-1
 640 384 l 1,23,-1
 384 384 l 1,24,-1
 384 704 l 1,4,5
EndSplineSet
EndChar

StartChar: at
Encoding: 64 64 35
Width: 1782
Flags: HW
LayerCount: 2
Fore
SplineSet
1654 768 m 0,0,1
 1654 561 1654 561 1566 431 c 0,2,3
 1472 292 1472 292 1286 292 c 0,4,5
 1190 292 1190 292 1118.5 326 c 128,-1,6
 1047 360 1047 360 1011 420 c 1,7,8
 954 292 954 292 844 292 c 128,-1,9
 734 292 734 292 658 348 c 0,10,11
 512 457 512 457 512 693 c 0,12,13
 512 1066 512 1066 696 1168 c 0,14,15
 749 1198 749 1198 815.5 1197.5 c 128,-1,16
 882 1197 882 1197 918.5 1160.5 c 128,-1,17
 955 1124 955 1124 958 1061 c 1,18,-1
 958 1188 l 1,19,-1
 1214 1188 l 1,20,-1
 1214 620 l 2,21,22
 1214 582 1214 582 1217 560 c 128,-1,23
 1220 538 1220 538 1236 520 c 128,-1,24
 1252 502 1252 502 1282 502 c 0,25,26
 1398 502 1398 502 1398 768 c 0,27,28
 1398 1228 1398 1228 1132 1339 c 0,29,30
 1034 1380 1034 1380 900.5 1380 c 128,-1,31
 767 1380 767 1380 668 1335 c 0,32,33
 570 1290 570 1290 508 1208 c 0,34,35
 384 1043 384 1043 384 768 c 0,36,37
 384 428 384 428 507 252 c 0,38,39
 637 64 637 64 958 64 c 0,40,41
 1083 64 1083 64 1254 119 c 1,42,-1
 1348 -77 l 1,43,44
 1125 -128 1125 -128 958 -128 c 0,45,46
 524 -128 524 -128 326 93.5 c 128,-1,47
 128 315 128 315 128 768 c 0,48,49
 128 1140 128 1140 331 1356 c 128,-1,50
 534 1572 534 1572 900.5 1572 c 128,-1,51
 1267 1572 1267 1572 1460.5 1360.5 c 128,-1,52
 1654 1149 1654 1149 1654 768 c 0,0,1
884 502 m 0,53,54
 953 502 953 502 958 542 c 1,55,-1
 958 945 l 1,56,57
 951 996 951 996 904 996 c 0,58,59
 860 996 860 996 842 981.5 c 128,-1,60
 824 967 824 967 814 957.5 c 128,-1,61
 804 948 804 948 796.5 929 c 128,-1,62
 789 910 789 910 784 897.5 c 128,-1,63
 779 885 779 885 776 859.5 c 128,-1,64
 773 834 773 834 771.5 820.5 c 128,-1,65
 770 807 770 807 769 777.5 c 128,-1,66
 768 748 768 748 768 736 c 2,67,-1
 768 693 l 2,68,69
 768 502 768 502 884 502 c 0,53,54
EndSplineSet
EndChar

StartChar: A
Encoding: 65 65 36
Width: 1038
Flags: HW
LayerCount: 2
Fore
SplineSet
647 640 m 1,0,-1
 519 1408 l 1,1,-1
 391 640 l 1,2,-1
 647 640 l 1,0,-1
359 448 m 1,3,-1
 263 0 l 1,4,-1
 7 0 l 1,5,-1
 391 1792 l 1,6,-1
 647 1792 l 1,7,-1
 1031 0 l 1,8,-1
 775 0 l 1,9,-1
 679 448 l 1,10,-1
 359 448 l 1,3,-1
EndSplineSet
EndChar

StartChar: B
Encoding: 66 66 37
Width: 1136
Flags: HW
LayerCount: 2
Fore
SplineSet
512 1024 m 2,0,1
 832 1024 832 1024 832 1344 c 0,2,3
 832 1500 832 1500 734 1550 c 0,4,5
 662 1587 662 1587 594 1593 c 0,6,7
 502 1600 502 1600 384 1600 c 1,8,-1
 384 1024 l 1,9,-1
 512 1024 l 2,0,1
832 512 m 128,-1,11
 832 679 832 679 755 755.5 c 128,-1,12
 678 832 678 832 512 832 c 2,13,-1
 384 832 l 1,14,-1
 384 192 l 1,15,-1
 512 192 l 2,16,17
 678 192 678 192 755 268.5 c 128,-1,10
 832 345 832 345 832 512 c 128,-1,11
1088 512 m 0,18,19
 1088 275 1088 275 950.5 137.5 c 128,-1,20
 813 0 813 0 576 0 c 2,21,-1
 128 0 l 1,22,-1
 128 1792 l 1,23,-1
 512 1792 l 2,24,25
 760 1792 760 1792 906 1687 c 0,26,27
 1058 1577 1058 1577 1058 1344 c 0,28,29
 1058 1176 1058 1176 987 1088.5 c 128,-1,30
 916 1001 916 1001 768 960 c 1,31,32
 928 907 928 907 1008 804.5 c 128,-1,33
 1088 702 1088 702 1088 512 c 0,18,19
EndSplineSet
EndChar

StartChar: C
Encoding: 67 67 38
Width: 1107
Flags: HW
LayerCount: 2
Fore
SplineSet
1065 576 m 2,0,1
 1066 137 1066 137 814 24 c 0,2,3
 720 -18 720 -18 597.5 -18 c 128,-1,4
 475 -18 475 -18 389 14 c 128,-1,5
 303 46 303 46 248 102.5 c 0,6,7
 192 160 192 160 158 244 c 0,8,9
 96 397 96 397 96 641 c 2,10,-1
 96 1152 l 2,11,12
 96 1535 96 1535 248 1690 c 0,13,14
 366 1810 366 1810 588 1810 c 0,15,16
 850 1810 850 1810 962 1647 c 0,17,18
 1064 1497 1064 1497 1065 1216 c 1,19,-1
 809 1216 l 1,20,21
 809 1362 809 1362 802 1399.5 c 128,-1,22
 795 1437 795 1437 787 1465.5 c 128,-1,23
 779 1494 779 1494 768 1512 c 128,-1,24
 757 1530 757 1530 740.5 1548.5 c 128,-1,25
 724 1567 724 1567 702 1577 c 0,26,27
 653 1600 653 1600 589.5 1600 c 128,-1,28
 526 1600 526 1600 481.5 1580 c 128,-1,29
 437 1560 437 1560 412 1528.5 c 0,30,31
 388 1497 388 1497 374 1444 c 0,32,33
 352 1360 352 1360 352 1216 c 2,34,-1
 352 576 l 2,35,36
 352 364 352 364 420 270 c 0,37,38
 477 192 477 192 588 192 c 0,39,40
 784 192 784 192 805 460 c 0,41,42
 809 510 809 510 809 576 c 2,43,-1
 809 640 l 1,44,-1
 1065 640 l 1,45,-1
 1065 576 l 2,0,1
EndSplineSet
EndChar

StartChar: D
Encoding: 68 68 39
Width: 1133
Flags: HW
LayerCount: 2
Fore
SplineSet
781 1216 m 2,0,1
 781 1374 781 1374 773 1411 c 128,-1,2
 765 1448 765 1448 756 1476.5 c 128,-1,3
 747 1505 747 1505 733.5 1521 c 128,-1,4
 720 1537 720 1537 700.5 1554.5 c 0,5,6
 682 1572 682 1572 656 1580 c 0,7,8
 598 1600 598 1600 520 1600 c 2,9,-1
 384 1600 l 1,10,-1
 384 192 l 1,11,-1
 525 192 l 2,12,13
 670 192 670 192 726 266 c 0,14,15
 774 330 774 330 779 465 c 0,16,17
 782 546 782 546 782 576 c 0,18,19
 782 581 782 581 782 585 c 0,20,21
 781 609 781 609 781 614 c 2,22,-1
 781 1216 l 2,0,1
1037 576 m 2,23,24
 1037 281 1037 281 919.5 140.5 c 128,-1,25
 802 0 802 0 523 0 c 2,26,-1
 128 0 l 1,27,-1
 128 1792 l 1,28,-1
 525 1792 l 2,29,30
 806 1792 806 1792 921.5 1677 c 128,-1,31
 1037 1562 1037 1562 1037 1280 c 2,32,-1
 1037 576 l 2,23,24
EndSplineSet
PairPos2: "'kern' Horizontal Kerning in Latin lookup 1 per glyph data 0" uni0202 dx=0 dy=0 dh=-32 dv=0 dx=0 dy=0 dh=0 dv=0
PairPos2: "'kern' Horizontal Kerning in Latin lookup 1 per glyph data 0" Ydieresis dx=0 dy=0 dh=-21 dv=0 dx=0 dy=0 dh=0 dv=0
PairPos2: "'kern' Horizontal Kerning in Latin lookup 1 per glyph data 0" Aogonek dx=0 dy=0 dh=-32 dv=0 dx=0 dy=0 dh=0 dv=0
PairPos2: "'kern' Horizontal Kerning in Latin lookup 1 per glyph data 0" Abreve dx=0 dy=0 dh=-32 dv=0 dx=0 dy=0 dh=0 dv=0
PairPos2: "'kern' Horizontal Kerning in Latin lookup 1 per glyph data 0" Amacron dx=0 dy=0 dh=-32 dv=0 dx=0 dy=0 dh=0 dv=0
PairPos2: "'kern' Horizontal Kerning in Latin lookup 1 per glyph data 0" Yacute dx=0 dy=0 dh=-21 dv=0 dx=0 dy=0 dh=0 dv=0
PairPos2: "'kern' Horizontal Kerning in Latin lookup 1 per glyph data 0" Aring dx=0 dy=0 dh=-32 dv=0 dx=0 dy=0 dh=0 dv=0
PairPos2: "'kern' Horizontal Kerning in Latin lookup 1 per glyph data 0" Adieresis dx=0 dy=0 dh=-32 dv=0 dx=0 dy=0 dh=0 dv=0
PairPos2: "'kern' Horizontal Kerning in Latin lookup 1 per glyph data 0" Atilde dx=0 dy=0 dh=-32 dv=0 dx=0 dy=0 dh=0 dv=0
PairPos2: "'kern' Horizontal Kerning in Latin lookup 1 per glyph data 0" Acircumflex dx=0 dy=0 dh=-32 dv=0 dx=0 dy=0 dh=0 dv=0
PairPos2: "'kern' Horizontal Kerning in Latin lookup 1 per glyph data 0" Aacute dx=0 dy=0 dh=-32 dv=0 dx=0 dy=0 dh=0 dv=0
PairPos2: "'kern' Horizontal Kerning in Latin lookup 1 per glyph data 0" Agrave dx=0 dy=0 dh=-32 dv=0 dx=0 dy=0 dh=0 dv=0
PairPos2: "'kern' Horizontal Kerning in Latin lookup 1 per glyph data 0" Y dx=0 dy=0 dh=-21 dv=0 dx=0 dy=0 dh=0 dv=0
PairPos2: "'kern' Horizontal Kerning in Latin lookup 1 per glyph data 0" W dx=0 dy=0 dh=-20 dv=0 dx=0 dy=0 dh=0 dv=0
PairPos2: "'kern' Horizontal Kerning in Latin lookup 1 per glyph data 0" V dx=0 dy=0 dh=-35 dv=0 dx=0 dy=0 dh=0 dv=0
PairPos2: "'kern' Horizontal Kerning in Latin lookup 1 per glyph data 0" A dx=0 dy=0 dh=-32 dv=0 dx=0 dy=0 dh=0 dv=0
PairPos2: "'kern' Horizontal Kerning in Latin lookup 1 per glyph data 0" period dx=0 dy=0 dh=-40 dv=0 dx=0 dy=0 dh=0 dv=0
PairPos2: "'kern' Horizontal Kerning in Latin lookup 1 per glyph data 0" period dx=0 dy=0 dh=-40 dv=0 dx=0 dy=0 dh=0 dv=0
PairPos2: "'kern' Horizontal Kerning in Latin lookup 1 per glyph data 0" comma dx=0 dy=0 dh=-40 dv=0 dx=0 dy=0 dh=0 dv=0
PairPos2: "'kern' Horizontal Kerning in Latin lookup 1 per glyph data 0" comma dx=0 dy=0 dh=-40 dv=0 dx=0 dy=0 dh=0 dv=0
EndChar

StartChar: E
Encoding: 69 69 40
Width: 861
Flags: HW
LayerCount: 2
Fore
SplineSet
704 832 m 1,0,-1
 384 832 l 1,1,-1
 384 192 l 1,2,-1
 832 192 l 1,3,-1
 832 0 l 1,4,-1
 128 0 l 1,5,-1
 128 1792 l 1,6,-1
 832 1792 l 1,7,-1
 832 1600 l 1,8,-1
 384 1600 l 1,9,-1
 384 1024 l 1,10,-1
 704 1024 l 1,11,-1
 704 832 l 1,0,-1
EndSplineSet
PairPos2: "'kern' Horizontal Kerning in Latin lookup 1 per glyph data 0" scaron dx=0 dy=0 dh=-64 dv=0 dx=0 dy=0 dh=0 dv=0
PairPos2: "'kern' Horizontal Kerning in Latin lookup 1 per glyph data 0" scaron dx=0 dy=0 dh=-64 dv=0 dx=0 dy=0 dh=0 dv=0
PairPos2: "'kern' Horizontal Kerning in Latin lookup 1 per glyph data 0" scedilla dx=0 dy=0 dh=-64 dv=0 dx=0 dy=0 dh=0 dv=0
PairPos2: "'kern' Horizontal Kerning in Latin lookup 1 per glyph data 0" scedilla dx=0 dy=0 dh=-64 dv=0 dx=0 dy=0 dh=0 dv=0
PairPos2: "'kern' Horizontal Kerning in Latin lookup 1 per glyph data 0" scircumflex dx=0 dy=0 dh=-64 dv=0 dx=0 dy=0 dh=0 dv=0
PairPos2: "'kern' Horizontal Kerning in Latin lookup 1 per glyph data 0" scircumflex dx=0 dy=0 dh=-64 dv=0 dx=0 dy=0 dh=0 dv=0
PairPos2: "'kern' Horizontal Kerning in Latin lookup 1 per glyph data 0" sacute dx=0 dy=0 dh=-64 dv=0 dx=0 dy=0 dh=0 dv=0
PairPos2: "'kern' Horizontal Kerning in Latin lookup 1 per glyph data 0" sacute dx=0 dy=0 dh=-64 dv=0 dx=0 dy=0 dh=0 dv=0
PairPos2: "'kern' Horizontal Kerning in Latin lookup 1 per glyph data 0" ohungarumlaut dx=0 dy=0 dh=-64 dv=0 dx=0 dy=0 dh=0 dv=0
PairPos2: "'kern' Horizontal Kerning in Latin lookup 1 per glyph data 0" ohungarumlaut dx=0 dy=0 dh=-64 dv=0 dx=0 dy=0 dh=0 dv=0
PairPos2: "'kern' Horizontal Kerning in Latin lookup 1 per glyph data 0" gdotaccent dx=0 dy=0 dh=-64 dv=0 dx=0 dy=0 dh=0 dv=0
PairPos2: "'kern' Horizontal Kerning in Latin lookup 1 per glyph data 0" gdotaccent dx=0 dy=0 dh=-64 dv=0 dx=0 dy=0 dh=0 dv=0
PairPos2: "'kern' Horizontal Kerning in Latin lookup 1 per glyph data 0" gbreve dx=0 dy=0 dh=-64 dv=0 dx=0 dy=0 dh=0 dv=0
PairPos2: "'kern' Horizontal Kerning in Latin lookup 1 per glyph data 0" gbreve dx=0 dy=0 dh=-64 dv=0 dx=0 dy=0 dh=0 dv=0
PairPos2: "'kern' Horizontal Kerning in Latin lookup 1 per glyph data 0" gcircumflex dx=0 dy=0 dh=-64 dv=0 dx=0 dy=0 dh=0 dv=0
PairPos2: "'kern' Horizontal Kerning in Latin lookup 1 per glyph data 0" gcircumflex dx=0 dy=0 dh=-64 dv=0 dx=0 dy=0 dh=0 dv=0
PairPos2: "'kern' Horizontal Kerning in Latin lookup 1 per glyph data 0" ecaron dx=0 dy=0 dh=-64 dv=0 dx=0 dy=0 dh=0 dv=0
PairPos2: "'kern' Horizontal Kerning in Latin lookup 1 per glyph data 0" ecaron dx=0 dy=0 dh=-64 dv=0 dx=0 dy=0 dh=0 dv=0
PairPos2: "'kern' Horizontal Kerning in Latin lookup 1 per glyph data 0" cdotaccent dx=0 dy=0 dh=-64 dv=0 dx=0 dy=0 dh=0 dv=0
PairPos2: "'kern' Horizontal Kerning in Latin lookup 1 per glyph data 0" cdotaccent dx=0 dy=0 dh=-64 dv=0 dx=0 dy=0 dh=0 dv=0
PairPos2: "'kern' Horizontal Kerning in Latin lookup 1 per glyph data 0" ccircumflex dx=0 dy=0 dh=-64 dv=0 dx=0 dy=0 dh=0 dv=0
PairPos2: "'kern' Horizontal Kerning in Latin lookup 1 per glyph data 0" ccircumflex dx=0 dy=0 dh=-64 dv=0 dx=0 dy=0 dh=0 dv=0
PairPos2: "'kern' Horizontal Kerning in Latin lookup 1 per glyph data 0" s dx=0 dy=0 dh=-64 dv=0 dx=0 dy=0 dh=0 dv=0
PairPos2: "'kern' Horizontal Kerning in Latin lookup 1 per glyph data 0" s dx=0 dy=0 dh=-64 dv=0 dx=0 dy=0 dh=0 dv=0
PairPos2: "'kern' Horizontal Kerning in Latin lookup 1 per glyph data 0" g dx=0 dy=0 dh=-64 dv=0 dx=0 dy=0 dh=0 dv=0
PairPos2: "'kern' Horizontal Kerning in Latin lookup 1 per glyph data 0" g dx=0 dy=0 dh=-64 dv=0 dx=0 dy=0 dh=0 dv=0
EndChar

StartChar: F
Encoding: 70 70 41
Width: 821
Flags: HW
LayerCount: 2
Fore
SplineSet
832 1600 m 1,0,-1
 384 1600 l 1,1,-1
 384 1024 l 1,2,-1
 704 1024 l 1,3,-1
 704 832 l 1,4,-1
 384 832 l 1,5,-1
 384 0 l 1,6,-1
 128 0 l 1,7,-1
 128 1792 l 1,8,-1
 832 1792 l 1,9,-1
 832 1600 l 1,0,-1
EndSplineSet
PairPos2: "'kern' Horizontal Kerning in Latin lookup 1 per glyph data 0" uni020F dx=0 dy=0 dh=-121 dv=0 dx=0 dy=0 dh=0 dv=0
PairPos2: "'kern' Horizontal Kerning in Latin lookup 1 per glyph data 0" uni020F dx=0 dy=0 dh=-121 dv=0 dx=0 dy=0 dh=0 dv=0
PairPos2: "'kern' Horizontal Kerning in Latin lookup 1 per glyph data 0" scaron dx=0 dy=0 dh=-64 dv=0 dx=0 dy=0 dh=0 dv=0
PairPos2: "'kern' Horizontal Kerning in Latin lookup 1 per glyph data 0" scaron dx=0 dy=0 dh=-64 dv=0 dx=0 dy=0 dh=0 dv=0
PairPos2: "'kern' Horizontal Kerning in Latin lookup 1 per glyph data 0" scedilla dx=0 dy=0 dh=-64 dv=0 dx=0 dy=0 dh=0 dv=0
PairPos2: "'kern' Horizontal Kerning in Latin lookup 1 per glyph data 0" scedilla dx=0 dy=0 dh=-64 dv=0 dx=0 dy=0 dh=0 dv=0
PairPos2: "'kern' Horizontal Kerning in Latin lookup 1 per glyph data 0" scircumflex dx=0 dy=0 dh=-64 dv=0 dx=0 dy=0 dh=0 dv=0
PairPos2: "'kern' Horizontal Kerning in Latin lookup 1 per glyph data 0" scircumflex dx=0 dy=0 dh=-64 dv=0 dx=0 dy=0 dh=0 dv=0
PairPos2: "'kern' Horizontal Kerning in Latin lookup 1 per glyph data 0" sacute dx=0 dy=0 dh=-64 dv=0 dx=0 dy=0 dh=0 dv=0
PairPos2: "'kern' Horizontal Kerning in Latin lookup 1 per glyph data 0" sacute dx=0 dy=0 dh=-64 dv=0 dx=0 dy=0 dh=0 dv=0
PairPos2: "'kern' Horizontal Kerning in Latin lookup 1 per glyph data 0" rcaron dx=0 dy=0 dh=-40 dv=0 dx=0 dy=0 dh=0 dv=0
PairPos2: "'kern' Horizontal Kerning in Latin lookup 1 per glyph data 0" rcaron dx=0 dy=0 dh=-40 dv=0 dx=0 dy=0 dh=0 dv=0
PairPos2: "'kern' Horizontal Kerning in Latin lookup 1 per glyph data 0" racute dx=0 dy=0 dh=-40 dv=0 dx=0 dy=0 dh=0 dv=0
PairPos2: "'kern' Horizontal Kerning in Latin lookup 1 per glyph data 0" racute dx=0 dy=0 dh=-40 dv=0 dx=0 dy=0 dh=0 dv=0
PairPos2: "'kern' Horizontal Kerning in Latin lookup 1 per glyph data 0" ohungarumlaut dx=0 dy=0 dh=-121 dv=0 dx=0 dy=0 dh=0 dv=0
PairPos2: "'kern' Horizontal Kerning in Latin lookup 1 per glyph data 0" ohungarumlaut dx=0 dy=0 dh=-121 dv=0 dx=0 dy=0 dh=0 dv=0
PairPos2: "'kern' Horizontal Kerning in Latin lookup 1 per glyph data 0" gdotaccent dx=0 dy=0 dh=-64 dv=0 dx=0 dy=0 dh=0 dv=0
PairPos2: "'kern' Horizontal Kerning in Latin lookup 1 per glyph data 0" gdotaccent dx=0 dy=0 dh=-64 dv=0 dx=0 dy=0 dh=0 dv=0
PairPos2: "'kern' Horizontal Kerning in Latin lookup 1 per glyph data 0" gbreve dx=0 dy=0 dh=-64 dv=0 dx=0 dy=0 dh=0 dv=0
PairPos2: "'kern' Horizontal Kerning in Latin lookup 1 per glyph data 0" gbreve dx=0 dy=0 dh=-64 dv=0 dx=0 dy=0 dh=0 dv=0
PairPos2: "'kern' Horizontal Kerning in Latin lookup 1 per glyph data 0" gcircumflex dx=0 dy=0 dh=-64 dv=0 dx=0 dy=0 dh=0 dv=0
PairPos2: "'kern' Horizontal Kerning in Latin lookup 1 per glyph data 0" gcircumflex dx=0 dy=0 dh=-64 dv=0 dx=0 dy=0 dh=0 dv=0
PairPos2: "'kern' Horizontal Kerning in Latin lookup 1 per glyph data 0" ecaron dx=0 dy=0 dh=-83 dv=0 dx=0 dy=0 dh=0 dv=0
PairPos2: "'kern' Horizontal Kerning in Latin lookup 1 per glyph data 0" ecaron dx=0 dy=0 dh=-83 dv=0 dx=0 dy=0 dh=0 dv=0
PairPos2: "'kern' Horizontal Kerning in Latin lookup 1 per glyph data 0" ccaron dx=0 dy=0 dh=-64 dv=0 dx=0 dy=0 dh=0 dv=0
PairPos2: "'kern' Horizontal Kerning in Latin lookup 1 per glyph data 0" ccaron dx=0 dy=0 dh=-64 dv=0 dx=0 dy=0 dh=0 dv=0
PairPos2: "'kern' Horizontal Kerning in Latin lookup 1 per glyph data 0" cdotaccent dx=0 dy=0 dh=-64 dv=0 dx=0 dy=0 dh=0 dv=0
PairPos2: "'kern' Horizontal Kerning in Latin lookup 1 per glyph data 0" cdotaccent dx=0 dy=0 dh=-64 dv=0 dx=0 dy=0 dh=0 dv=0
PairPos2: "'kern' Horizontal Kerning in Latin lookup 1 per glyph data 0" ccircumflex dx=0 dy=0 dh=-64 dv=0 dx=0 dy=0 dh=0 dv=0
PairPos2: "'kern' Horizontal Kerning in Latin lookup 1 per glyph data 0" ccircumflex dx=0 dy=0 dh=-64 dv=0 dx=0 dy=0 dh=0 dv=0
PairPos2: "'kern' Horizontal Kerning in Latin lookup 1 per glyph data 0" cacute dx=0 dy=0 dh=-64 dv=0 dx=0 dy=0 dh=0 dv=0
PairPos2: "'kern' Horizontal Kerning in Latin lookup 1 per glyph data 0" cacute dx=0 dy=0 dh=-64 dv=0 dx=0 dy=0 dh=0 dv=0
PairPos2: "'kern' Horizontal Kerning in Latin lookup 1 per glyph data 0" odieresis dx=0 dy=0 dh=-121 dv=0 dx=0 dy=0 dh=0 dv=0
PairPos2: "'kern' Horizontal Kerning in Latin lookup 1 per glyph data 0" odieresis dx=0 dy=0 dh=-121 dv=0 dx=0 dy=0 dh=0 dv=0
PairPos2: "'kern' Horizontal Kerning in Latin lookup 1 per glyph data 0" otilde dx=0 dy=0 dh=-121 dv=0 dx=0 dy=0 dh=0 dv=0
PairPos2: "'kern' Horizontal Kerning in Latin lookup 1 per glyph data 0" otilde dx=0 dy=0 dh=-121 dv=0 dx=0 dy=0 dh=0 dv=0
PairPos2: "'kern' Horizontal Kerning in Latin lookup 1 per glyph data 0" ocircumflex dx=0 dy=0 dh=-121 dv=0 dx=0 dy=0 dh=0 dv=0
PairPos2: "'kern' Horizontal Kerning in Latin lookup 1 per glyph data 0" ocircumflex dx=0 dy=0 dh=-121 dv=0 dx=0 dy=0 dh=0 dv=0
PairPos2: "'kern' Horizontal Kerning in Latin lookup 1 per glyph data 0" oacute dx=0 dy=0 dh=-121 dv=0 dx=0 dy=0 dh=0 dv=0
PairPos2: "'kern' Horizontal Kerning in Latin lookup 1 per glyph data 0" oacute dx=0 dy=0 dh=-121 dv=0 dx=0 dy=0 dh=0 dv=0
PairPos2: "'kern' Horizontal Kerning in Latin lookup 1 per glyph data 0" ograve dx=0 dy=0 dh=-121 dv=0 dx=0 dy=0 dh=0 dv=0
PairPos2: "'kern' Horizontal Kerning in Latin lookup 1 per glyph data 0" ograve dx=0 dy=0 dh=-121 dv=0 dx=0 dy=0 dh=0 dv=0
PairPos2: "'kern' Horizontal Kerning in Latin lookup 1 per glyph data 0" ccedilla dx=0 dy=0 dh=-64 dv=0 dx=0 dy=0 dh=0 dv=0
PairPos2: "'kern' Horizontal Kerning in Latin lookup 1 per glyph data 0" ccedilla dx=0 dy=0 dh=-64 dv=0 dx=0 dy=0 dh=0 dv=0
PairPos2: "'kern' Horizontal Kerning in Latin lookup 1 per glyph data 0" s dx=0 dy=0 dh=-64 dv=0 dx=0 dy=0 dh=0 dv=0
PairPos2: "'kern' Horizontal Kerning in Latin lookup 1 per glyph data 0" s dx=0 dy=0 dh=-43 dv=0 dx=0 dy=0 dh=0 dv=0
PairPos2: "'kern' Horizontal Kerning in Latin lookup 1 per glyph data 0" r dx=0 dy=0 dh=-40 dv=0 dx=0 dy=0 dh=0 dv=0
PairPos2: "'kern' Horizontal Kerning in Latin lookup 1 per glyph data 0" r dx=0 dy=0 dh=-40 dv=0 dx=0 dy=0 dh=0 dv=0
PairPos2: "'kern' Horizontal Kerning in Latin lookup 1 per glyph data 0" g dx=0 dy=0 dh=-64 dv=0 dx=0 dy=0 dh=0 dv=0
PairPos2: "'kern' Horizontal Kerning in Latin lookup 1 per glyph data 0" g dx=0 dy=0 dh=-64 dv=0 dx=0 dy=0 dh=0 dv=0
PairPos2: "'kern' Horizontal Kerning in Latin lookup 1 per glyph data 0" period dx=0 dy=0 dh=-120 dv=0 dx=0 dy=0 dh=0 dv=0
PairPos2: "'kern' Horizontal Kerning in Latin lookup 1 per glyph data 0" period dx=0 dy=0 dh=-200 dv=0 dx=0 dy=0 dh=0 dv=0
PairPos2: "'kern' Horizontal Kerning in Latin lookup 1 per glyph data 0" comma dx=0 dy=0 dh=-120 dv=0 dx=0 dy=0 dh=0 dv=0
PairPos2: "'kern' Horizontal Kerning in Latin lookup 1 per glyph data 0" comma dx=0 dy=0 dh=-200 dv=0 dx=0 dy=0 dh=0 dv=0
EndChar

StartChar: G
Encoding: 71 71 42
Width: 1199
Flags: HW
LayerCount: 2
Fore
SplineSet
512 208 m 0,0,1
 554 192 554 192 613 192 c 128,-1,2
 672 192 672 192 719 217 c 128,-1,3
 766 242 766 242 793.5 281.5 c 128,-1,4
 821 321 821 321 837 382 c 0,5,6
 864 485 864 485 864 640 c 2,7,-1
 864 704 l 1,8,-1
 608 704 l 1,9,-1
 608 894 l 1,10,-1
 1120 894 l 1,11,-1
 1120 0 l 1,12,-1
 928 0 l 1,13,-1
 864 192 l 1,14,15
 789 -18 789 -18 608 -18 c 0,16,17
 259 -18 259 -18 156 265 c 0,18,19
 96 429 96 429 96 698 c 2,20,-1
 96 1152 l 2,21,22
 96 1810 96 1810 618 1810 c 0,23,24
 880 1810 880 1810 996 1648 c 0,25,26
 1104 1495 1104 1495 1105 1216 c 1,27,-1
 849 1216 l 1,28,29
 849 1387 849 1387 832.5 1437.5 c 128,-1,30
 816 1488 816 1488 799 1517 c 128,-1,31
 782 1546 782 1546 758 1562 c 0,32,33
 702 1600 702 1600 621 1600 c 128,-1,34
 540 1600 540 1600 486.5 1571.5 c 0,35,36
 432 1542 432 1542 404 1488 c 0,37,38
 352 1388 352 1388 352 1216 c 2,39,-1
 352 640 l 2,40,41
 352 423 352 423 398 327 c 0,42,43
 440 237 440 237 512 208 c 0,0,1
EndSplineSet
EndChar

StartChar: H
Encoding: 72 72 43
Width: 1216
Flags: HW
LayerCount: 2
Fore
SplineSet
832 832 m 1,0,-1
 384 832 l 1,1,-1
 384 0 l 1,2,-1
 128 0 l 1,3,-1
 128 1792 l 1,4,-1
 384 1792 l 1,5,-1
 384 1024 l 1,6,-1
 832 1024 l 1,7,-1
 832 1792 l 1,8,-1
 1088 1792 l 1,9,-1
 1088 0 l 1,10,-1
 832 0 l 1,11,-1
 832 832 l 1,0,-1
EndSplineSet
EndChar

StartChar: I
Encoding: 73 73 44
Width: 542
Flags: HW
LayerCount: 2
Fore
SplineSet
140 1792 m 1,0,-1
 396 1792 l 1,1,-1
 396 0 l 1,2,-1
 140 0 l 1,3,-1
 140 1792 l 1,0,-1
EndSplineSet
EndChar

StartChar: J
Encoding: 74 74 45
Width: 640
Flags: HW
LayerCount: 2
Fore
SplineSet
0 192 m 1,0,1
 83 192 83 192 129.5 201 c 128,-1,2
 176 210 176 210 206 239.5 c 128,-1,3
 236 269 236 269 246 316.5 c 128,-1,4
 256 364 256 364 256 448 c 2,5,-1
 256 1792 l 1,6,-1
 512 1792 l 1,7,-1
 512 448 l 2,8,9
 512 326 512 326 496 246.5 c 128,-1,10
 480 167 480 167 438 109 c 0,11,12
 358 0 358 0 128 0 c 2,13,-1
 0 0 l 1,14,-1
 0 192 l 1,0,1
EndSplineSet
PairPos2: "'kern' Horizontal Kerning in Latin lookup 1 per glyph data 0" uni020F dx=0 dy=0 dh=-10 dv=0 dx=0 dy=0 dh=0 dv=0
PairPos2: "'kern' Horizontal Kerning in Latin lookup 1 per glyph data 0" uni020F dx=0 dy=0 dh=-10 dv=0 dx=0 dy=0 dh=0 dv=0
PairPos2: "'kern' Horizontal Kerning in Latin lookup 1 per glyph data 0" uhungarumlaut dx=0 dy=0 dh=7 dv=0 dx=0 dy=0 dh=0 dv=0
PairPos2: "'kern' Horizontal Kerning in Latin lookup 1 per glyph data 0" uhungarumlaut dx=0 dy=0 dh=7 dv=0 dx=0 dy=0 dh=0 dv=0
PairPos2: "'kern' Horizontal Kerning in Latin lookup 1 per glyph data 0" uring dx=0 dy=0 dh=7 dv=0 dx=0 dy=0 dh=0 dv=0
PairPos2: "'kern' Horizontal Kerning in Latin lookup 1 per glyph data 0" uring dx=0 dy=0 dh=7 dv=0 dx=0 dy=0 dh=0 dv=0
PairPos2: "'kern' Horizontal Kerning in Latin lookup 1 per glyph data 0" ubreve dx=0 dy=0 dh=7 dv=0 dx=0 dy=0 dh=0 dv=0
PairPos2: "'kern' Horizontal Kerning in Latin lookup 1 per glyph data 0" ubreve dx=0 dy=0 dh=7 dv=0 dx=0 dy=0 dh=0 dv=0
PairPos2: "'kern' Horizontal Kerning in Latin lookup 1 per glyph data 0" ohungarumlaut dx=0 dy=0 dh=-10 dv=0 dx=0 dy=0 dh=0 dv=0
PairPos2: "'kern' Horizontal Kerning in Latin lookup 1 per glyph data 0" ohungarumlaut dx=0 dy=0 dh=-10 dv=0 dx=0 dy=0 dh=0 dv=0
PairPos2: "'kern' Horizontal Kerning in Latin lookup 1 per glyph data 0" ecaron dx=0 dy=0 dh=-5 dv=0 dx=0 dy=0 dh=0 dv=0
PairPos2: "'kern' Horizontal Kerning in Latin lookup 1 per glyph data 0" ecaron dx=0 dy=0 dh=-5 dv=0 dx=0 dy=0 dh=0 dv=0
PairPos2: "'kern' Horizontal Kerning in Latin lookup 1 per glyph data 0" odieresis dx=0 dy=0 dh=-10 dv=0 dx=0 dy=0 dh=0 dv=0
PairPos2: "'kern' Horizontal Kerning in Latin lookup 1 per glyph data 0" odieresis dx=0 dy=0 dh=-10 dv=0 dx=0 dy=0 dh=0 dv=0
PairPos2: "'kern' Horizontal Kerning in Latin lookup 1 per glyph data 0" otilde dx=0 dy=0 dh=-10 dv=0 dx=0 dy=0 dh=0 dv=0
PairPos2: "'kern' Horizontal Kerning in Latin lookup 1 per glyph data 0" otilde dx=0 dy=0 dh=-10 dv=0 dx=0 dy=0 dh=0 dv=0
PairPos2: "'kern' Horizontal Kerning in Latin lookup 1 per glyph data 0" ocircumflex dx=0 dy=0 dh=-10 dv=0 dx=0 dy=0 dh=0 dv=0
PairPos2: "'kern' Horizontal Kerning in Latin lookup 1 per glyph data 0" ocircumflex dx=0 dy=0 dh=-10 dv=0 dx=0 dy=0 dh=0 dv=0
PairPos2: "'kern' Horizontal Kerning in Latin lookup 1 per glyph data 0" oacute dx=0 dy=0 dh=-10 dv=0 dx=0 dy=0 dh=0 dv=0
PairPos2: "'kern' Horizontal Kerning in Latin lookup 1 per glyph data 0" oacute dx=0 dy=0 dh=-10 dv=0 dx=0 dy=0 dh=0 dv=0
PairPos2: "'kern' Horizontal Kerning in Latin lookup 1 per glyph data 0" ograve dx=0 dy=0 dh=-10 dv=0 dx=0 dy=0 dh=0 dv=0
PairPos2: "'kern' Horizontal Kerning in Latin lookup 1 per glyph data 0" ograve dx=0 dy=0 dh=-10 dv=0 dx=0 dy=0 dh=0 dv=0
PairPos2: "'kern' Horizontal Kerning in Latin lookup 1 per glyph data 0" o dx=0 dy=0 dh=0 dv=0 dx=0 dy=0 dh=0 dv=0
EndChar

StartChar: K
Encoding: 75 75 46
Width: 1118
Flags: HW
LayerCount: 2
Fore
SplineSet
1152 0 m 1,0,-1
 832 0 l 1,1,-1
 512 832 l 1,2,-1
 384 576 l 1,3,-1
 384 0 l 1,4,-1
 128 0 l 1,5,-1
 128 1792 l 1,6,-1
 384 1792 l 1,7,-1
 384 1024 l 1,8,-1
 768 1792 l 1,9,-1
 1088 1792 l 1,10,-1
 703 1088 l 1,11,-1
 1152 0 l 1,0,-1
EndSplineSet
PairPos2: "'kern' Horizontal Kerning in Latin lookup 1 per glyph data 0" uhungarumlaut dx=0 dy=0 dh=-52 dv=0 dx=0 dy=0 dh=0 dv=0
PairPos2: "'kern' Horizontal Kerning in Latin lookup 1 per glyph data 0" uhungarumlaut dx=0 dy=0 dh=-52 dv=0 dx=0 dy=0 dh=0 dv=0
PairPos2: "'kern' Horizontal Kerning in Latin lookup 1 per glyph data 0" uring dx=0 dy=0 dh=-52 dv=0 dx=0 dy=0 dh=0 dv=0
PairPos2: "'kern' Horizontal Kerning in Latin lookup 1 per glyph data 0" uring dx=0 dy=0 dh=-52 dv=0 dx=0 dy=0 dh=0 dv=0
PairPos2: "'kern' Horizontal Kerning in Latin lookup 1 per glyph data 0" ubreve dx=0 dy=0 dh=-52 dv=0 dx=0 dy=0 dh=0 dv=0
PairPos2: "'kern' Horizontal Kerning in Latin lookup 1 per glyph data 0" ubreve dx=0 dy=0 dh=-52 dv=0 dx=0 dy=0 dh=0 dv=0
PairPos2: "'kern' Horizontal Kerning in Latin lookup 1 per glyph data 0" scaron dx=0 dy=0 dh=-64 dv=0 dx=0 dy=0 dh=0 dv=0
PairPos2: "'kern' Horizontal Kerning in Latin lookup 1 per glyph data 0" scaron dx=0 dy=0 dh=-64 dv=0 dx=0 dy=0 dh=0 dv=0
PairPos2: "'kern' Horizontal Kerning in Latin lookup 1 per glyph data 0" scedilla dx=0 dy=0 dh=-64 dv=0 dx=0 dy=0 dh=0 dv=0
PairPos2: "'kern' Horizontal Kerning in Latin lookup 1 per glyph data 0" scedilla dx=0 dy=0 dh=-64 dv=0 dx=0 dy=0 dh=0 dv=0
PairPos2: "'kern' Horizontal Kerning in Latin lookup 1 per glyph data 0" scircumflex dx=0 dy=0 dh=-64 dv=0 dx=0 dy=0 dh=0 dv=0
PairPos2: "'kern' Horizontal Kerning in Latin lookup 1 per glyph data 0" scircumflex dx=0 dy=0 dh=-64 dv=0 dx=0 dy=0 dh=0 dv=0
PairPos2: "'kern' Horizontal Kerning in Latin lookup 1 per glyph data 0" sacute dx=0 dy=0 dh=-64 dv=0 dx=0 dy=0 dh=0 dv=0
PairPos2: "'kern' Horizontal Kerning in Latin lookup 1 per glyph data 0" sacute dx=0 dy=0 dh=-64 dv=0 dx=0 dy=0 dh=0 dv=0
PairPos2: "'kern' Horizontal Kerning in Latin lookup 1 per glyph data 0" ohungarumlaut dx=0 dy=0 dh=-74 dv=0 dx=0 dy=0 dh=0 dv=0
PairPos2: "'kern' Horizontal Kerning in Latin lookup 1 per glyph data 0" ohungarumlaut dx=0 dy=0 dh=-74 dv=0 dx=0 dy=0 dh=0 dv=0
PairPos2: "'kern' Horizontal Kerning in Latin lookup 1 per glyph data 0" Ohungarumlaut dx=0 dy=0 dh=-104 dv=0 dx=0 dy=0 dh=0 dv=0
PairPos2: "'kern' Horizontal Kerning in Latin lookup 1 per glyph data 0" Ohungarumlaut dx=0 dy=0 dh=-104 dv=0 dx=0 dy=0 dh=0 dv=0
PairPos2: "'kern' Horizontal Kerning in Latin lookup 1 per glyph data 0" gdotaccent dx=0 dy=0 dh=-64 dv=0 dx=0 dy=0 dh=0 dv=0
PairPos2: "'kern' Horizontal Kerning in Latin lookup 1 per glyph data 0" gdotaccent dx=0 dy=0 dh=-64 dv=0 dx=0 dy=0 dh=0 dv=0
PairPos2: "'kern' Horizontal Kerning in Latin lookup 1 per glyph data 0" gbreve dx=0 dy=0 dh=-64 dv=0 dx=0 dy=0 dh=0 dv=0
PairPos2: "'kern' Horizontal Kerning in Latin lookup 1 per glyph data 0" gbreve dx=0 dy=0 dh=-64 dv=0 dx=0 dy=0 dh=0 dv=0
PairPos2: "'kern' Horizontal Kerning in Latin lookup 1 per glyph data 0" gcircumflex dx=0 dy=0 dh=-64 dv=0 dx=0 dy=0 dh=0 dv=0
PairPos2: "'kern' Horizontal Kerning in Latin lookup 1 per glyph data 0" gcircumflex dx=0 dy=0 dh=-64 dv=0 dx=0 dy=0 dh=0 dv=0
PairPos2: "'kern' Horizontal Kerning in Latin lookup 1 per glyph data 0" ecaron dx=0 dy=0 dh=-74 dv=0 dx=0 dy=0 dh=0 dv=0
PairPos2: "'kern' Horizontal Kerning in Latin lookup 1 per glyph data 0" ecaron dx=0 dy=0 dh=-74 dv=0 dx=0 dy=0 dh=0 dv=0
PairPos2: "'kern' Horizontal Kerning in Latin lookup 1 per glyph data 0" ccaron dx=0 dy=0 dh=-64 dv=0 dx=0 dy=0 dh=0 dv=0
PairPos2: "'kern' Horizontal Kerning in Latin lookup 1 per glyph data 0" ccaron dx=0 dy=0 dh=-64 dv=0 dx=0 dy=0 dh=0 dv=0
PairPos2: "'kern' Horizontal Kerning in Latin lookup 1 per glyph data 0" cdotaccent dx=0 dy=0 dh=-64 dv=0 dx=0 dy=0 dh=0 dv=0
PairPos2: "'kern' Horizontal Kerning in Latin lookup 1 per glyph data 0" cdotaccent dx=0 dy=0 dh=-64 dv=0 dx=0 dy=0 dh=0 dv=0
PairPos2: "'kern' Horizontal Kerning in Latin lookup 1 per glyph data 0" ccircumflex dx=0 dy=0 dh=-64 dv=0 dx=0 dy=0 dh=0 dv=0
PairPos2: "'kern' Horizontal Kerning in Latin lookup 1 per glyph data 0" ccircumflex dx=0 dy=0 dh=-64 dv=0 dx=0 dy=0 dh=0 dv=0
PairPos2: "'kern' Horizontal Kerning in Latin lookup 1 per glyph data 0" cacute dx=0 dy=0 dh=-64 dv=0 dx=0 dy=0 dh=0 dv=0
PairPos2: "'kern' Horizontal Kerning in Latin lookup 1 per glyph data 0" cacute dx=0 dy=0 dh=-64 dv=0 dx=0 dy=0 dh=0 dv=0
PairPos2: "'kern' Horizontal Kerning in Latin lookup 1 per glyph data 0" ccedilla dx=0 dy=0 dh=-64 dv=0 dx=0 dy=0 dh=0 dv=0
PairPos2: "'kern' Horizontal Kerning in Latin lookup 1 per glyph data 0" ccedilla dx=0 dy=0 dh=-64 dv=0 dx=0 dy=0 dh=0 dv=0
PairPos2: "'kern' Horizontal Kerning in Latin lookup 1 per glyph data 0" s dx=0 dy=0 dh=-64 dv=0 dx=0 dy=0 dh=0 dv=0
PairPos2: "'kern' Horizontal Kerning in Latin lookup 1 per glyph data 0" s dx=0 dy=0 dh=-64 dv=0 dx=0 dy=0 dh=0 dv=0
PairPos2: "'kern' Horizontal Kerning in Latin lookup 1 per glyph data 0" g dx=0 dy=0 dh=-64 dv=0 dx=0 dy=0 dh=0 dv=0
PairPos2: "'kern' Horizontal Kerning in Latin lookup 1 per glyph data 0" g dx=0 dy=0 dh=-64 dv=0 dx=0 dy=0 dh=0 dv=0
PairPos2: "'kern' Horizontal Kerning in Latin lookup 1 per glyph data 0" c dx=0 dy=0 dh=-64 dv=0 dx=0 dy=0 dh=0 dv=0
PairPos2: "'kern' Horizontal Kerning in Latin lookup 1 per glyph data 0" c dx=0 dy=0 dh=-64 dv=0 dx=0 dy=0 dh=0 dv=0
EndChar

StartChar: L
Encoding: 76 76 47
Width: 823
Flags: HW
LayerCount: 2
Fore
SplineSet
128 0 m 1,0,-1
 128 1792 l 1,1,-1
 384 1792 l 1,2,-1
 384 192 l 1,3,-1
 832 192 l 1,4,-1
 832 0 l 1,5,-1
 128 0 l 1,0,-1
EndSplineSet
PairPos2: "'kern' Horizontal Kerning in Latin lookup 1 per glyph data 0" quotedblright dx=0 dy=0 dh=-140 dv=0 dx=0 dy=0 dh=0 dv=0
PairPos2: "'kern' Horizontal Kerning in Latin lookup 1 per glyph data 0" quotedblright dx=0 dy=0 dh=-140 dv=0 dx=0 dy=0 dh=0 dv=0
PairPos2: "'kern' Horizontal Kerning in Latin lookup 1 per glyph data 0" quoteright dx=0 dy=0 dh=-160 dv=0 dx=0 dy=0 dh=0 dv=0
PairPos2: "'kern' Horizontal Kerning in Latin lookup 1 per glyph data 0" quoteright dx=0 dy=0 dh=-160 dv=0 dx=0 dy=0 dh=0 dv=0
PairPos2: "'kern' Horizontal Kerning in Latin lookup 1 per glyph data 0" Uhungarumlaut dx=0 dy=0 dh=-48 dv=0 dx=0 dy=0 dh=0 dv=0
PairPos2: "'kern' Horizontal Kerning in Latin lookup 1 per glyph data 0" Uhungarumlaut dx=0 dy=0 dh=-48 dv=0 dx=0 dy=0 dh=0 dv=0
PairPos2: "'kern' Horizontal Kerning in Latin lookup 1 per glyph data 0" Uring dx=0 dy=0 dh=-48 dv=0 dx=0 dy=0 dh=0 dv=0
PairPos2: "'kern' Horizontal Kerning in Latin lookup 1 per glyph data 0" Uring dx=0 dy=0 dh=-48 dv=0 dx=0 dy=0 dh=0 dv=0
PairPos2: "'kern' Horizontal Kerning in Latin lookup 1 per glyph data 0" Ubreve dx=0 dy=0 dh=-48 dv=0 dx=0 dy=0 dh=0 dv=0
PairPos2: "'kern' Horizontal Kerning in Latin lookup 1 per glyph data 0" Ubreve dx=0 dy=0 dh=-48 dv=0 dx=0 dy=0 dh=0 dv=0
PairPos2: "'kern' Horizontal Kerning in Latin lookup 1 per glyph data 0" Tcaron dx=0 dy=0 dh=-129 dv=0 dx=0 dy=0 dh=0 dv=0
PairPos2: "'kern' Horizontal Kerning in Latin lookup 1 per glyph data 0" Tcaron dx=0 dy=0 dh=-129 dv=0 dx=0 dy=0 dh=0 dv=0
PairPos2: "'kern' Horizontal Kerning in Latin lookup 1 per glyph data 0" scaron dx=0 dy=0 dh=-32 dv=0 dx=0 dy=0 dh=0 dv=0
PairPos2: "'kern' Horizontal Kerning in Latin lookup 1 per glyph data 0" scaron dx=0 dy=0 dh=-32 dv=0 dx=0 dy=0 dh=0 dv=0
PairPos2: "'kern' Horizontal Kerning in Latin lookup 1 per glyph data 0" scedilla dx=0 dy=0 dh=-32 dv=0 dx=0 dy=0 dh=0 dv=0
PairPos2: "'kern' Horizontal Kerning in Latin lookup 1 per glyph data 0" scedilla dx=0 dy=0 dh=-32 dv=0 dx=0 dy=0 dh=0 dv=0
PairPos2: "'kern' Horizontal Kerning in Latin lookup 1 per glyph data 0" scircumflex dx=0 dy=0 dh=-32 dv=0 dx=0 dy=0 dh=0 dv=0
PairPos2: "'kern' Horizontal Kerning in Latin lookup 1 per glyph data 0" scircumflex dx=0 dy=0 dh=-32 dv=0 dx=0 dy=0 dh=0 dv=0
PairPos2: "'kern' Horizontal Kerning in Latin lookup 1 per glyph data 0" sacute dx=0 dy=0 dh=-32 dv=0 dx=0 dy=0 dh=0 dv=0
PairPos2: "'kern' Horizontal Kerning in Latin lookup 1 per glyph data 0" sacute dx=0 dy=0 dh=-32 dv=0 dx=0 dy=0 dh=0 dv=0
PairPos2: "'kern' Horizontal Kerning in Latin lookup 1 per glyph data 0" ohungarumlaut dx=0 dy=0 dh=-32 dv=0 dx=0 dy=0 dh=0 dv=0
PairPos2: "'kern' Horizontal Kerning in Latin lookup 1 per glyph data 0" ohungarumlaut dx=0 dy=0 dh=-32 dv=0 dx=0 dy=0 dh=0 dv=0
PairPos2: "'kern' Horizontal Kerning in Latin lookup 1 per glyph data 0" gdotaccent dx=0 dy=0 dh=-32 dv=0 dx=0 dy=0 dh=0 dv=0
PairPos2: "'kern' Horizontal Kerning in Latin lookup 1 per glyph data 0" gdotaccent dx=0 dy=0 dh=-32 dv=0 dx=0 dy=0 dh=0 dv=0
PairPos2: "'kern' Horizontal Kerning in Latin lookup 1 per glyph data 0" gbreve dx=0 dy=0 dh=-32 dv=0 dx=0 dy=0 dh=0 dv=0
PairPos2: "'kern' Horizontal Kerning in Latin lookup 1 per glyph data 0" gbreve dx=0 dy=0 dh=-32 dv=0 dx=0 dy=0 dh=0 dv=0
PairPos2: "'kern' Horizontal Kerning in Latin lookup 1 per glyph data 0" gcircumflex dx=0 dy=0 dh=-32 dv=0 dx=0 dy=0 dh=0 dv=0
PairPos2: "'kern' Horizontal Kerning in Latin lookup 1 per glyph data 0" gcircumflex dx=0 dy=0 dh=-32 dv=0 dx=0 dy=0 dh=0 dv=0
PairPos2: "'kern' Horizontal Kerning in Latin lookup 1 per glyph data 0" ecaron dx=0 dy=0 dh=-32 dv=0 dx=0 dy=0 dh=0 dv=0
PairPos2: "'kern' Horizontal Kerning in Latin lookup 1 per glyph data 0" ecaron dx=0 dy=0 dh=-32 dv=0 dx=0 dy=0 dh=0 dv=0
PairPos2: "'kern' Horizontal Kerning in Latin lookup 1 per glyph data 0" cdotaccent dx=0 dy=0 dh=-32 dv=0 dx=0 dy=0 dh=0 dv=0
PairPos2: "'kern' Horizontal Kerning in Latin lookup 1 per glyph data 0" cdotaccent dx=0 dy=0 dh=-32 dv=0 dx=0 dy=0 dh=0 dv=0
PairPos2: "'kern' Horizontal Kerning in Latin lookup 1 per glyph data 0" ccircumflex dx=0 dy=0 dh=-32 dv=0 dx=0 dy=0 dh=0 dv=0
PairPos2: "'kern' Horizontal Kerning in Latin lookup 1 per glyph data 0" ccircumflex dx=0 dy=0 dh=-32 dv=0 dx=0 dy=0 dh=0 dv=0
PairPos2: "'kern' Horizontal Kerning in Latin lookup 1 per glyph data 0" s dx=0 dy=0 dh=-32 dv=0 dx=0 dy=0 dh=0 dv=0
PairPos2: "'kern' Horizontal Kerning in Latin lookup 1 per glyph data 0" s dx=0 dy=0 dh=-32 dv=0 dx=0 dy=0 dh=0 dv=0
PairPos2: "'kern' Horizontal Kerning in Latin lookup 1 per glyph data 0" g dx=0 dy=0 dh=-32 dv=0 dx=0 dy=0 dh=0 dv=0
PairPos2: "'kern' Horizontal Kerning in Latin lookup 1 per glyph data 0" g dx=0 dy=0 dh=-32 dv=0 dx=0 dy=0 dh=0 dv=0
EndChar

StartChar: M
Encoding: 77 77 48
Width: 1472
Flags: HW
LayerCount: 2
Fore
SplineSet
640 0 m 1,0,-1
 384 1414 l 1,1,-1
 384 0 l 1,2,-1
 128 0 l 1,3,-1
 128 1792 l 1,4,-1
 482 1792 l 1,5,-1
 736 420 l 1,6,-1
 990 1792 l 1,7,-1
 1344 1792 l 1,8,-1
 1344 0 l 1,9,-1
 1088 0 l 1,10,-1
 1088 1414 l 1,11,-1
 832 0 l 1,12,-1
 640 0 l 1,0,-1
EndSplineSet
EndChar

StartChar: N
Encoding: 78 78 49
Width: 1152
Flags: HW
LayerCount: 2
Fore
SplineSet
842 0 m 1,0,-1
 384 1192 l 1,1,-1
 384 0 l 1,2,-1
 128 0 l 1,3,-1
 128 1792 l 1,4,-1
 320 1792 l 1,5,-1
 768 684 l 1,6,-1
 768 1792 l 1,7,-1
 1024 1792 l 1,8,-1
 1024 0 l 1,9,-1
 842 0 l 1,0,-1
EndSplineSet
EndChar

StartChar: O
Encoding: 79 79 50
Width: 1180
Flags: HW
LayerCount: 2
Fore
SplineSet
590 1600 m 128,-1,1
 454 1600 454 1600 403 1523 c 128,-1,2
 352 1446 352 1446 352 1290 c 2,3,-1
 352 512 l 2,4,5
 352 354 352 354 403.5 273 c 128,-1,6
 455 192 455 192 590 192 c 128,-1,7
 725 192 725 192 776.5 273 c 128,-1,8
 828 354 828 354 828 512 c 2,9,-1
 828 1290 l 2,10,11
 828 1446 828 1446 777 1523 c 128,-1,0
 726 1600 726 1600 590 1600 c 128,-1,1
590 1810 m 0,12,13
 852 1810 852 1810 968 1660 c 128,-1,14
 1084 1510 1084 1510 1084 1226 c 2,15,-1
 1084 576 l 2,16,17
 1084 138 1084 138 820 24 c 0,18,19
 724 -18 724 -18 589.5 -18 c 128,-1,20
 455 -18 455 -18 358.5 23 c 128,-1,21
 262 64 262 64 205 143 c 0,22,23
 96 294 96 294 96 576 c 2,24,-1
 96 1226 l 2,25,26
 96 1665 96 1665 358 1771 c 0,27,28
 454 1810 454 1810 590 1810 c 0,12,13
EndSplineSet
EndChar

StartChar: P
Encoding: 80 80 51
Width: 1041
Flags: HW
LayerCount: 2
Fore
SplineSet
768 1288 m 0,0,1
 768 1376 768 1376 754 1435.5 c 128,-1,2
 740 1495 740 1495 702.5 1533 c 128,-1,3
 665 1571 665 1571 605.5 1585.5 c 128,-1,4
 546 1600 546 1600 448 1600 c 2,5,-1
 384 1600 l 1,6,-1
 384 1024 l 1,7,-1
 448 1024 l 2,8,9
 614 1024 614 1024 688 1072 c 0,10,11
 768 1122 768 1122 768 1288 c 0,0,1
1024 1280 m 0,12,13
 1024 1061 1024 1061 908.5 946.5 c 128,-1,14
 793 832 793 832 576 832 c 2,15,-1
 384 832 l 1,16,-1
 384 0 l 1,17,-1
 128 0 l 1,18,-1
 128 1792 l 1,19,-1
 576 1792 l 2,20,21
 1024 1792 1024 1792 1024 1280 c 0,12,13
EndSplineSet
EndChar

StartChar: Q
Encoding: 81 81 52
Width: 1180
Flags: HW
LayerCount: 2
Fore
SplineSet
828 1290 m 2,0,1
 828 1446 828 1446 777 1523 c 128,-1,2
 726 1600 726 1600 590 1600 c 128,-1,3
 454 1600 454 1600 403 1523 c 128,-1,4
 352 1446 352 1446 352 1290 c 2,5,-1
 352 512 l 2,6,7
 352 354 352 354 403.5 273 c 128,-1,8
 455 192 455 192 590 192 c 128,-1,9
 725 192 725 192 776.5 273 c 128,-1,10
 828 354 828 354 828 512 c 2,11,-1
 828 1290 l 2,0,1
1063 -256 m 1,12,13
 954 -256 954 -256 846.5 -180 c 128,-1,14
 739 -104 739 -104 690 -11 c 1,15,16
 647 -18 647 -18 590 -18 c 0,17,18
 321 -18 321 -18 205 143 c 0,19,20
 96 294 96 294 96 576 c 2,21,-1
 96 1226 l 2,22,23
 96 1665 96 1665 358 1771 c 0,24,25
 454 1810 454 1810 590 1810 c 0,26,27
 852 1810 852 1810 968 1660 c 128,-1,28
 1084 1510 1084 1510 1084 1226 c 2,29,-1
 1084 576 l 2,30,31
 1084 180 1084 180 869 49 c 1,32,33
 898 7 898 7 956.5 -19.5 c 128,-1,34
 1015 -46 1015 -46 1063 -46 c 1,35,-1
 1063 -256 l 1,12,13
EndSplineSet
EndChar

StartChar: R
Encoding: 82 82 53
Width: 1108
Flags: HW
LayerCount: 2
Fore
SplineSet
768 1312 m 128,-1,1
 768 1465 768 1465 688 1532.5 c 128,-1,2
 608 1600 608 1600 448 1600 c 2,3,-1
 384 1600 l 1,4,-1
 384 1024 l 1,5,-1
 448 1024 l 2,6,7
 608 1024 608 1024 688 1091.5 c 128,-1,0
 768 1159 768 1159 768 1312 c 128,-1,1
1024 1312 m 0,8,9
 1024 1152 1024 1152 967 1044 c 128,-1,10
 910 936 910 936 800 896 c 1,11,-1
 1088 0 l 1,12,-1
 834 0 l 1,13,-1
 576 832 l 1,14,-1
 384 832 l 1,15,-1
 384 0 l 1,16,-1
 128 0 l 1,17,-1
 128 1792 l 1,18,-1
 448 1792 l 2,19,20
 734 1792 734 1792 879 1681 c 128,-1,21
 1024 1570 1024 1570 1024 1312 c 0,8,9
EndSplineSet
EndChar

StartChar: S
Encoding: 83 83 54
Width: 1102
Flags: HW
LayerCount: 2
Fore
SplineSet
787 1280 m 1,0,1
 779 1414 779 1414 723 1503 c 0,2,3
 662 1600 662 1600 531 1600 c 0,4,5
 439 1600 439 1600 389 1548.5 c 128,-1,6
 339 1497 339 1497 339 1405 c 0,7,8
 339 1254 339 1254 467 1152 c 2,9,-1
 787 896 l 1,10,11
 1043 689 1043 689 1043 401 c 0,12,13
 1043 204 1043 204 921.5 93 c 128,-1,14
 800 -18 800 -18 576.5 -18 c 128,-1,15
 353 -18 353 -18 225.5 124 c 128,-1,16
 98 266 98 266 83 512 c 1,17,-1
 339 576 l 1,18,19
 358 192 358 192 595 192 c 0,20,21
 787 192 787 192 787 384 c 0,22,23
 787 498 787 498 724 578 c 0,24,25
 676 639 676 639 595 704 c 2,26,-1
 275 960 l 1,27,28
 187 1029 187 1029 134.5 1135.5 c 128,-1,29
 82 1242 82 1242 82 1378 c 0,30,31
 82 1576 82 1576 205 1693 c 128,-1,32
 328 1810 328 1810 546.5 1810 c 128,-1,33
 765 1810 765 1810 895 1688 c 128,-1,34
 1025 1566 1025 1566 1043 1344 c 1,35,-1
 787 1280 l 1,0,1
EndSplineSet
EndChar

StartChar: T
Encoding: 84 84 55
Width: 888
Flags: HW
LayerCount: 2
Fore
SplineSet
892 1792 m 1,0,-1
 892 1564 l 1,1,-1
 572 1564 l 1,2,-1
 572 0 l 1,3,-1
 316 0 l 1,4,-1
 316 1564 l 1,5,-1
 -4 1564 l 1,6,-1
 -4 1792 l 1,7,-1
 892 1792 l 1,0,-1
EndSplineSet
EndChar

StartChar: U
Encoding: 85 85 56
Width: 1252
Flags: HW
LayerCount: 2
Fore
SplineSet
1138 640 m 2,0,1
 1138 252 1138 252 978 98 c 0,2,3
 856 -20 856 -20 626 -19 c 0,4,5
 290 -19 290 -19 180 238 c 0,6,7
 114 392 114 392 114 640 c 2,8,-1
 114 1792 l 1,9,-1
 370 1792 l 1,10,-1
 370 640 l 2,11,12
 370 371 370 371 434 280 c 0,13,14
 495 192 495 192 626 192 c 0,15,16
 756 192 756 192 818 280 c 0,17,18
 868 353 868 353 878 501 c 0,19,20
 882 557 882 557 882 640 c 2,21,-1
 882 1792 l 1,22,-1
 1138 1792 l 1,23,-1
 1138 640 l 2,0,1
EndSplineSet
EndChar

StartChar: V
Encoding: 86 86 57
Width: 1048
Flags: HW
LayerCount: 2
Fore
SplineSet
591 832 m 1,0,-1
 780 1792 l 1,1,-1
 1036 1792 l 1,2,-1
 652 0 l 1,3,-1
 396 0 l 1,4,-1
 12 1792 l 1,5,-1
 268 1792 l 1,6,-1
 457 832 l 1,7,-1
 523 384 l 1,8,-1
 591 832 l 1,0,-1
EndSplineSet
EndChar

StartChar: W
Encoding: 87 87 58
Width: 1558
Flags: HW
LayerCount: 2
Fore
SplineSet
907 1792 m 1,0,-1
 1035 960 l 1,1,-1
 1098 448 l 1,2,-1
 1163 960 l 1,3,-1
 1291 1792 l 1,4,-1
 1547 1792 l 1,5,-1
 1227 0 l 1,6,-1
 971 0 l 1,7,-1
 843 832 l 1,8,-1
 779 1344 l 1,9,-1
 715 832 l 1,10,-1
 587 0 l 1,11,-1
 331 0 l 1,12,-1
 11 1792 l 1,13,-1
 267 1792 l 1,14,-1
 395 960 l 1,15,-1
 460 448 l 1,16,-1
 523 960 l 1,17,-1
 651 1792 l 1,18,-1
 907 1792 l 1,0,-1
EndSplineSet
EndChar

StartChar: X
Encoding: 88 88 59
Width: 1070
Flags: HW
LayerCount: 2
Fore
SplineSet
535 768 m 1,0,-1
 281 0 l 1,1,-1
 25 0 l 1,2,-1
 343 929 l 1,3,-1
 23 1792 l 1,4,-1
 279 1792 l 1,5,-1
 535 1088 l 1,6,-1
 791 1792 l 1,7,-1
 1047 1792 l 1,8,-1
 727 933 l 1,9,-1
 1043 0 l 1,10,-1
 789 0 l 1,11,-1
 535 768 l 1,0,-1
EndSplineSet
EndChar

StartChar: Y
Encoding: 89 89 60
Width: 1018
Flags: HW
LayerCount: 2
Fore
SplineSet
381 0 m 1,0,-1
 381 576 l 1,1,-1
 -3 1792 l 1,2,-1
 253 1792 l 1,3,-1
 509 896 l 1,4,-1
 765 1792 l 1,5,-1
 1021 1792 l 1,6,-1
 637 576 l 1,7,-1
 637 0 l 1,8,-1
 381 0 l 1,0,-1
EndSplineSet
EndChar

StartChar: Z
Encoding: 90 90 61
Width: 951
Flags: HW
LayerCount: 2
Fore
SplineSet
318 192 m 1,0,-1
 894 192 l 1,1,-1
 894 0 l 1,2,-1
 62 0 l 1,3,-1
 62 192 l 1,4,-1
 638 1600 l 1,5,-1
 126 1600 l 1,6,-1
 126 1792 l 1,7,-1
 894 1792 l 1,8,-1
 894 1600 l 1,9,-1
 318 192 l 1,0,-1
EndSplineSet
EndChar

StartChar: bracketleft
Encoding: 91 91 62
Width: 768
Flags: HW
LayerCount: 2
Fore
SplineSet
128 1856 m 1,0,-1
 640 1856 l 1,1,-1
 640 1728 l 1,2,-1
 384 1728 l 1,3,-1
 384 64 l 1,4,-1
 640 64 l 1,5,-1
 640 -64 l 1,6,-1
 128 -64 l 1,7,-1
 128 1856 l 1,0,-1
EndSplineSet
EndChar

StartChar: backslash
Encoding: 92 92 63
Width: 576
Flags: HW
LayerCount: 2
Fore
SplineSet
512 0 m 1,0,-1
 256 0 l 1,1,-1
 64 1792 l 1,2,-1
 320 1792 l 1,3,-1
 512 0 l 1,0,-1
EndSplineSet
EndChar

StartChar: bracketright
Encoding: 93 93 64
Width: 768
Flags: HW
LayerCount: 2
Fore
SplineSet
640 -64 m 1,0,-1
 128 -64 l 1,1,-1
 128 64 l 1,2,-1
 384 64 l 1,3,-1
 384 1728 l 1,4,-1
 128 1728 l 1,5,-1
 128 1856 l 1,6,-1
 640 1856 l 1,7,-1
 640 -64 l 1,0,-1
EndSplineSet
EndChar

StartChar: asciicircum
Encoding: 94 94 65
Width: 896
Flags: HW
LayerCount: 2
Fore
SplineSet
576 1536 m 1,0,-1
 832 896 l 1,1,-1
 576 896 l 1,2,-1
 447 1344 l 1,3,-1
 320 896 l 1,4,-1
 64 896 l 1,5,-1
 320 1536 l 1,6,-1
 576 1536 l 1,0,-1
EndSplineSet
EndChar

StartChar: underscore
Encoding: 95 95 66
Width: 768
Flags: HW
LayerCount: 2
Fore
SplineSet
0 192 m 1,0,-1
 768 192 l 1,1,-1
 768 0 l 1,2,-1
 0 0 l 1,3,-1
 0 192 l 1,0,-1
EndSplineSet
EndChar

StartChar: grave
Encoding: 96 96 67
Width: 640
Flags: HW
LayerCount: 2
Fore
SplineSet
128 1792 m 1,0,-1
 384 1792 l 1,1,-1
 512 1408 l 1,2,-1
 384 1408 l 1,3,-1
 128 1792 l 1,0,-1
EndSplineSet
EndChar

StartChar: a
Encoding: 97 97 68
Width: 922
Flags: HW
LayerCount: 2
Fore
SplineSet
567 640 m 1,0,1
 551 629 551 629 514 606 c 128,-1,2
 477 583 477 583 455 568.5 c 128,-1,3
 433 554 433 554 402 528.5 c 0,4,5
 371 504 371 504 354 480 c 0,6,7
 311 421 311 421 311 351 c 0,8,9
 311 192 311 192 439 192 c 0,10,11
 488 192 488 192 530 240 c 0,12,13
 544 256 544 256 554.5 270 c 128,-1,14
 565 284 565 284 567 286 c 1,15,-1
 567 640 l 1,0,1
158 1189 m 128,-1,17
 259 1298 259 1298 438.5 1298 c 128,-1,18
 618 1298 618 1298 720.5 1187.5 c 128,-1,19
 823 1077 823 1077 823 896 c 2,20,-1
 823 320 l 2,21,22
 823 120 823 120 856 0 c 1,23,-1
 601 0 l 1,24,-1
 567 192 l 1,25,26
 503 64 503 64 450 26 c 0,27,28
 390 -17 390 -17 311 -18 c 0,29,30
 204 -18 204 -18 129.5 74.5 c 128,-1,31
 55 167 55 167 55 271.5 c 128,-1,32
 55 376 55 376 86.5 452 c 128,-1,33
 118 528 118 528 153 573.5 c 128,-1,34
 188 619 188 619 270 667.5 c 128,-1,35
 352 716 352 716 394 734.5 c 128,-1,36
 436 753 436 753 497 776.5 c 128,-1,37
 558 800 558 800 567 804 c 1,38,-1
 567 896 l 2,39,40
 567 993 567 993 540 1046.5 c 128,-1,41
 513 1100 513 1100 451 1100 c 0,42,43
 390 1100 390 1100 360 1071 c 0,44,45
 312 1023 312 1023 311 896 c 1,46,-1
 55 896 l 1,47,16
 57 1080 57 1080 158 1189 c 128,-1,17
EndSplineSet
PairPos2: "'kern' Horizontal Kerning in Latin lookup 1 per glyph data 0" tcaron dx=0 dy=0 dh=-34 dv=0 dx=0 dy=0 dh=0 dv=0
PairPos2: "'kern' Horizontal Kerning in Latin lookup 1 per glyph data 0" tcaron dx=0 dy=0 dh=-34 dv=0 dx=0 dy=0 dh=0 dv=0
PairPos2: "'kern' Horizontal Kerning in Latin lookup 1 per glyph data 0" t dx=0 dy=0 dh=-34 dv=0 dx=0 dy=0 dh=0 dv=0
PairPos2: "'kern' Horizontal Kerning in Latin lookup 1 per glyph data 0" t dx=0 dy=0 dh=-34 dv=0 dx=0 dy=0 dh=0 dv=0
EndChar

StartChar: b
Encoding: 98 98 69
Width: 1042
Flags: HW
LayerCount: 2
Fore
SplineSet
949 577 m 2,0,1
 948 281 948 281 852 116 c 0,2,3
 818 57 818 57 760.5 19.5 c 128,-1,4
 703 -18 703 -18 627 -18 c 128,-1,5
 551 -18 551 -18 491 19 c 128,-1,6
 431 56 431 56 373 116 c 1,7,-1
 373 0 l 1,8,-1
 117 0 l 1,9,-1
 117 1791 l 1,10,-1
 373 1791 l 1,11,-1
 373 1153 l 1,12,13
 482 1268 482 1268 551 1288 c 0,14,15
 588 1298 588 1298 643 1298 c 128,-1,16
 698 1298 698 1298 749 1274.5 c 128,-1,17
 800 1251 800 1251 833 1218 c 128,-1,18
 866 1185 866 1185 889 1123 c 128,-1,19
 912 1061 912 1061 923.5 1011 c 128,-1,20
 935 961 935 961 941 876 c 0,21,22
 949 763 949 763 949 594 c 2,23,-1
 949 577 l 2,0,1
695 546 m 1,24,-1
 693 705 l 1,25,-1
 694 823 l 1,26,27
 694 973 694 973 660 1033 c 0,28,29
 629 1088 629 1088 565 1088 c 0,30,31
 459 1088 459 1088 373 1037 c 1,32,-1
 373 232 l 1,33,34
 472 192 472 192 565 192 c 0,35,36
 648 192 648 192 674 308 c 0,37,38
 696 404 696 404 695 546 c 1,24,-1
EndSplineSet
PairPos2: "'kern' Horizontal Kerning in Latin lookup 1 per glyph data 0" jcircumflex dx=0 dy=0 dh=-40 dv=0 dx=0 dy=0 dh=0 dv=0
PairPos2: "'kern' Horizontal Kerning in Latin lookup 1 per glyph data 0" jcircumflex dx=0 dy=0 dh=-40 dv=0 dx=0 dy=0 dh=0 dv=0
PairPos2: "'kern' Horizontal Kerning in Latin lookup 1 per glyph data 0" ydieresis dx=0 dy=0 dh=-40 dv=0 dx=0 dy=0 dh=0 dv=0
PairPos2: "'kern' Horizontal Kerning in Latin lookup 1 per glyph data 0" yacute dx=0 dy=0 dh=-40 dv=0 dx=0 dy=0 dh=0 dv=0
PairPos2: "'kern' Horizontal Kerning in Latin lookup 1 per glyph data 0" y dx=0 dy=0 dh=-40 dv=0 dx=0 dy=0 dh=0 dv=0
PairPos2: "'kern' Horizontal Kerning in Latin lookup 1 per glyph data 0" v dx=0 dy=0 dh=-40 dv=0 dx=0 dy=0 dh=0 dv=0
PairPos2: "'kern' Horizontal Kerning in Latin lookup 1 per glyph data 0" j dx=0 dy=0 dh=-40 dv=0 dx=0 dy=0 dh=0 dv=0
PairPos2: "'kern' Horizontal Kerning in Latin lookup 1 per glyph data 0" j dx=0 dy=0 dh=-40 dv=0 dx=0 dy=0 dh=0 dv=0
EndChar

StartChar: c
Encoding: 99 99 70
Width: 901
Flags: HW
LayerCount: 2
Fore
SplineSet
349 640 m 2,0,-1
 347 518 l 1,1,2
 347 331 347 331 374 272 c 0,3,4
 399 216 399 216 425.5 204 c 128,-1,5
 452 192 452 192 478 192 c 128,-1,6
 504 192 504 192 524.5 200 c 128,-1,7
 545 208 545 208 558.5 219.5 c 128,-1,8
 572 231 572 231 581 253.5 c 128,-1,9
 590 276 590 276 595 293 c 128,-1,10
 600 310 600 310 602 342 c 0,11,12
 605 390 605 390 605 448 c 1,13,-1
 861 448 l 1,14,15
 861 224 861 224 771 103 c 128,-1,16
 681 -18 681 -18 477 -18 c 0,17,18
 268 -18 268 -18 180 133 c 0,19,20
 126 226 126 226 112.5 328.5 c 128,-1,21
 99 431 99 431 96 494 c 128,-1,22
 93 557 93 557 93 640 c 128,-1,23
 93 723 93 723 96 786 c 128,-1,24
 99 849 99 849 108.5 921 c 128,-1,25
 118 993 118 993 134.5 1045 c 128,-1,26
 151 1097 151 1097 180 1147 c 0,27,28
 209 1196 209 1196 249 1228 c 0,29,30
 337 1298 337 1298 461 1298 c 128,-1,31
 585 1298 585 1298 660.5 1267 c 128,-1,32
 736 1236 736 1236 780 1174 c 0,33,34
 862 1057 862 1057 861 832 c 1,35,-1
 605 832 l 1,36,37
 605 980 605 980 573 1040 c 1,38,39
 524 1090 524 1090 477 1099 c 1,40,41
 426 1099 426 1099 398 1059 c 0,42,43
 369 1016 369 1016 362 971.5 c 128,-1,44
 355 927 355 927 352 898.5 c 128,-1,45
 349 870 349 870 348 830 c 0,46,47
 347 804 347 804 347 783 c 0,48,49
 348 773 348 773 348 764 c 0,50,51
 350 683 350 683 349 640 c 2,0,-1
EndSplineSet
PairPos2: "'kern' Horizontal Kerning in Latin lookup 1 per glyph data 0" jcircumflex dx=0 dy=0 dh=-39 dv=0 dx=0 dy=0 dh=0 dv=0
PairPos2: "'kern' Horizontal Kerning in Latin lookup 1 per glyph data 0" jcircumflex dx=0 dy=0 dh=-39 dv=0 dx=0 dy=0 dh=0 dv=0
PairPos2: "'kern' Horizontal Kerning in Latin lookup 1 per glyph data 0" j dx=0 dy=0 dh=-39 dv=0 dx=0 dy=0 dh=0 dv=0
PairPos2: "'kern' Horizontal Kerning in Latin lookup 1 per glyph data 0" j dx=0 dy=0 dh=-39 dv=0 dx=0 dy=0 dh=0 dv=0
EndChar

StartChar: d
Encoding: 100 100 71
Width: 1042
Flags: HW
LayerCount: 2
Fore
SplineSet
292 1274 m 128,-1,1
 343 1298 343 1298 397.5 1298 c 128,-1,2
 452 1298 452 1298 489.5 1286.5 c 0,3,4
 527 1274 527 1274 561 1250 c 0,5,6
 611 1214 611 1214 669 1153 c 1,7,-1
 669 1791 l 1,8,-1
 925 1791 l 1,9,-1
 925 0 l 1,10,-1
 669 0 l 1,11,-1
 669 116 l 1,12,13
 611 56 611 56 551 19 c 128,-1,14
 491 -18 491 -18 415 -18 c 128,-1,15
 339 -18 339 -18 281.5 19.5 c 128,-1,16
 224 57 224 57 189 116 c 128,-1,17
 154 175 154 175 132 256 c 0,18,19
 93 400 93 400 93 577 c 2,20,-1
 93 589 l 2,21,22
 93 906 93 906 111 982 c 128,-1,23
 129 1058 129 1058 152 1121.5 c 128,-1,24
 175 1185 175 1185 208 1217.5 c 128,-1,0
 241 1250 241 1250 292 1274 c 128,-1,1
348 816 m 2,25,-1
 349 705 l 2,26,27
 349 661 349 661 348 600 c 0,28,29
 347 559 347 559 347 526 c 0,30,31
 348 509 348 509 348 495 c 0,32,33
 348 451 348 451 351.5 418.5 c 128,-1,34
 355 386 355 386 360 349 c 128,-1,35
 365 312 365 312 375 286 c 0,36,37
 384 260 384 260 398 238 c 1,38,39
 440 199 440 199 477 192 c 1,40,41
 570 192 570 192 669 232 c 1,42,-1
 669 1037 l 1,43,44
 583 1088 583 1088 477 1088 c 0,45,46
 427 1088 427 1088 407 1064.5 c 128,-1,47
 387 1041 387 1041 377 1023.5 c 128,-1,48
 367 1006 367 1006 361.5 978.5 c 128,-1,49
 356 951 356 951 353 929 c 0,50,51
 348 892 348 892 348 816 c 2,25,-1
EndSplineSet
PairPos2: "'kern' Horizontal Kerning in Latin lookup 1 per glyph data 0" dcaron dx=0 dy=0 dh=-52 dv=0 dx=0 dy=0 dh=0 dv=0
PairPos2: "'kern' Horizontal Kerning in Latin lookup 1 per glyph data 0" dcaron dx=0 dy=0 dh=-52 dv=0 dx=0 dy=0 dh=0 dv=0
PairPos2: "'kern' Horizontal Kerning in Latin lookup 1 per glyph data 0" d dx=0 dy=0 dh=-52 dv=0 dx=0 dy=0 dh=0 dv=0
PairPos2: "'kern' Horizontal Kerning in Latin lookup 1 per glyph data 0" d dx=0 dy=0 dh=-52 dv=0 dx=0 dy=0 dh=0 dv=0
EndChar

StartChar: e
Encoding: 101 101 72
Width: 910
Flags: HW
LayerCount: 2
Fore
SplineSet
605 768 m 1,0,1
 605 924 605 924 588 986 c 0,2,3
 560 1088 560 1088 477 1088 c 0,4,5
 400 1088 400 1088 372 1007 c 0,6,7
 352 947 352 947 350.5 882.5 c 128,-1,8
 349 818 349 818 349 795 c 2,9,-1
 349 768 l 1,10,-1
 605 768 l 1,0,1
349 576 m 2,11,12
 349 418 349 418 352 380 c 1,13,14
 375 198 375 198 477 192 c 1,15,16
 542 192 542 192 568 231 c 0,17,18
 597 274 597 274 601 317 c 0,19,20
 606 371 606 371 606 448 c 1,21,-1
 861 448 l 1,22,23
 861 218 861 218 770 100 c 128,-1,24
 679 -18 679 -18 476 -18 c 0,25,26
 266 -18 266 -18 179 140 c 0,27,28
 124 239 124 239 112 345 c 0,29,30
 93 502 93 502 93 633.5 c 128,-1,31
 93 765 93 765 98.5 838 c 128,-1,32
 104 911 104 911 118 986.5 c 128,-1,33
 132 1062 132 1062 159.5 1115 c 128,-1,34
 187 1168 187 1168 228.5 1211.5 c 128,-1,35
 270 1255 270 1255 332.5 1276.5 c 128,-1,36
 395 1298 395 1298 477 1298 c 128,-1,37
 559 1298 559 1298 621.5 1276.5 c 128,-1,38
 684 1255 684 1255 725.5 1211.5 c 128,-1,39
 767 1168 767 1168 794.5 1115 c 128,-1,40
 822 1062 822 1062 836 986 c 0,41,42
 861 851 861 851 861 670 c 2,43,-1
 861 640 l 1,44,-1
 349 640 l 1,45,-1
 349 576 l 2,11,12
EndSplineSet
PairPos2: "'kern' Horizontal Kerning in Latin lookup 1 per glyph data 0" jcircumflex dx=0 dy=0 dh=-36 dv=0 dx=0 dy=0 dh=0 dv=0
PairPos2: "'kern' Horizontal Kerning in Latin lookup 1 per glyph data 0" jcircumflex dx=0 dy=0 dh=-36 dv=0 dx=0 dy=0 dh=0 dv=0
PairPos2: "'kern' Horizontal Kerning in Latin lookup 1 per glyph data 0" x dx=0 dy=0 dh=-56 dv=0 dx=0 dy=0 dh=0 dv=0
PairPos2: "'kern' Horizontal Kerning in Latin lookup 1 per glyph data 0" j dx=0 dy=0 dh=-36 dv=0 dx=0 dy=0 dh=0 dv=0
PairPos2: "'kern' Horizontal Kerning in Latin lookup 1 per glyph data 0" j dx=0 dy=0 dh=-36 dv=0 dx=0 dy=0 dh=0 dv=0
EndChar

StartChar: f
Encoding: 102 102 73
Width: 620
Flags: HW
LayerCount: 2
Fore
SplineSet
622 1526 m 1,0,-1
 536 1536 l 1,1,2
 472 1536 472 1536 451 1495.5 c 128,-1,3
 430 1455 430 1455 430 1376 c 2,4,-1
 430 1280 l 1,5,-1
 622 1280 l 1,6,-1
 622 1088 l 1,7,-1
 430 1088 l 1,8,-1
 430 0 l 1,9,-1
 174 0 l 1,10,-1
 174 1088 l 1,11,-1
 46 1088 l 1,12,-1
 46 1280 l 1,13,-1
 174 1280 l 1,14,-1
 174 1329 l 2,15,16
 174 1489 174 1489 198.5 1558.5 c 0,17,18
 222 1628 222 1628 254 1660 c 0,19,20
 322 1728 322 1728 464 1728 c 0,21,22
 526 1728 526 1728 622 1716 c 1,23,-1
 622 1526 l 1,0,-1
EndSplineSet
PairPos2: "'kern' Horizontal Kerning in Latin lookup 1 per glyph data 0" lcaron dx=0 dy=0 dh=-6 dv=0 dx=0 dy=0 dh=0 dv=0
PairPos2: "'kern' Horizontal Kerning in Latin lookup 1 per glyph data 0" lcaron dx=0 dy=0 dh=-6 dv=0 dx=0 dy=0 dh=0 dv=0
PairPos2: "'kern' Horizontal Kerning in Latin lookup 1 per glyph data 0" uni020F dx=0 dy=0 dh=-10 dv=0 dx=0 dy=0 dh=0 dv=0
PairPos2: "'kern' Horizontal Kerning in Latin lookup 1 per glyph data 0" uni020F dx=0 dy=0 dh=-10 dv=0 dx=0 dy=0 dh=0 dv=0
PairPos2: "'kern' Horizontal Kerning in Latin lookup 1 per glyph data 0" ohungarumlaut dx=0 dy=0 dh=-10 dv=0 dx=0 dy=0 dh=0 dv=0
PairPos2: "'kern' Horizontal Kerning in Latin lookup 1 per glyph data 0" ohungarumlaut dx=0 dy=0 dh=-10 dv=0 dx=0 dy=0 dh=0 dv=0
PairPos2: "'kern' Horizontal Kerning in Latin lookup 1 per glyph data 0" lacute dx=0 dy=0 dh=-6 dv=0 dx=0 dy=0 dh=0 dv=0
PairPos2: "'kern' Horizontal Kerning in Latin lookup 1 per glyph data 0" lacute dx=0 dy=0 dh=-6 dv=0 dx=0 dy=0 dh=0 dv=0
PairPos2: "'kern' Horizontal Kerning in Latin lookup 1 per glyph data 0" dotlessi dx=0 dy=0 dh=-11 dv=0 dx=0 dy=0 dh=0 dv=0
PairPos2: "'kern' Horizontal Kerning in Latin lookup 1 per glyph data 0" ecaron dx=0 dy=0 dh=-17 dv=0 dx=0 dy=0 dh=0 dv=0
PairPos2: "'kern' Horizontal Kerning in Latin lookup 1 per glyph data 0" ecaron dx=0 dy=0 dh=-17 dv=0 dx=0 dy=0 dh=0 dv=0
PairPos2: "'kern' Horizontal Kerning in Latin lookup 1 per glyph data 0" odieresis dx=0 dy=0 dh=-10 dv=0 dx=0 dy=0 dh=0 dv=0
PairPos2: "'kern' Horizontal Kerning in Latin lookup 1 per glyph data 0" odieresis dx=0 dy=0 dh=-10 dv=0 dx=0 dy=0 dh=0 dv=0
PairPos2: "'kern' Horizontal Kerning in Latin lookup 1 per glyph data 0" otilde dx=0 dy=0 dh=-10 dv=0 dx=0 dy=0 dh=0 dv=0
PairPos2: "'kern' Horizontal Kerning in Latin lookup 1 per glyph data 0" otilde dx=0 dy=0 dh=-10 dv=0 dx=0 dy=0 dh=0 dv=0
PairPos2: "'kern' Horizontal Kerning in Latin lookup 1 per glyph data 0" ocircumflex dx=0 dy=0 dh=-10 dv=0 dx=0 dy=0 dh=0 dv=0
PairPos2: "'kern' Horizontal Kerning in Latin lookup 1 per glyph data 0" ocircumflex dx=0 dy=0 dh=-10 dv=0 dx=0 dy=0 dh=0 dv=0
PairPos2: "'kern' Horizontal Kerning in Latin lookup 1 per glyph data 0" oacute dx=0 dy=0 dh=-10 dv=0 dx=0 dy=0 dh=0 dv=0
PairPos2: "'kern' Horizontal Kerning in Latin lookup 1 per glyph data 0" oacute dx=0 dy=0 dh=-10 dv=0 dx=0 dy=0 dh=0 dv=0
PairPos2: "'kern' Horizontal Kerning in Latin lookup 1 per glyph data 0" ograve dx=0 dy=0 dh=-10 dv=0 dx=0 dy=0 dh=0 dv=0
PairPos2: "'kern' Horizontal Kerning in Latin lookup 1 per glyph data 0" ograve dx=0 dy=0 dh=-10 dv=0 dx=0 dy=0 dh=0 dv=0
PairPos2: "'kern' Horizontal Kerning in Latin lookup 1 per glyph data 0" idieresis dx=0 dy=0 dh=-11 dv=0 dx=0 dy=0 dh=0 dv=0
PairPos2: "'kern' Horizontal Kerning in Latin lookup 1 per glyph data 0" idieresis dx=0 dy=0 dh=-11 dv=0 dx=0 dy=0 dh=0 dv=0
PairPos2: "'kern' Horizontal Kerning in Latin lookup 1 per glyph data 0" icircumflex dx=0 dy=0 dh=-11 dv=0 dx=0 dy=0 dh=0 dv=0
PairPos2: "'kern' Horizontal Kerning in Latin lookup 1 per glyph data 0" icircumflex dx=0 dy=0 dh=-11 dv=0 dx=0 dy=0 dh=0 dv=0
PairPos2: "'kern' Horizontal Kerning in Latin lookup 1 per glyph data 0" iacute dx=0 dy=0 dh=-11 dv=0 dx=0 dy=0 dh=0 dv=0
PairPos2: "'kern' Horizontal Kerning in Latin lookup 1 per glyph data 0" iacute dx=0 dy=0 dh=-11 dv=0 dx=0 dy=0 dh=0 dv=0
PairPos2: "'kern' Horizontal Kerning in Latin lookup 1 per glyph data 0" igrave dx=0 dy=0 dh=-11 dv=0 dx=0 dy=0 dh=0 dv=0
PairPos2: "'kern' Horizontal Kerning in Latin lookup 1 per glyph data 0" igrave dx=0 dy=0 dh=-11 dv=0 dx=0 dy=0 dh=0 dv=0
PairPos2: "'kern' Horizontal Kerning in Latin lookup 1 per glyph data 0" o dx=0 dy=0 dh=-6 dv=0 dx=0 dy=0 dh=0 dv=0
PairPos2: "'kern' Horizontal Kerning in Latin lookup 1 per glyph data 0" o dx=0 dy=0 dh=-10 dv=0 dx=0 dy=0 dh=0 dv=0
PairPos2: "'kern' Horizontal Kerning in Latin lookup 1 per glyph data 0" l dx=0 dy=0 dh=-6 dv=0 dx=0 dy=0 dh=0 dv=0
PairPos2: "'kern' Horizontal Kerning in Latin lookup 1 per glyph data 0" i dx=0 dy=0 dh=-11 dv=0 dx=0 dy=0 dh=0 dv=0
PairPos2: "'kern' Horizontal Kerning in Latin lookup 1 per glyph data 0" f dx=0 dy=0 dh=-78 dv=0 dx=0 dy=0 dh=0 dv=0
PairPos2: "'kern' Horizontal Kerning in Latin lookup 1 per glyph data 0" f dx=0 dy=0 dh=-48 dv=0 dx=0 dy=0 dh=0 dv=0
PairPos2: "'kern' Horizontal Kerning in Latin lookup 1 per glyph data 0" period dx=0 dy=0 dh=-40 dv=0 dx=0 dy=0 dh=0 dv=0
PairPos2: "'kern' Horizontal Kerning in Latin lookup 1 per glyph data 0" period dx=0 dy=0 dh=-40 dv=0 dx=0 dy=0 dh=0 dv=0
PairPos2: "'kern' Horizontal Kerning in Latin lookup 1 per glyph data 0" comma dx=0 dy=0 dh=-50 dv=0 dx=0 dy=0 dh=0 dv=0
PairPos2: "'kern' Horizontal Kerning in Latin lookup 1 per glyph data 0" comma dx=0 dy=0 dh=-110 dv=0 dx=0 dy=0 dh=0 dv=0
EndChar

StartChar: g
Encoding: 103 103 74
Width: 968
Flags: HW
LayerCount: 2
Fore
SplineSet
626 832 m 0,0,1
 626 1032 626 1032 545 1094 c 0,2,3
 512 1120 512 1120 465.5 1120 c 128,-1,4
 419 1120 419 1120 386 1094.5 c 0,5,6
 352 1068 352 1068 336 1024 c 0,7,8
 306 942 306 942 306 832 c 0,9,10
 306 560 306 560 466 560 c 128,-1,11
 626 560 626 560 626 832 c 0,0,1
438 -196 m 1,12,-1
 530 -194 l 1,13,14
 754 -194 754 -194 754 -99 c 0,15,16
 754 -81 754 -81 750 -66 c 1,17,18
 736 10 736 10 549 32 c 2,19,-1
 338 57 l 1,20,21
 299 29 299 29 271.5 -24 c 128,-1,22
 244 -77 244 -77 244 -136.5 c 128,-1,23
 244 -196 244 -196 438 -196 c 1,12,-1
82 832 m 0,24,25
 82 1114 82 1114 254 1236 c 0,26,27
 342 1298 342 1298 466 1298 c 0,28,29
 598 1298 598 1298 676 1228 c 0,30,31
 710 1198 710 1198 742 1147 c 1,32,33
 823 1298 823 1298 978 1298 c 1,34,-1
 978 1088 l 1,35,36
 882 1088 882 1088 818 1024 c 1,37,38
 850 930 850 930 850 814 c 128,-1,39
 850 698 850 698 809.5 595 c 128,-1,40
 769 492 769 492 680.5 430 c 128,-1,41
 592 368 592 368 466 368 c 0,42,43
 429 368 429 368 385 375 c 2,44,-1
 337 383 l 1,45,46
 335 378 335 378 327 365.5 c 0,47,48
 318 353 318 353 314 345 c 0,49,50
 302 323 302 323 302 299 c 128,-1,51
 302 275 302 275 327 257 c 128,-1,52
 352 239 352 239 396 230.5 c 128,-1,53
 440 222 440 222 480.5 218 c 128,-1,54
 521 214 521 214 571 211.5 c 128,-1,55
 621 209 621 209 659 203.5 c 128,-1,56
 697 198 697 198 741.5 187.5 c 128,-1,57
 786 177 786 177 832.5 157 c 128,-1,58
 879 137 879 137 909 109 c 0,59,60
 978 45 978 45 978 -64 c 0,61,62
 978 -264 978 -264 789 -340 c 0,63,64
 682 -384 682 -384 530 -383 c 0,65,66
 350 -383 350 -383 299 -375 c 128,-1,67
 248 -367 248 -367 203 -358.5 c 128,-1,68
 158 -350 158 -350 128.5 -336 c 128,-1,69
 99 -322 99 -322 72 -303 c 0,70,71
 18 -265 18 -265 18 -180 c 128,-1,72
 18 -95 18 -95 71.5 -24 c 128,-1,73
 125 47 125 47 210 89 c 1,74,75
 158 103 158 103 120 131.5 c 128,-1,76
 82 160 82 160 82 201 c 0,77,78
 82 254 82 254 102 290.5 c 128,-1,79
 122 327 122 327 128.5 338.5 c 128,-1,80
 135 350 135 350 150 370.5 c 128,-1,81
 165 391 165 391 170.5 398.5 c 128,-1,82
 176 406 176 406 192 425.5 c 128,-1,83
 208 445 208 445 210 448 c 1,84,85
 82 600 82 600 82 832 c 0,24,25
EndSplineSet
PairPos2: "'kern' Horizontal Kerning in Latin lookup 1 per glyph data 0" uni020F dx=0 dy=0 dh=-15 dv=0 dx=0 dy=0 dh=0 dv=0
PairPos2: "'kern' Horizontal Kerning in Latin lookup 1 per glyph data 0" uni020F dx=0 dy=0 dh=-15 dv=0 dx=0 dy=0 dh=0 dv=0
PairPos2: "'kern' Horizontal Kerning in Latin lookup 1 per glyph data 0" ohungarumlaut dx=0 dy=0 dh=-15 dv=0 dx=0 dy=0 dh=0 dv=0
PairPos2: "'kern' Horizontal Kerning in Latin lookup 1 per glyph data 0" ohungarumlaut dx=0 dy=0 dh=-15 dv=0 dx=0 dy=0 dh=0 dv=0
PairPos2: "'kern' Horizontal Kerning in Latin lookup 1 per glyph data 0" ecaron dx=0 dy=0 dh=-13 dv=0 dx=0 dy=0 dh=0 dv=0
PairPos2: "'kern' Horizontal Kerning in Latin lookup 1 per glyph data 0" ecaron dx=0 dy=0 dh=-13 dv=0 dx=0 dy=0 dh=0 dv=0
PairPos2: "'kern' Horizontal Kerning in Latin lookup 1 per glyph data 0" odieresis dx=0 dy=0 dh=-15 dv=0 dx=0 dy=0 dh=0 dv=0
PairPos2: "'kern' Horizontal Kerning in Latin lookup 1 per glyph data 0" odieresis dx=0 dy=0 dh=-15 dv=0 dx=0 dy=0 dh=0 dv=0
PairPos2: "'kern' Horizontal Kerning in Latin lookup 1 per glyph data 0" otilde dx=0 dy=0 dh=-15 dv=0 dx=0 dy=0 dh=0 dv=0
PairPos2: "'kern' Horizontal Kerning in Latin lookup 1 per glyph data 0" otilde dx=0 dy=0 dh=-15 dv=0 dx=0 dy=0 dh=0 dv=0
PairPos2: "'kern' Horizontal Kerning in Latin lookup 1 per glyph data 0" ocircumflex dx=0 dy=0 dh=-15 dv=0 dx=0 dy=0 dh=0 dv=0
PairPos2: "'kern' Horizontal Kerning in Latin lookup 1 per glyph data 0" ocircumflex dx=0 dy=0 dh=-15 dv=0 dx=0 dy=0 dh=0 dv=0
PairPos2: "'kern' Horizontal Kerning in Latin lookup 1 per glyph data 0" oacute dx=0 dy=0 dh=-15 dv=0 dx=0 dy=0 dh=0 dv=0
PairPos2: "'kern' Horizontal Kerning in Latin lookup 1 per glyph data 0" oacute dx=0 dy=0 dh=-15 dv=0 dx=0 dy=0 dh=0 dv=0
PairPos2: "'kern' Horizontal Kerning in Latin lookup 1 per glyph data 0" ograve dx=0 dy=0 dh=-15 dv=0 dx=0 dy=0 dh=0 dv=0
PairPos2: "'kern' Horizontal Kerning in Latin lookup 1 per glyph data 0" ograve dx=0 dy=0 dh=-15 dv=0 dx=0 dy=0 dh=0 dv=0
PairPos2: "'kern' Horizontal Kerning in Latin lookup 1 per glyph data 0" o dx=0 dy=0 dh=-7 dv=0 dx=0 dy=0 dh=0 dv=0
PairPos2: "'kern' Horizontal Kerning in Latin lookup 1 per glyph data 0" o dx=0 dy=0 dh=-15 dv=0 dx=0 dy=0 dh=0 dv=0
PairPos2: "'kern' Horizontal Kerning in Latin lookup 1 per glyph data 0" g dx=0 dy=0 dh=-14 dv=0 dx=0 dy=0 dh=0 dv=0
PairPos2: "'kern' Horizontal Kerning in Latin lookup 1 per glyph data 0" g dx=0 dy=0 dh=-14 dv=0 dx=0 dy=0 dh=0 dv=0
EndChar

StartChar: h
Encoding: 104 104 75
Width: 992
Flags: HW
LayerCount: 2
Fore
SplineSet
373 1142 m 1,0,1
 430 1194 430 1194 466 1221.5 c 128,-1,2
 502 1249 502 1249 565.5 1273.5 c 128,-1,3
 629 1298 629 1298 706 1298 c 128,-1,4
 783 1298 783 1298 834 1238 c 128,-1,5
 885 1178 885 1178 885 1091 c 2,6,-1
 885 0 l 1,7,-1
 629 0 l 1,8,-1
 629 960 l 2,9,10
 629 1026 629 1026 612.5 1057 c 128,-1,11
 596 1088 596 1088 529.5 1088 c 128,-1,12
 463 1088 463 1088 373 1013 c 1,13,-1
 373 0 l 1,14,-1
 117 0 l 1,15,-1
 117 1792 l 1,16,-1
 373 1792 l 1,17,-1
 373 1142 l 1,0,1
EndSplineSet
EndChar

StartChar: i
Encoding: 105 105 76
Width: 512
Flags: HW
LayerCount: 2
Fore
SplineSet
128 1728 m 1,0,-1
 384 1728 l 1,1,-1
 384 1472 l 1,2,-1
 128 1472 l 1,3,-1
 128 1728 l 1,0,-1
128 1280 m 1,4,-1
 384 1280 l 1,5,-1
 384 0 l 1,6,-1
 128 0 l 1,7,-1
 128 1280 l 1,4,-1
EndSplineSet
EndChar

StartChar: j
Encoding: 106 106 77
Width: 507
Flags: HW
LayerCount: 2
Fore
SplineSet
150 1728 m 1,0,-1
 406 1728 l 1,1,-1
 406 1472 l 1,2,-1
 150 1472 l 1,3,-1
 150 1728 l 1,0,-1
86 -320 m 0,4,5
 2 -320 2 -320 -42 -303 c 1,6,-1
 -42 -121 l 1,7,8
 -7 -128 -7 -128 22 -128 c 0,9,10
 150 -128 150 -128 150 21 c 2,11,-1
 150 1280 l 1,12,-1
 406 1280 l 1,13,-1
 406 -7 l 2,14,15
 406 -155 406 -155 320.5 -237.5 c 128,-1,16
 235 -320 235 -320 86 -320 c 0,4,5
EndSplineSet
EndChar

StartChar: k
Encoding: 107 107 78
Width: 943
Flags: HW
LayerCount: 2
Fore
SplineSet
373 1792 m 1,0,-1
 373 807 l 1,1,-1
 693 1280 l 1,2,-1
 949 1280 l 1,3,-1
 662 833 l 1,4,-1
 949 0 l 1,5,-1
 693 0 l 1,6,-1
 501 619 l 1,7,-1
 373 448 l 1,8,-1
 373 0 l 1,9,-1
 117 0 l 1,10,-1
 117 1792 l 1,11,-1
 373 1792 l 1,0,-1
EndSplineSet
EndChar

StartChar: l
Encoding: 108 108 79
Width: 497
Flags: HW
LayerCount: 2
Fore
SplineSet
378 0 m 1,0,-1
 122 0 l 1,1,-1
 122 1792 l 1,2,-1
 378 1792 l 1,3,-1
 378 0 l 1,0,-1
EndSplineSet
EndChar

StartChar: m
Encoding: 109 109 80
Width: 1504
Flags: HW
LayerCount: 2
Fore
SplineSet
629 989 m 2,0,1
 629 1088 629 1088 565 1088 c 0,2,3
 471 1088 471 1088 373 1007 c 1,4,-1
 373 0 l 1,5,-1
 117 0 l 1,6,-1
 117 1280 l 1,7,-1
 373 1280 l 1,8,-1
 373 1135 l 1,9,10
 510 1298 510 1298 692 1298 c 0,11,12
 784 1298 784 1298 827 1257.5 c 128,-1,13
 870 1217 870 1217 885 1129 c 1,14,15
 948 1212 948 1212 1021 1255 c 128,-1,16
 1094 1298 1094 1298 1205 1298 c 0,17,18
 1302 1298 1302 1298 1340 1248 c 0,19,20
 1372 1206 1372 1206 1379.5 1173.5 c 128,-1,21
 1387 1141 1387 1141 1390 1122 c 128,-1,22
 1393 1103 1393 1103 1395 1066 c 0,23,24
 1397 1028 1397 1028 1397 1008 c 2,25,-1
 1397 0 l 1,26,-1
 1141 0 l 1,27,-1
 1141 934 l 2,28,29
 1141 1021 1141 1021 1133 1045 c 0,30,31
 1118 1087 1118 1087 1077 1088 c 1,32,33
 991 1088 991 1088 885 1002 c 1,34,-1
 885 0 l 1,35,-1
 629 0 l 1,36,-1
 629 989 l 2,0,1
EndSplineSet
EndChar

StartChar: n
Encoding: 110 110 81
Width: 992
Flags: HW
LayerCount: 2
Fore
SplineSet
373 1142 m 1,0,1
 430 1194 430 1194 466 1221.5 c 128,-1,2
 502 1249 502 1249 565.5 1273.5 c 128,-1,3
 629 1298 629 1298 706 1298 c 128,-1,4
 783 1298 783 1298 834 1238 c 128,-1,5
 885 1178 885 1178 885 1091 c 2,6,-1
 885 0 l 1,7,-1
 629 0 l 1,8,-1
 629 960 l 2,9,10
 629 1027 629 1027 610 1057.5 c 128,-1,11
 591 1088 591 1088 545.5 1088 c 128,-1,12
 500 1088 500 1088 468 1074 c 0,13,14
 427 1057 427 1057 373 1013 c 1,15,-1
 373 0 l 1,16,-1
 117 0 l 1,17,-1
 117 1280 l 1,18,-1
 373 1280 l 1,19,-1
 373 1142 l 1,0,1
EndSplineSet
EndChar

StartChar: o
Encoding: 111 111 82
Width: 954
Flags: HW
LayerCount: 2
Fore
SplineSet
477 1088 m 128,-1,1
 450 1088 450 1088 429.5 1080 c 128,-1,2
 409 1072 409 1072 395.5 1060.5 c 128,-1,3
 382 1049 382 1049 373 1026.5 c 128,-1,4
 364 1004 364 1004 359 987 c 128,-1,5
 354 970 354 970 352 938 c 0,6,7
 349 890 349 890 349 832 c 2,8,-1
 349 448 l 2,9,10
 349 327 349 327 356.5 301.5 c 128,-1,11
 364 276 364 276 373 253.5 c 128,-1,12
 382 231 382 231 395.5 219.5 c 128,-1,13
 409 208 409 208 429.5 200 c 128,-1,14
 450 192 450 192 477 192 c 128,-1,15
 504 192 504 192 524.5 200 c 128,-1,16
 545 208 545 208 558.5 219.5 c 128,-1,17
 572 231 572 231 581 253.5 c 128,-1,18
 590 276 590 276 595 293 c 128,-1,19
 600 310 600 310 602 342 c 0,20,21
 605 390 605 390 605 448 c 2,22,-1
 605 832 l 2,23,24
 605 953 605 953 597.5 978.5 c 128,-1,25
 590 1004 590 1004 581 1026.5 c 128,-1,26
 572 1049 572 1049 558.5 1060.5 c 128,-1,27
 545 1072 545 1072 524.5 1080 c 128,-1,0
 504 1088 504 1088 477 1088 c 128,-1,1
477 -18 m 128,-1,29
 271 -18 271 -18 182 102 c 128,-1,30
 93 222 93 222 93 448 c 2,31,-1
 93 832 l 2,32,33
 93 1058 93 1058 182 1178 c 128,-1,34
 271 1298 271 1298 477 1298 c 128,-1,35
 683 1298 683 1298 772 1178 c 128,-1,36
 861 1058 861 1058 861 832 c 2,37,-1
 861 448 l 2,38,39
 861 222 861 222 772 102 c 128,-1,28
 683 -18 683 -18 477 -18 c 128,-1,29
EndSplineSet
EndChar

StartChar: p
Encoding: 112 112 83
Width: 1042
Flags: HW
LayerCount: 2
Fore
SplineSet
695 545 m 1,0,-1
 693 704 l 1,1,-1
 693 714 l 2,2,3
 693 868 693 868 684 915.5 c 128,-1,4
 675 963 675 963 664 998 c 0,5,6
 654 1033 654 1033 638 1053 c 0,7,8
 601 1101 601 1101 542 1101 c 0,9,10
 489 1101 489 1101 455.5 1083 c 128,-1,11
 422 1065 422 1065 415.5 1061.5 c 128,-1,12
 409 1058 409 1058 393 1048 c 128,-1,13
 377 1038 377 1038 373 1036 c 1,14,-1
 373 244 l 1,15,16
 461 192 461 192 565 192 c 0,17,18
 648 192 648 192 674 308 c 0,19,20
 696 404 696 404 695 545 c 1,0,-1
949 576 m 2,21,22
 948 281 948 281 852 116 c 0,23,24
 818 57 818 57 760.5 19.5 c 128,-1,25
 703 -18 703 -18 629 -18 c 0,26,27
 499 -18 499 -18 373 115 c 1,28,-1
 373 -384 l 1,29,-1
 117 -384 l 1,30,-1
 117 1280 l 1,31,-1
 373 1280 l 1,32,-1
 373 1152 l 1,33,34
 463 1248 463 1248 497 1263 c 0,35,36
 571 1298 571 1298 634.5 1298 c 128,-1,37
 698 1298 698 1298 749 1274.5 c 128,-1,38
 800 1251 800 1251 833 1218 c 128,-1,39
 866 1185 866 1185 889 1123.5 c 128,-1,40
 912 1062 912 1062 923.5 1012 c 128,-1,41
 935 962 935 962 941 877 c 0,42,43
 949 764 949 764 949 595 c 2,44,-1
 949 576 l 2,21,22
EndSplineSet
PairPos2: "'kern' Horizontal Kerning in Latin lookup 1 per glyph data 0" jcircumflex dx=0 dy=0 dh=-48 dv=0 dx=0 dy=0 dh=0 dv=0
PairPos2: "'kern' Horizontal Kerning in Latin lookup 1 per glyph data 0" jcircumflex dx=0 dy=0 dh=-48 dv=0 dx=0 dy=0 dh=0 dv=0
PairPos2: "'kern' Horizontal Kerning in Latin lookup 1 per glyph data 0" ydieresis dx=0 dy=0 dh=-37 dv=0 dx=0 dy=0 dh=0 dv=0
PairPos2: "'kern' Horizontal Kerning in Latin lookup 1 per glyph data 0" yacute dx=0 dy=0 dh=-37 dv=0 dx=0 dy=0 dh=0 dv=0
PairPos2: "'kern' Horizontal Kerning in Latin lookup 1 per glyph data 0" y dx=0 dy=0 dh=-37 dv=0 dx=0 dy=0 dh=0 dv=0
PairPos2: "'kern' Horizontal Kerning in Latin lookup 1 per glyph data 0" v dx=0 dy=0 dh=-64 dv=0 dx=0 dy=0 dh=0 dv=0
PairPos2: "'kern' Horizontal Kerning in Latin lookup 1 per glyph data 0" j dx=0 dy=0 dh=-48 dv=0 dx=0 dy=0 dh=0 dv=0
PairPos2: "'kern' Horizontal Kerning in Latin lookup 1 per glyph data 0" j dx=0 dy=0 dh=-48 dv=0 dx=0 dy=0 dh=0 dv=0
EndChar

StartChar: q
Encoding: 113 113 84
Width: 1042
Flags: HW
LayerCount: 2
Fore
SplineSet
349 734 m 2,0,-1
 349 695 l 2,1,2
 349 659 349 659 348 598 c 0,3,4
 347 557 347 557 347 524 c 0,5,6
 348 508 348 508 348 494 c 0,7,8
 348 450 348 450 351.5 417.5 c 128,-1,9
 355 385 355 385 360 348 c 128,-1,10
 365 311 365 311 375 285 c 0,11,12
 384 258 384 258 398 236 c 1,13,14
 439 198 439 198 477 192 c 1,15,16
 578 192 578 192 669 244 c 1,17,-1
 669 1036 l 1,18,19
 665 1038 665 1038 649 1048 c 128,-1,20
 633 1058 633 1058 626.5 1061.5 c 128,-1,21
 620 1065 620 1065 605 1073 c 128,-1,22
 590 1081 590 1081 580.5 1084.5 c 0,23,24
 570 1088 570 1088 556 1092 c 0,25,26
 529 1100 529 1100 499 1100.5 c 128,-1,27
 469 1101 469 1101 444.5 1087 c 128,-1,28
 420 1073 420 1073 404 1053 c 128,-1,29
 388 1033 388 1033 377 997 c 128,-1,30
 366 961 366 961 360.5 933 c 0,31,32
 354 905 354 905 352 858 c 0,33,34
 348 793 348 793 349 734 c 2,0,-1
292 1274 m 128,-1,36
 343 1298 343 1298 397.5 1298 c 128,-1,37
 452 1298 452 1298 489.5 1286.5 c 0,38,39
 528 1275 528 1275 562 1250 c 0,40,41
 609 1216 609 1216 669 1152 c 1,42,-1
 669 1280 l 1,43,-1
 925 1280 l 1,44,-1
 925 -384 l 1,45,-1
 669 -384 l 1,46,-1
 669 115 l 1,47,48
 612 56 612 56 551.5 19 c 128,-1,49
 491 -18 491 -18 415 -18 c 128,-1,50
 339 -18 339 -18 281.5 19.5 c 128,-1,51
 224 57 224 57 189.5 116 c 0,52,53
 154 176 154 176 132 256 c 0,54,55
 92 397 92 397 93 576 c 2,56,-1
 93 588 l 2,57,58
 93 906 93 906 111 982 c 128,-1,59
 129 1058 129 1058 152 1121.5 c 128,-1,60
 175 1185 175 1185 208 1217.5 c 128,-1,35
 241 1250 241 1250 292 1274 c 128,-1,36
EndSplineSet
EndChar

StartChar: r
Encoding: 114 114 85
Width: 680
Flags: HW
LayerCount: 2
Fore
SplineSet
373 1109 m 1,0,1
 412 1185 412 1185 486.5 1241.5 c 128,-1,2
 561 1298 561 1298 652 1298 c 0,3,4
 655 1298 655 1298 693 1294 c 1,5,-1
 693 1011 l 1,6,7
 622 1039 622 1039 546.5 1039 c 128,-1,8
 471 1039 471 1039 422 991 c 128,-1,9
 373 943 373 943 373 864 c 2,10,-1
 373 0 l 1,11,-1
 117 0 l 1,12,-1
 117 1280 l 1,13,-1
 373 1280 l 1,14,-1
 373 1109 l 1,0,1
EndSplineSet
PairPos2: "'kern' Horizontal Kerning in Latin lookup 1 per glyph data 0" ccaron dx=0 dy=0 dh=-9 dv=0 dx=0 dy=0 dh=0 dv=0
PairPos2: "'kern' Horizontal Kerning in Latin lookup 1 per glyph data 0" ccaron dx=0 dy=0 dh=-9 dv=0 dx=0 dy=0 dh=0 dv=0
PairPos2: "'kern' Horizontal Kerning in Latin lookup 1 per glyph data 0" cacute dx=0 dy=0 dh=-9 dv=0 dx=0 dy=0 dh=0 dv=0
PairPos2: "'kern' Horizontal Kerning in Latin lookup 1 per glyph data 0" cacute dx=0 dy=0 dh=-9 dv=0 dx=0 dy=0 dh=0 dv=0
PairPos2: "'kern' Horizontal Kerning in Latin lookup 1 per glyph data 0" odieresis dx=0 dy=0 dh=-9 dv=0 dx=0 dy=0 dh=0 dv=0
PairPos2: "'kern' Horizontal Kerning in Latin lookup 1 per glyph data 0" odieresis dx=0 dy=0 dh=-9 dv=0 dx=0 dy=0 dh=0 dv=0
PairPos2: "'kern' Horizontal Kerning in Latin lookup 1 per glyph data 0" otilde dx=0 dy=0 dh=-9 dv=0 dx=0 dy=0 dh=0 dv=0
PairPos2: "'kern' Horizontal Kerning in Latin lookup 1 per glyph data 0" otilde dx=0 dy=0 dh=-9 dv=0 dx=0 dy=0 dh=0 dv=0
PairPos2: "'kern' Horizontal Kerning in Latin lookup 1 per glyph data 0" ocircumflex dx=0 dy=0 dh=-9 dv=0 dx=0 dy=0 dh=0 dv=0
PairPos2: "'kern' Horizontal Kerning in Latin lookup 1 per glyph data 0" ocircumflex dx=0 dy=0 dh=-9 dv=0 dx=0 dy=0 dh=0 dv=0
PairPos2: "'kern' Horizontal Kerning in Latin lookup 1 per glyph data 0" oacute dx=0 dy=0 dh=-9 dv=0 dx=0 dy=0 dh=0 dv=0
PairPos2: "'kern' Horizontal Kerning in Latin lookup 1 per glyph data 0" oacute dx=0 dy=0 dh=-9 dv=0 dx=0 dy=0 dh=0 dv=0
PairPos2: "'kern' Horizontal Kerning in Latin lookup 1 per glyph data 0" ograve dx=0 dy=0 dh=-9 dv=0 dx=0 dy=0 dh=0 dv=0
PairPos2: "'kern' Horizontal Kerning in Latin lookup 1 per glyph data 0" ograve dx=0 dy=0 dh=-9 dv=0 dx=0 dy=0 dh=0 dv=0
PairPos2: "'kern' Horizontal Kerning in Latin lookup 1 per glyph data 0" ccedilla dx=0 dy=0 dh=-9 dv=0 dx=0 dy=0 dh=0 dv=0
PairPos2: "'kern' Horizontal Kerning in Latin lookup 1 per glyph data 0" ccedilla dx=0 dy=0 dh=-9 dv=0 dx=0 dy=0 dh=0 dv=0
PairPos2: "'kern' Horizontal Kerning in Latin lookup 1 per glyph data 0" c dx=0 dy=0 dh=-9 dv=0 dx=0 dy=0 dh=0 dv=0
PairPos2: "'kern' Horizontal Kerning in Latin lookup 1 per glyph data 0" c dx=0 dy=0 dh=-9 dv=0 dx=0 dy=0 dh=0 dv=0
EndChar

StartChar: s
Encoding: 115 115 86
Width: 872
Flags: HW
LayerCount: 2
Fore
SplineSet
632 896 m 1,0,1
 582 1032 582 1032 511 1070 c 0,2,3
 479 1088 479 1088 429 1088 c 128,-1,4
 379 1088 379 1088 345.5 1054.5 c 128,-1,5
 312 1021 312 1021 312 960.5 c 128,-1,6
 312 900 312 900 376 852 c 2,7,-1
 632 660 l 1,8,9
 774 548 774 548 809 429 c 0,10,11
 824 378 824 378 824 320 c 0,12,13
 824 156 824 156 719.5 69 c 128,-1,14
 615 -18 615 -18 448.5 -18 c 128,-1,15
 282 -18 282 -18 186.5 76 c 128,-1,16
 91 170 91 170 56 320 c 1,17,-1
 248 384 l 1,18,19
 317 192 317 192 440 192 c 0,20,21
 501 192 501 192 534.5 225.5 c 128,-1,22
 568 259 568 259 568 334 c 128,-1,23
 568 409 568 409 504 468 c 1,24,-1
 248 660 l 1,25,26
 108 755 108 755 72 860 c 0,27,28
 56 906 56 906 56 960 c 0,29,30
 56 1124 56 1124 160.5 1211 c 128,-1,31
 265 1298 265 1298 440 1298 c 0,32,33
 674 1298 674 1298 778 1090 c 0,34,35
 808 1032 808 1032 824 960 c 1,36,-1
 632 896 l 1,0,1
EndSplineSet
EndChar

StartChar: t
Encoding: 116 116 87
Width: 658
Flags: HW
LayerCount: 2
Fore
SplineSet
617 -6 m 1,0,1
 521 -18 521 -18 459 -18 c 0,2,3
 308 -18 308 -18 239.5 59 c 128,-1,4
 171 136 171 136 169 292 c 1,5,-1
 169 1088 l 1,6,-1
 41 1088 l 1,7,-1
 41 1280 l 1,8,-1
 169 1280 l 1,9,-1
 169 1728 l 1,10,-1
 425 1728 l 1,11,-1
 425 1280 l 1,12,-1
 617 1280 l 1,13,-1
 617 1088 l 1,14,-1
 425 1088 l 1,15,-1
 425 341 l 2,16,17
 425 264 425 264 446 228 c 128,-1,18
 467 192 467 192 531 192 c 0,19,20
 560 192 560 192 617 202 c 1,21,-1
 617 -6 l 1,0,1
EndSplineSet
EndChar

StartChar: u
Encoding: 117 117 88
Width: 992
Flags: HW
LayerCount: 2
Fore
SplineSet
619 138 m 1,0,1
 500 35 500 35 460 18 c 0,2,3
 374 -18 374 -18 291.5 -18 c 128,-1,4
 209 -18 209 -18 158 41.5 c 128,-1,5
 107 101 107 101 107 189 c 2,6,-1
 107 1280 l 1,7,-1
 363 1280 l 1,8,-1
 363 267 l 2,9,10
 363 227 363 227 387.5 202 c 128,-1,11
 412 177 412 177 442 177 c 128,-1,12
 472 177 472 177 492 182 c 128,-1,13
 512 187 512 187 531.5 199.5 c 128,-1,14
 551 212 551 212 562 219.5 c 128,-1,15
 573 227 573 227 593.5 245 c 128,-1,16
 614 263 614 263 619 267 c 1,17,-1
 619 1280 l 1,18,-1
 875 1280 l 1,19,-1
 875 0 l 1,20,-1
 619 0 l 1,21,-1
 619 138 l 1,0,1
EndSplineSet
EndChar

StartChar: v
Encoding: 118 118 89
Width: 864
Flags: HW
LayerCount: 2
Fore
SplineSet
304 0 m 1,0,-1
 16 1280 l 1,1,-1
 272 1280 l 1,2,-1
 432 320 l 1,3,-1
 592 1280 l 1,4,-1
 848 1280 l 1,5,-1
 562 0 l 1,6,-1
 304 0 l 1,0,-1
EndSplineSet
EndChar

StartChar: w
Encoding: 119 119 90
Width: 1269
Flags: HW
LayerCount: 2
Fore
SplineSet
635 882 m 1,0,-1
 497 0 l 1,1,-1
 251 0 l 1,2,-1
 14 1280 l 1,3,-1
 241 1280 l 1,4,-1
 383 308 l 1,5,-1
 517 1280 l 1,6,-1
 751 1280 l 1,7,-1
 887 318 l 1,8,-1
 1027 1280 l 1,9,-1
 1255 1280 l 1,10,-1
 1007 0 l 1,11,-1
 771 0 l 1,12,-1
 635 882 l 1,0,-1
EndSplineSet
EndChar

StartChar: x
Encoding: 120 120 91
Width: 838
Flags: HW
LayerCount: 2
Fore
SplineSet
259 640 m 1,0,-1
 259 704 l 1,1,-1
 3 1280 l 1,2,-1
 259 1280 l 1,3,-1
 411 777 l 1,4,-1
 579 1280 l 1,5,-1
 835 1280 l 1,6,-1
 579 704 l 1,7,-1
 579 640 l 1,8,-1
 835 0 l 1,9,-1
 579 0 l 1,10,-1
 427 503 l 1,11,-1
 259 0 l 1,12,-1
 3 0 l 1,13,-1
 259 640 l 1,0,-1
EndSplineSet
PairPos2: "'kern' Horizontal Kerning in Latin lookup 1 per glyph data 0" ecaron dx=0 dy=0 dh=-24 dv=0 dx=0 dy=0 dh=0 dv=0
PairPos2: "'kern' Horizontal Kerning in Latin lookup 1 per glyph data 0" ecaron dx=0 dy=0 dh=-24 dv=0 dx=0 dy=0 dh=0 dv=0
EndChar

StartChar: y
Encoding: 121 121 92
Width: 842
Flags: HW
LayerCount: 2
Fore
SplineSet
74 -128 m 1,0,1
 178 -128 178 -128 239 -82 c 128,-1,2
 300 -36 300 -36 300 58 c 1,3,-1
 10 1280 l 1,4,-1
 266 1280 l 1,5,6
 415 457 415 457 427 384 c 1,7,8
 461 602 461 602 514.5 890.5 c 128,-1,9
 568 1179 568 1179 586 1280 c 1,10,-1
 842 1280 l 1,11,-1
 522 -64 l 2,12,13
 489 -206 489 -206 379.5 -263 c 128,-1,14
 270 -320 270 -320 74 -320 c 1,15,-1
 74 -128 l 1,0,1
EndSplineSet
EndChar

StartChar: z
Encoding: 122 122 93
Width: 782
Flags: HW
LayerCount: 2
Fore
SplineSet
489 1088 m 1,0,-1
 105 1088 l 1,1,-1
 105 1280 l 1,2,-1
 745 1280 l 1,3,-1
 745 1088 l 1,4,-1
 297 192 l 1,5,-1
 745 192 l 1,6,-1
 745 0 l 1,7,-1
 41 0 l 1,8,-1
 41 192 l 1,9,-1
 489 1088 l 1,0,-1
EndSplineSet
EndChar

StartChar: braceleft
Encoding: 123 123 94
Width: 704
Flags: HW
LayerCount: 2
Fore
SplineSet
256 896 m 1,0,1
 448 813 448 813 448 512 c 0,2,3
 448 340 448 340 463 275 c 0,4,5
 496 128 496 128 640 128 c 1,6,-1
 640 -64 l 1,7,8
 377 -64 377 -64 281 87 c 0,9,10
 192 227 192 227 192 512 c 0,11,12
 192 525 192 525 192.5 554.5 c 128,-1,13
 193 584 193 584 192.5 595.5 c 128,-1,14
 192 607 192 607 191 632 c 128,-1,15
 190 657 190 657 188 667 c 128,-1,16
 186 677 186 677 181.5 695 c 128,-1,17
 177 713 177 713 170.5 721 c 128,-1,18
 164 729 164 729 154.5 740.5 c 128,-1,19
 145 752 145 752 132 756 c 0,20,21
 99 768 99 768 64 768 c 1,22,-1
 64 1024 l 1,23,24
 115 1024 115 1024 133.5 1047.5 c 128,-1,25
 152 1071 152 1071 162 1087 c 128,-1,26
 172 1103 172 1103 177.5 1132.5 c 128,-1,27
 183 1162 183 1162 186.5 1182 c 128,-1,28
 190 1202 190 1202 191 1238.5 c 128,-1,29
 192 1275 192 1275 192.5 1294.5 c 128,-1,30
 193 1314 193 1314 192.5 1353.5 c 128,-1,31
 192 1393 192 1393 192 1466 c 128,-1,32
 192 1539 192 1539 213.5 1622.5 c 128,-1,33
 235 1706 235 1706 288.5 1759.5 c 128,-1,34
 342 1813 342 1813 425.5 1834.5 c 128,-1,35
 509 1856 509 1856 640 1856 c 1,36,-1
 640 1664 l 1,37,38
 523 1664 523 1664 488 1621 c 0,39,40
 460 1587 460 1587 455 1548 c 0,41,42
 448 1494 448 1494 448 1408 c 0,43,44
 448 986 448 986 256 896 c 1,0,1
EndSplineSet
EndChar

StartChar: bar
Encoding: 124 124 95
Width: 384
Flags: HW
LayerCount: 2
Fore
SplineSet
128 1920 m 1,0,-1
 320 1920 l 1,1,-1
 320 -128 l 1,2,-1
 128 -128 l 1,3,-1
 128 1920 l 1,0,-1
EndSplineSet
EndChar

StartChar: braceright
Encoding: 125 125 96
Width: 704
Flags: HW
LayerCount: 2
Fore
SplineSet
512 1408 m 1,0,-1
 511 1295 l 1,1,2
 512 1140 512 1140 542 1088 c 0,3,4
 568 1042 568 1042 592 1033 c 128,-1,5
 616 1024 616 1024 640 1024 c 1,6,-1
 640 768 l 1,7,8
 577 768 577 768 556 747 c 128,-1,9
 535 726 535 726 526.5 706.5 c 0,10,11
 518 686 518 686 516 662 c 0,12,13
 511 617 511 617 511 580 c 0,14,15
 511 573 511 573 511 567 c 0,16,17
 512 525 512 525 512 460 c 128,-1,18
 512 395 512 395 500 309 c 128,-1,19
 488 223 488 223 458 150 c 0,20,21
 428 78 428 78 378 32 c 0,22,23
 272 -64 272 -64 64 -64 c 1,24,-1
 64 128 l 1,25,26
 126 128 126 128 151 144 c 128,-1,27
 176 160 176 160 190 171.5 c 128,-1,28
 204 183 204 183 214.5 204.5 c 128,-1,29
 225 226 225 226 232 242 c 128,-1,30
 239 258 239 258 243.5 287.5 c 128,-1,31
 248 317 248 317 250.5 336 c 128,-1,32
 253 355 253 355 254.5 391 c 0,33,34
 256 426 256 426 256 446 c 2,35,-1
 256 512 l 2,36,37
 256 815 256 815 448 896 c 1,38,39
 256 982 256 982 256 1408 c 0,40,41
 256 1523 256 1523 249.5 1548 c 128,-1,42
 243 1573 243 1573 236.5 1591 c 128,-1,43
 230 1609 230 1609 220 1619 c 128,-1,44
 210 1629 210 1629 196 1639 c 0,45,46
 182 1650 182 1650 162 1654 c 0,47,48
 116 1664 116 1664 64 1664 c 1,49,-1
 64 1856 l 1,50,51
 237 1856 237 1856 332.5 1814 c 128,-1,52
 428 1772 428 1772 470 1676.5 c 128,-1,53
 512 1581 512 1581 512 1408 c 1,0,-1
EndSplineSet
EndChar

StartChar: asciitilde
Encoding: 126 126 97
Width: 960
Flags: HW
LayerCount: 2
Fore
SplineSet
613 812 m 0,0,1
 565 812 565 812 514.5 834 c 128,-1,2
 464 856 464 856 417 877.5 c 128,-1,3
 370 899 370 899 329 899 c 0,4,5
 281 899 281 899 281 832 c 1,6,-1
 127 832 l 1,7,8
 127 948 127 948 184.5 1026.5 c 128,-1,9
 242 1105 242 1105 347 1105 c 0,10,11
 405 1105 405 1105 492 1062 c 128,-1,12
 579 1019 579 1019 629 1019 c 128,-1,13
 679 1019 679 1019 679 1088 c 1,14,-1
 833 1088 l 1,15,16
 833 969 833 969 776.5 890.5 c 128,-1,17
 720 812 720 812 613 812 c 0,0,1
EndSplineSet
EndChar

StartChar: exclamdown
Encoding: 161 161 98
Width: 384
Flags: HW
LayerCount: 2
Fore
SplineSet
64 1536 m 1,0,-1
 320 1536 l 1,1,-1
 320 1280 l 1,2,-1
 64 1280 l 1,3,-1
 64 1536 l 1,0,-1
128 1152 m 1,4,-1
 256 1152 l 1,5,-1
 256 0 l 1,6,-1
 64 0 l 1,7,-1
 128 1152 l 1,4,-1
EndSplineSet
EndChar

StartChar: cent
Encoding: 162 162 99
Width: 1027
Flags: HW
LayerCount: 2
Fore
SplineSet
385 640 m 2,0,-1
 383 488 l 1,1,2
 383 385 383 385 390.5 349.5 c 128,-1,3
 398 314 398 314 408 284 c 0,4,5
 427 227 427 227 479 206 c 1,6,-1
 479 1071 l 1,7,8
 430 1047 430 1047 415.5 1003.5 c 128,-1,9
 401 960 401 960 394.5 934 c 128,-1,10
 388 908 388 908 386 863 c 128,-1,11
 384 818 384 818 384 792 c 0,12,13
 384 784 384 784 383 772 c 0,14,15
 383 750 383 750 384 714 c 0,16,17
 385 660 385 660 385 640 c 2,0,-1
897 473 m 1,18,-1
 898 430 l 1,19,20
 898 239 898 239 811.5 122 c 128,-1,21
 725 5 725 5 557 -14 c 1,22,-1
 557 -128 l 1,23,-1
 479 -128 l 1,24,-1
 479 -15 l 1,25,26
 309 -2 309 -2 227 94 c 0,27,28
 154 179 154 179 136 353 c 0,29,30
 128 428 128 428 129 532 c 2,31,-1
 129 733 l 2,32,33
 129 936 129 936 161 1032 c 0,34,35
 194 1128 194 1128 232 1176 c 0,36,37
 316 1279 316 1279 479 1294 c 1,38,-1
 479 1408 l 1,39,-1
 557 1408 l 1,40,-1
 557 1294 l 1,41,42
 735 1274 735 1274 816 1157 c 128,-1,43
 897 1040 897 1040 897 831 c 1,44,-1
 641 832 l 1,45,46
 641 933 641 933 625 991 c 128,-1,47
 609 1049 609 1049 557 1073 c 1,48,-1
 557 207 l 1,49,50
 624 240 624 240 635 340 c 0,51,52
 641 394 641 394 641 473 c 1,53,-1
 897 473 l 1,18,-1
EndSplineSet
EndChar

StartChar: sterling
Encoding: 163 163 100
Width: 896
Flags: HW
LayerCount: 2
Fore
SplineSet
640 1344 m 1,0,1
 640 1530 640 1530 581 1578 c 0,2,3
 554 1600 554 1600 516.5 1600 c 128,-1,4
 479 1600 479 1600 455 1582.5 c 128,-1,5
 431 1565 431 1565 418.5 1540 c 128,-1,6
 406 1515 406 1515 398 1475 c 0,7,8
 386 1415 386 1415 384 1330 c 1,9,-1
 384 960 l 1,10,-1
 640 960 l 1,11,-1
 640 768 l 1,12,-1
 384 768 l 1,13,-1
 384 192 l 1,14,-1
 832 192 l 1,15,-1
 832 0 l 1,16,-1
 0 0 l 1,17,-1
 0 128 l 1,18,-1
 128 191 l 1,19,-1
 128 768 l 1,20,-1
 0 768 l 1,21,-1
 0 960 l 1,22,-1
 128 960 l 1,23,-1
 128 1152 l 2,24,25
 128 1426 128 1426 170 1557 c 0,26,27
 209 1680 209 1680 284 1740 c 0,28,29
 372 1810 372 1810 524.5 1810 c 128,-1,30
 677 1810 677 1810 753.5 1706 c 128,-1,31
 830 1602 830 1602 832 1422 c 1,32,-1
 832 1344 l 1,33,-1
 640 1344 l 1,0,1
EndSplineSet
EndChar

StartChar: currency
Encoding: 164 164 101
Width: 1024
Flags: HW
LayerCount: 2
Fore
SplineSet
320 897 m 128,-1,1
 320 801 320 801 370.5 741.5 c 128,-1,2
 421 682 421 682 512 682 c 128,-1,3
 603 682 603 682 653.5 741 c 128,-1,4
 704 800 704 800 704 896 c 128,-1,5
 704 992 704 992 653.5 1051 c 128,-1,6
 603 1110 603 1110 511.5 1110 c 128,-1,7
 420 1110 420 1110 370 1051.5 c 128,-1,0
 320 993 320 993 320 897 c 128,-1,1
281 1217 m 1,8,9
 378 1280 378 1280 512 1280 c 128,-1,10
 646 1280 646 1280 743 1217 c 1,11,-1
 829 1303 l 1,12,-1
 919 1213 l 1,13,-1
 832 1126 l 1,14,15
 896 1028 896 1028 896 896.5 c 128,-1,16
 896 765 896 765 832 665 c 1,17,-1
 919 579 l 1,18,-1
 829 489 l 1,19,-1
 743 575 l 1,20,21
 646 512 646 512 512 512 c 128,-1,22
 378 512 378 512 281 575 c 1,23,-1
 195 489 l 1,24,-1
 105 579 l 1,25,-1
 191 665 l 1,26,27
 128 761 128 761 128 895.5 c 128,-1,28
 128 1030 128 1030 191 1127 c 1,29,-1
 105 1213 l 1,30,-1
 195 1303 l 1,31,-1
 281 1217 l 1,8,9
EndSplineSet
EndChar

StartChar: yen
Encoding: 165 165 102
Width: 1024
Flags: HW
LayerCount: 2
Fore
SplineSet
384 0 m 1,0,-1
 384 256 l 1,1,-1
 192 256 l 1,2,-1
 192 424 l 1,3,-1
 384 424 l 1,4,-1
 384 553 l 1,5,-1
 192 553 l 1,6,-1
 192 719 l 1,7,-1
 341 719 l 1,8,-1
 48 1792 l 1,9,-1
 308 1792 l 1,10,-1
 512 848 l 1,11,-1
 714 1792 l 1,12,-1
 974 1792 l 1,13,-1
 679 719 l 1,14,-1
 832 719 l 1,15,-1
 832 553 l 1,16,-1
 640 553 l 1,17,-1
 640 424 l 1,18,-1
 832 424 l 1,19,-1
 832 256 l 1,20,-1
 640 256 l 1,21,-1
 640 0 l 1,22,-1
 384 0 l 1,0,-1
EndSplineSet
EndChar

StartChar: brokenbar
Encoding: 166 166 103
Width: 395
Flags: HW
LayerCount: 2
Fore
SplineSet
94 1518 m 1,0,-1
 297 1518 l 1,1,-1
 297 889 l 1,2,-1
 94 889 l 1,3,-1
 94 1518 l 1,0,-1
94 614 m 1,4,-1
 297 614 l 1,5,-1
 297 -14 l 1,6,-1
 94 -14 l 1,7,-1
 94 614 l 1,4,-1
EndSplineSet
EndChar

StartChar: section
Encoding: 167 167 104
Width: 960
Flags: HW
LayerCount: 2
Fore
SplineSet
512 754 m 1,0,1
 608 799 608 799 608 882 c 0,2,3
 608 932 608 932 574.5 966 c 128,-1,4
 541 1000 541 1000 528 1012 c 128,-1,5
 515 1024 515 1024 482.5 1048.5 c 128,-1,6
 450 1073 450 1073 448 1074 c 1,7,8
 352 1017 352 1017 352 925 c 0,9,10
 352 891 352 891 371 862 c 128,-1,11
 390 833 390 833 416 817 c 2,12,-1
 512 754 l 1,0,1
672 1408 m 1,13,14
 622 1544 622 1544 551 1582 c 0,15,16
 519 1600 519 1600 469 1600 c 128,-1,17
 419 1600 419 1600 385.5 1566.5 c 128,-1,18
 352 1533 352 1533 352 1472.5 c 128,-1,19
 352 1412 352 1412 416 1364 c 1,20,21
 432 1355 432 1355 475 1332 c 128,-1,22
 518 1309 518 1309 546 1293 c 128,-1,23
 574 1277 574 1277 623.5 1246 c 128,-1,24
 673 1215 673 1215 700.5 1191.5 c 128,-1,25
 728 1168 728 1168 763.5 1131 c 128,-1,26
 799 1094 799 1094 818 1059 c 0,27,28
 864 974 864 974 864 882 c 0,29,30
 864 687 864 687 706 596 c 1,31,32
 779 537 779 537 821.5 473 c 128,-1,33
 864 409 864 409 864 321 c 0,34,35
 864 157 864 157 759.5 70 c 128,-1,36
 655 -17 655 -17 480 -17 c 0,37,38
 250 -16 250 -16 143 192 c 0,39,40
 113 250 113 250 96 321 c 1,41,-1
 288 385 l 1,42,43
 357 193 357 193 480 193 c 0,44,45
 541 193 541 193 574.5 226.5 c 128,-1,46
 608 260 608 260 608 315 c 0,47,48
 608 431 608 431 544 469 c 1,49,-1
 288 625 l 2,50,51
 228 661 228 661 190 696 c 0,52,53
 96 781 96 781 96 908 c 0,54,55
 96 1143 96 1143 282 1226 c 1,56,57
 142 1308 142 1308 111 1386 c 0,58,59
 96 1424 96 1424 96 1472 c 0,60,61
 96 1636 96 1636 200.5 1723 c 128,-1,62
 305 1810 305 1810 480 1810 c 0,63,64
 714 1810 714 1810 818 1602 c 0,65,66
 848 1543 848 1543 864 1472 c 1,67,-1
 672 1408 l 1,13,14
EndSplineSet
EndChar

StartChar: dieresis
Encoding: 168 168 105
Width: 896
Flags: HW
LayerCount: 2
Fore
SplineSet
512 1792 m 1,0,-1
 768 1792 l 1,1,-1
 768 1536 l 1,2,-1
 512 1536 l 1,3,-1
 512 1792 l 1,0,-1
128 1792 m 1,4,-1
 384 1792 l 1,5,-1
 384 1536 l 1,6,-1
 128 1536 l 1,7,-1
 128 1792 l 1,4,-1
EndSplineSet
EndChar

StartChar: copyright
Encoding: 169 169 106
Width: 1528
Flags: HW
LayerCount: 2
Fore
SplineSet
122 418 m 128,-1,1
 70 550 70 550 70 726 c 128,-1,2
 70 902 70 902 158 1065 c 128,-1,3
 246 1228 246 1228 405 1321.5 c 128,-1,4
 564 1415 564 1415 739 1415 c 128,-1,5
 914 1415 914 1415 1043.5 1360 c 128,-1,6
 1173 1305 1173 1305 1263.5 1210 c 128,-1,7
 1354 1115 1354 1115 1406 982.5 c 128,-1,8
 1458 850 1458 850 1458 674.5 c 128,-1,9
 1458 499 1458 499 1369.5 336 c 128,-1,10
 1281 173 1281 173 1122 79.5 c 128,-1,11
 963 -14 963 -14 788.5 -14 c 128,-1,12
 614 -14 614 -14 484.5 41 c 128,-1,13
 355 96 355 96 264.5 191 c 128,-1,0
 174 286 174 286 122 418 c 128,-1,1
977 1216 m 128,-1,15
 879 1260 879 1260 745 1260 c 128,-1,16
 611 1260 611 1260 490.5 1184.5 c 128,-1,17
 370 1109 370 1109 306 981 c 128,-1,18
 242 853 242 853 242 697 c 128,-1,19
 242 541 242 541 307 412.5 c 128,-1,20
 372 284 372 284 492 208.5 c 128,-1,21
 612 133 612 133 764 133 c 128,-1,22
 916 133 916 133 1036 208.5 c 128,-1,23
 1156 284 1156 284 1221 412 c 128,-1,24
 1286 540 1286 540 1286 676.5 c 128,-1,25
 1286 813 1286 813 1248 917 c 128,-1,26
 1210 1021 1210 1021 1142.5 1096.5 c 128,-1,14
 1075 1172 1075 1172 977 1216 c 128,-1,15
654 824 m 2,27,-1
 655 721 l 2,28,29
 655 683 655 683 654 639 c 0,30,31
 653 610 653 610 653 586 c 0,32,33
 654 574 654 574 654 564 c 0,34,35
 654 534 654 534 656.5 512.5 c 128,-1,36
 659 491 659 491 664 466 c 128,-1,37
 669 441 669 441 677.5 424.5 c 128,-1,38
 686 408 686 408 698 394 c 0,39,40
 722 366 722 366 762.5 365.5 c 128,-1,41
 803 365 803 365 826 383 c 0,42,43
 848 402 848 402 858 436 c 0,44,45
 874 492 874 492 874 578 c 1,46,-1
 1053 578 l 1,47,-1
 1053 562 l 2,48,49
 1053 406 1053 406 982.5 311.5 c 128,-1,50
 912 217 912 217 768 217 c 0,51,52
 598 217 598 217 536 330 c 0,53,54
 495 404 495 404 487 482 c 0,55,56
 475 586 475 586 475 698 c 128,-1,57
 475 810 475 810 481 872 c 128,-1,58
 487 934 487 934 505 995.5 c 128,-1,59
 523 1057 523 1057 555 1095 c 0,60,61
 627 1180 627 1180 774 1180 c 0,62,63
 1055 1180 1055 1180 1055 840 c 1,64,-1
 872 840 l 1,65,66
 872 984 872 984 828 1020 c 0,67,68
 808 1036 808 1036 780.5 1036 c 128,-1,69
 753 1036 753 1036 734.5 1031 c 128,-1,70
 716 1026 716 1026 703 1014 c 128,-1,71
 690 1002 690 1002 681 989.5 c 128,-1,72
 672 977 672 977 666.5 955.5 c 128,-1,73
 661 934 661 934 658 917 c 0,74,75
 654 895 654 895 654 824 c 2,27,-1
EndSplineSet
EndChar

StartChar: ordfeminine
Encoding: 170 170 107
Width: 842
Flags: HW
LayerCount: 2
Fore
SplineSet
485 408 m 1,0,1
 390 357 390 357 361 332 c 1,2,3
 303 285 303 285 303 237 c 0,4,5
 303 144 303 144 374 144 c 0,6,7
 410 144 410 144 440 166 c 128,-1,8
 470 188 470 188 485 219 c 1,9,-1
 485 408 l 1,0,1
141 568 m 1,10,11
 143 702 143 702 214 782.5 c 128,-1,12
 285 863 285 863 413 863 c 0,13,14
 570 864 570 864 626 772 c 0,15,16
 678 688 678 688 678 521 c 2,17,-1
 678 0 l 1,18,-1
 501 0 l 1,19,-1
 501 111 l 1,20,21
 472 58 472 58 418.5 24 c 128,-1,22
 365 -10 365 -10 291.5 -10 c 128,-1,23
 218 -10 218 -10 163 45 c 128,-1,24
 108 100 108 100 108 175.5 c 128,-1,25
 108 251 108 251 134.5 300.5 c 128,-1,26
 161 350 161 350 224.5 385 c 128,-1,27
 288 420 288 420 325.5 434.5 c 128,-1,28
 363 449 363 449 418.5 465.5 c 128,-1,29
 474 482 474 482 485 486 c 1,30,-1
 485 580 l 2,31,32
 485 719 485 719 409 719 c 0,33,34
 319 719 319 719 319 568 c 1,35,-1
 141 568 l 1,10,11
EndSplineSet
EndChar

StartChar: guillemotleft
Encoding: 171 171 108
Width: 1024
Flags: HW
LayerCount: 2
Fore
SplineSet
512 704 m 1,0,-1
 960 1216 l 1,1,-1
 960 896 l 1,2,-1
 704 641 l 1,3,-1
 960 384 l 1,4,-1
 960 64 l 1,5,-1
 512 576 l 1,6,-1
 512 704 l 1,0,-1
64 704 m 1,7,-1
 512 1216 l 1,8,-1
 512 896 l 1,9,-1
 256 641 l 1,10,-1
 512 384 l 1,11,-1
 512 64 l 1,12,-1
 64 576 l 1,13,-1
 64 704 l 1,7,-1
EndSplineSet
EndChar

StartChar: logicalnot
Encoding: 172 172 109
Width: 768
Flags: HW
LayerCount: 2
Fore
SplineSet
128 640 m 1,0,-1
 640 640 l 1,1,-1
 640 256 l 1,2,-1
 512 256 l 1,3,-1
 512 448 l 1,4,-1
 128 448 l 1,5,-1
 128 640 l 1,0,-1
EndSplineSet
EndChar

StartChar: uni00AD
Encoding: 173 173 110
Width: 768
Flags: HW
LayerCount: 2
Fore
SplineSet
128 640 m 1,0,-1
 640 640 l 1,1,-1
 640 448 l 1,2,-1
 128 448 l 1,3,-1
 128 640 l 1,0,-1
EndSplineSet
EndChar

StartChar: registered
Encoding: 174 174 111
Width: 1528
Flags: HW
LayerCount: 2
Fore
SplineSet
705 729 m 2,0,1
 798 729 798 729 832 764.5 c 128,-1,2
 866 800 866 800 866 886 c 128,-1,3
 866 972 866 972 837.5 1010.5 c 128,-1,4
 809 1049 809 1049 743 1049 c 2,5,-1
 672 1049 l 1,6,-1
 672 729 l 1,7,-1
 705 729 l 2,0,1
1049 248 m 1,8,-1
 881 248 l 1,9,-1
 754 633 l 1,10,-1
 672 633 l 1,11,-1
 672 248 l 1,12,-1
 516 248 l 1,13,-1
 516 1167 l 1,14,-1
 756 1167 l 2,15,16
 1026 1167 1026 1167 1026 893 c 0,17,18
 1026 738 1026 738 901 670 c 1,19,-1
 1049 248 l 1,8,-1
122 418 m 128,-1,21
 70 550 70 550 70 726 c 128,-1,22
 70 902 70 902 158 1065 c 128,-1,23
 246 1228 246 1228 405 1321.5 c 128,-1,24
 564 1415 564 1415 739 1415 c 128,-1,25
 914 1415 914 1415 1043.5 1360 c 128,-1,26
 1173 1305 1173 1305 1263.5 1210 c 128,-1,27
 1354 1115 1354 1115 1406 982.5 c 128,-1,28
 1458 850 1458 850 1458 674.5 c 128,-1,29
 1458 499 1458 499 1369.5 336 c 128,-1,30
 1281 173 1281 173 1122 79.5 c 128,-1,31
 963 -14 963 -14 788.5 -14 c 128,-1,32
 614 -14 614 -14 484.5 41 c 128,-1,33
 355 96 355 96 264.5 191 c 128,-1,20
 174 286 174 286 122 418 c 128,-1,21
977 1216 m 128,-1,35
 879 1260 879 1260 745 1260 c 128,-1,36
 611 1260 611 1260 490.5 1184.5 c 128,-1,37
 370 1109 370 1109 306 981 c 128,-1,38
 242 853 242 853 242 697 c 128,-1,39
 242 541 242 541 307 412.5 c 128,-1,40
 372 284 372 284 492 208.5 c 128,-1,41
 612 133 612 133 764 133 c 128,-1,42
 916 133 916 133 1036 208.5 c 128,-1,43
 1156 284 1156 284 1221 412 c 128,-1,44
 1286 540 1286 540 1286 676.5 c 128,-1,45
 1286 813 1286 813 1248 917 c 128,-1,46
 1210 1021 1210 1021 1142.5 1096.5 c 128,-1,34
 1075 1172 1075 1172 977 1216 c 128,-1,35
EndSplineSet
EndChar

StartChar: macron
Encoding: 175 175 112
Width: 640
Flags: HW
LayerCount: 2
Fore
SplineSet
123 1559 m 1,0,-1
 557 1559 l 1,1,-1
 557 1407 l 1,2,-1
 123 1407 l 1,3,-1
 123 1559 l 1,0,-1
EndSplineSet
EndChar

StartChar: degree
Encoding: 176 176 113
Width: 1024
Flags: HW
LayerCount: 2
Fore
SplineSet
320 1427 m 128,-1,1
 320 1331 320 1331 370.5 1271.5 c 128,-1,2
 421 1212 421 1212 512 1212 c 128,-1,3
 603 1212 603 1212 653.5 1271 c 128,-1,4
 704 1330 704 1330 704 1426 c 128,-1,5
 704 1522 704 1522 653.5 1581 c 128,-1,6
 603 1640 603 1640 511.5 1640 c 128,-1,7
 420 1640 420 1640 370 1581.5 c 128,-1,0
 320 1523 320 1523 320 1427 c 128,-1,1
512 1810 m 128,-1,9
 692 1810 692 1810 794 1707.5 c 128,-1,10
 896 1605 896 1605 896 1426.5 c 128,-1,11
 896 1248 896 1248 794 1145 c 128,-1,12
 692 1042 692 1042 512 1042 c 128,-1,13
 332 1042 332 1042 230 1145 c 128,-1,14
 128 1248 128 1248 128 1426.5 c 128,-1,15
 128 1605 128 1605 230 1707.5 c 128,-1,8
 332 1810 332 1810 512 1810 c 128,-1,9
EndSplineSet
EndChar

StartChar: plusminus
Encoding: 177 177 114
Width: 832
Flags: HW
LayerCount: 2
Fore
SplineSet
320 384 m 1,0,-1
 320 576 l 1,1,-1
 128 576 l 1,2,-1
 128 768 l 1,3,-1
 320 768 l 1,4,-1
 320 960 l 1,5,-1
 512 960 l 1,6,-1
 512 768 l 1,7,-1
 704 768 l 1,8,-1
 704 576 l 1,9,-1
 512 576 l 1,10,-1
 512 384 l 1,11,-1
 320 384 l 1,0,-1
128 192 m 1,12,-1
 704 192 l 1,13,-1
 704 0 l 1,14,-1
 128 0 l 1,15,-1
 128 192 l 1,12,-1
EndSplineSet
EndChar

StartChar: uni00B2
Encoding: 178 178 115
Width: 640
Flags: HW
LayerCount: 2
Fore
SplineSet
576 1216 m 0,0,1
 576 1145 576 1145 538.5 1067.5 c 128,-1,2
 501 990 501 990 457 937 c 128,-1,3
 413 884 413 884 347.5 811.5 c 128,-1,4
 282 739 282 739 256 704 c 1,5,-1
 576 704 l 1,6,-1
 576 576 l 1,7,-1
 64 576 l 1,8,-1
 64 704 l 1,9,-1
 256 960 l 1,10,11
 348 1078 348 1078 359 1107 c 0,12,13
 384 1170 384 1170 384 1203.5 c 128,-1,14
 384 1237 384 1237 383.5 1248 c 128,-1,15
 383 1259 383 1259 381.5 1277 c 128,-1,16
 380 1295 380 1295 376 1304.5 c 128,-1,17
 372 1314 372 1314 365 1324.5 c 128,-1,18
 358 1335 358 1335 347 1339.5 c 128,-1,19
 336 1344 336 1344 320 1344 c 128,-1,20
 304 1344 304 1344 293 1339.5 c 128,-1,21
 282 1335 282 1335 275 1324.5 c 128,-1,22
 268 1314 268 1314 264 1304.5 c 128,-1,23
 260 1295 260 1295 258 1277 c 0,24,25
 256 1247 256 1247 256 1216 c 1,26,-1
 64 1216 l 1,27,28
 64 1337 64 1337 130.5 1404.5 c 128,-1,29
 197 1472 197 1472 320 1472 c 128,-1,30
 443 1472 443 1472 509.5 1404.5 c 128,-1,31
 576 1337 576 1337 576 1216 c 0,0,1
EndSplineSet
EndChar

StartChar: uni00B3
Encoding: 179 179 116
Width: 768
Flags: HW
LayerCount: 2
Fore
SplineSet
320 1152 m 1,0,1
 393 1152 393 1152 420.5 1180 c 128,-1,2
 448 1208 448 1208 448 1280 c 0,3,4
 448 1350 448 1350 442 1364 c 128,-1,5
 436 1378 436 1378 429 1388.5 c 128,-1,6
 422 1399 422 1399 411 1403.5 c 128,-1,7
 400 1408 400 1408 384 1408 c 128,-1,8
 368 1408 368 1408 357 1403.5 c 128,-1,9
 346 1399 346 1399 339 1388.5 c 128,-1,10
 332 1378 332 1378 328 1368.5 c 128,-1,11
 324 1359 324 1359 322 1341 c 0,12,13
 320 1311 320 1311 320 1280 c 1,14,-1
 128 1280 l 1,15,16
 128 1401 128 1401 194.5 1468.5 c 128,-1,17
 261 1536 261 1536 384 1536 c 128,-1,18
 507 1536 507 1536 573.5 1468.5 c 128,-1,19
 640 1401 640 1401 640 1295 c 128,-1,20
 640 1189 640 1189 588.5 1140 c 128,-1,21
 537 1091 537 1091 448 1088 c 1,22,23
 538 1082 538 1082 589 1035 c 128,-1,24
 640 988 640 988 640 881.5 c 128,-1,25
 640 775 640 775 573.5 707.5 c 128,-1,26
 507 640 507 640 384 640 c 128,-1,27
 261 640 261 640 194.5 707 c 128,-1,28
 128 774 128 774 128 896 c 1,29,-1
 320 896 l 1,30,31
 320 826 320 826 326 812 c 128,-1,32
 332 798 332 798 339 787.5 c 128,-1,33
 346 777 346 777 357 772.5 c 128,-1,34
 368 768 368 768 384 768 c 128,-1,35
 400 768 400 768 411 772.5 c 128,-1,36
 422 777 422 777 429 787.5 c 128,-1,37
 436 798 436 798 440 807.5 c 128,-1,38
 444 817 444 817 446 835 c 0,39,40
 448 865 448 865 448 916 c 128,-1,41
 448 967 448 967 420 995.5 c 128,-1,42
 392 1024 392 1024 320 1024 c 1,43,-1
 320 1152 l 1,0,1
EndSplineSet
EndChar

StartChar: acute
Encoding: 180 180 117
Width: 640
Flags: HW
LayerCount: 2
Fore
SplineSet
256 1408 m 1,0,-1
 128 1408 l 1,1,-1
 256 1792 l 1,2,-1
 512 1792 l 1,3,-1
 256 1408 l 1,0,-1
EndSplineSet
EndChar

StartChar: paragraph
Encoding: 182 182 118
Width: 952
Flags: HW
LayerCount: 2
Fore
SplineSet
382 876 m 1,0,1
 218 876 218 876 117 962 c 128,-1,2
 16 1048 16 1048 16 1210.5 c 128,-1,3
 16 1373 16 1373 123 1454.5 c 128,-1,4
 230 1536 230 1536 423 1536 c 2,5,-1
 896 1536 l 1,6,-1
 896 0 l 1,7,-1
 718 0 l 1,8,-1
 718 876 l 1,9,-1
 579 876 l 1,10,-1
 579 0 l 1,11,-1
 382 0 l 1,12,-1
 382 876 l 1,0,1
EndSplineSet
EndChar

StartChar: cedilla
Encoding: 184 184 120
Width: 576
Flags: HW
LayerCount: 2
Fore
SplineSet
64 -384 m 1,0,-1
 172 -386 l 1,1,2
 240 -386 240 -386 280 -372.5 c 128,-1,3
 320 -359 320 -359 320 -320 c 0,4,5
 320 -292 320 -292 298 -274.5 c 128,-1,6
 276 -257 276 -257 261.5 -248 c 128,-1,7
 247 -239 247 -239 225 -229.5 c 128,-1,8
 203 -220 203 -220 190 -214.5 c 128,-1,9
 177 -209 177 -209 155 -201.5 c 128,-1,10
 133 -194 133 -194 128 -192 c 1,11,-1
 128 0 l 1,12,-1
 256 0 l 1,13,-1
 256 -128 l 1,14,15
 435 -178 435 -178 487 -246 c 0,16,17
 512 -279 512 -279 512 -318.5 c 128,-1,18
 512 -358 512 -358 501 -387.5 c 128,-1,19
 490 -417 490 -417 472.5 -437 c 128,-1,20
 455 -457 455 -457 426.5 -471 c 128,-1,21
 398 -485 398 -485 370 -493 c 0,22,23
 342 -502 342 -502 301 -506 c 0,24,25
 242 -512 242 -512 149 -512 c 2,26,-1
 64 -512 l 1,27,-1
 64 -384 l 1,0,-1
EndSplineSet
EndChar

StartChar: uni00B9
Encoding: 185 185 121
Width: 512
Flags: HW
LayerCount: 2
Fore
SplineSet
64 1344 m 1,0,1
 232 1427 232 1427 320 1536 c 1,2,-1
 384 1536 l 1,3,-1
 384 640 l 1,4,-1
 192 640 l 1,5,-1
 192 1216 l 1,6,-1
 64 1216 l 1,7,-1
 64 1344 l 1,0,1
EndSplineSet
EndChar

StartChar: ordmasculine
Encoding: 186 186 122
Width: 899
Flags: HW
LayerCount: 2
Fore
SplineSet
574 688 m 2,0,1
 574 820 574 820 562 865 c 0,2,3
 538 952 538 952 445 952 c 0,4,5
 366 952 366 952 338 891 c 0,6,7
 315 840 315 840 313.5 782.5 c 128,-1,8
 312 725 312 725 312 688 c 2,9,-1
 312 451 l 2,10,11
 312 307 312 307 325.5 276 c 0,12,13
 339 244 339 244 353 224 c 0,14,15
 379 186 379 186 445 186 c 0,16,17
 489 186 489 186 505 197.5 c 128,-1,18
 521 209 521 209 530.5 216.5 c 128,-1,19
 540 224 540 224 547 240 c 128,-1,20
 554 256 554 256 558.5 266 c 128,-1,21
 563 276 563 276 566 298.5 c 128,-1,22
 569 321 569 321 571 332 c 128,-1,23
 573 343 573 343 573.5 370.5 c 128,-1,24
 574 398 574 398 574 409 c 2,25,-1
 574 688 l 2,0,1
715 99 m 128,-1,27
 630 -14 630 -14 445.5 -14 c 128,-1,28
 261 -14 261 -14 180 94 c 128,-1,29
 99 202 99 202 99 410 c 2,30,-1
 99 729 l 2,31,32
 99 937 99 937 180 1045 c 128,-1,33
 261 1153 261 1153 445.5 1153 c 128,-1,34
 630 1153 630 1153 715 1040 c 128,-1,35
 800 927 800 927 800 729 c 2,36,-1
 800 410 l 2,37,26
 800 212 800 212 715 99 c 128,-1,27
EndSplineSet
EndChar

StartChar: guillemotright
Encoding: 187 187 123
Width: 1024
Flags: HW
LayerCount: 2
Fore
SplineSet
512 576 m 1,0,-1
 64 64 l 1,1,-1
 64 384 l 1,2,-1
 320 641 l 1,3,-1
 64 896 l 1,4,-1
 64 1216 l 1,5,-1
 512 704 l 1,6,-1
 512 576 l 1,0,-1
960 576 m 1,7,-1
 512 64 l 1,8,-1
 512 384 l 1,9,-1
 768 641 l 1,10,-1
 512 896 l 1,11,-1
 512 1216 l 1,12,-1
 960 704 l 1,13,-1
 960 576 l 1,7,-1
EndSplineSet
EndChar

StartChar: questiondown
Encoding: 191 191 127
Width: 891
Flags: HW
LayerCount: 2
Fore
SplineSet
564 1106 m 1,0,-1
 343 1106 l 1,1,-1
 343 1329 l 1,2,-1
 564 1329 l 1,3,-1
 564 1106 l 1,0,-1
80 346 m 0,4,5
 80 468 80 468 154 580 c 0,6,7
 206 659 206 659 247.5 704.5 c 128,-1,8
 289 750 289 750 299.5 761.5 c 128,-1,9
 310 773 310 773 349 812 c 1,10,-1
 349 1029 l 1,11,-1
 565 1029 l 1,12,-1
 565 760 l 1,13,14
 553 745 553 745 510 694.5 c 128,-1,15
 467 644 467 644 441.5 610 c 128,-1,16
 416 576 416 576 384 526 c 0,17,18
 318 424 318 424 318 328 c 0,19,20
 318 202 318 202 430 202 c 0,21,22
 514 202 514 202 544 269 c 0,23,24
 570 327 570 327 571 421 c 1,25,-1
 790 421 l 1,26,-1
 790 396 l 2,27,28
 790 210 790 210 698.5 102.5 c 128,-1,29
 607 -5 607 -5 430 -5 c 0,30,31
 80 -5 80 -5 80 346 c 0,4,5
EndSplineSet
EndChar

StartChar: AE
Encoding: 198 198 134
Width: 1408
Flags: HW
LayerCount: 2
Fore
SplineSet
640 640 m 1,0,-1
 640 1298 l 1,1,-1
 393 640 l 1,2,-1
 640 640 l 1,0,-1
1216 832 m 1,3,-1
 896 832 l 1,4,-1
 896 192 l 1,5,-1
 1344 192 l 1,6,-1
 1344 0 l 1,7,-1
 640 0 l 1,8,-1
 640 448 l 1,9,-1
 320 448 l 1,10,-1
 129 0 l 1,11,-1
 -126 0 l 1,12,-1
 638 1792 l 1,13,-1
 1344 1792 l 1,14,-1
 1344 1600 l 1,15,-1
 896 1600 l 1,16,-1
 896 1024 l 1,17,-1
 1216 1024 l 1,18,-1
 1216 832 l 1,3,-1
EndSplineSet
EndChar

StartChar: Eth
Encoding: 208 208 144
Width: 1152
Flags: HW
LayerCount: 2
Fore
SplineSet
768 1216 m 2,0,1
 768 1374 768 1374 760 1411 c 128,-1,2
 752 1448 752 1448 743 1476.5 c 128,-1,3
 734 1505 734 1505 720.5 1521 c 128,-1,4
 707 1537 707 1537 687.5 1554.5 c 128,-1,5
 668 1572 668 1572 642 1580 c 0,6,7
 584 1600 584 1600 507 1600 c 2,8,-1
 384 1600 l 1,9,-1
 384 1004 l 1,10,-1
 528 1004 l 1,11,-1
 528 852 l 1,12,-1
 384 852 l 1,13,-1
 384 192 l 1,14,-1
 512 192 l 2,15,16
 658 192 658 192 714 266 c 0,17,18
 762 330 762 330 766 465 c 0,19,20
 769 546 769 546 769 576 c 0,21,22
 769 581 769 581 769 585 c 0,23,24
 768 609 768 609 768 614 c 2,25,-1
 768 1216 l 2,0,1
1024 576 m 2,26,27
 1024 281 1024 281 906.5 140.5 c 128,-1,28
 789 0 789 0 510 0 c 2,29,-1
 128 0 l 1,30,-1
 128 852 l 1,31,-1
 34 852 l 1,32,-1
 34 1004 l 1,33,-1
 128 1004 l 1,34,-1
 128 1792 l 1,35,-1
 512 1792 l 2,36,37
 793 1792 793 1792 908.5 1677 c 128,-1,38
 1024 1562 1024 1562 1024 1280 c 2,39,-1
 1024 576 l 2,26,27
EndSplineSet
EndChar

StartChar: multiply
Encoding: 215 215 151
Width: 768
Flags: HW
LayerCount: 2
Fore
SplineSet
384 512 m 1,0,-1
 192 320 l 1,1,-1
 64 448 l 1,2,-1
 256 640 l 1,3,-1
 64 832 l 1,4,-1
 192 960 l 1,5,-1
 384 768 l 1,6,-1
 576 960 l 1,7,-1
 704 832 l 1,8,-1
 512 640 l 1,9,-1
 704 448 l 1,10,-1
 576 320 l 1,11,-1
 384 512 l 1,0,-1
EndSplineSet
EndChar

StartChar: Oslash
Encoding: 216 216 152
Width: 1180
Flags: HW
LayerCount: 2
Fore
SplineSet
799 1484 m 1,0,-1
 463 219 l 1,1,2
 514 192 514 192 590 192 c 0,3,4
 725 192 725 192 776.5 273 c 128,-1,5
 828 354 828 354 828 512 c 2,6,-1
 828 1290 l 2,7,8
 828 1414 828 1414 799 1484 c 1,0,-1
723 1571 m 1,9,10
 673 1600 673 1600 590 1600 c 0,11,12
 454 1600 454 1600 403 1523 c 128,-1,13
 352 1446 352 1446 352 1290 c 2,14,-1
 352 512 l 2,15,16
 352 374 352 374 387 301 c 1,17,-1
 723 1571 l 1,9,10
319 43 m 1,18,19
 96 169 96 169 96 576 c 2,20,-1
 96 1226 l 2,21,22
 96 1665 96 1665 358 1771 c 0,23,24
 454 1810 454 1810 575 1810 c 128,-1,25
 696 1810 696 1810 779 1785 c 1,26,-1
 821 1944 l 1,27,-1
 914 1920 l 1,28,-1
 868 1746 l 1,29,30
 1084 1620 1084 1620 1084 1226 c 2,31,-1
 1084 576 l 2,32,33
 1084 138 1084 138 820 24 c 0,34,35
 724 -18 724 -18 605.5 -18 c 128,-1,36
 487 -18 487 -18 407 6 c 1,37,-1
 364 -156 l 1,38,-1
 274 -128 l 1,39,-1
 319 43 l 1,18,19
EndSplineSet
EndChar

StartChar: Thorn
Encoding: 222 222 158
Width: 952
Flags: HW
LayerCount: 2
Fore
SplineSet
369 581 m 2,0,1
 524 581 524 581 596.5 646.5 c 128,-1,2
 669 712 669 712 669 882 c 128,-1,3
 669 1052 669 1052 605.5 1120 c 128,-1,4
 542 1188 542 1188 401 1188 c 2,5,-1
 324 1188 l 1,6,-1
 324 581 l 1,7,-1
 369 581 l 2,0,1
931 886 m 0,8,9
 931 364 931 364 457 364 c 2,10,-1
 326 364 l 1,11,-1
 326 0 l 1,12,-1
 72 0 l 1,13,-1
 72 1792 l 1,14,-1
 324 1792 l 1,15,-1
 324 1411 l 1,16,-1
 504 1411 l 2,17,18
 720 1411 720 1411 825.5 1273.5 c 128,-1,19
 931 1136 931 1136 931 886 c 0,8,9
EndSplineSet
EndChar

StartChar: germandbls
Encoding: 223 223 159
Width: 1152
Flags: HW
LayerCount: 2
Fore
SplineSet
512 192 m 1,0,1
 668 192 668 192 720 272 c 0,2,3
 768 345 768 345 768 499 c 0,4,5
 768 812 768 812 512 812 c 1,6,-1
 512 1024 l 1,7,8
 666 1024 666 1024 702 1226 c 0,9,10
 712 1280 712 1280 711.5 1342 c 128,-1,11
 711 1404 711 1404 704.5 1446 c 128,-1,12
 698 1488 698 1488 681 1525 c 0,13,14
 647 1600 647 1600 544 1600 c 0,15,16
 446 1600 446 1600 414 1530 c 0,17,18
 384 1467 384 1467 384 1359 c 2,19,-1
 384 0 l 1,20,-1
 128 0 l 1,21,-1
 128 1354 l 2,22,23
 128 1561 128 1561 226.5 1685.5 c 128,-1,24
 325 1810 325 1810 530 1810 c 128,-1,25
 735 1810 735 1810 847.5 1690 c 128,-1,26
 960 1570 960 1570 960 1344 c 0,27,28
 960 1191 960 1191 906 1095.5 c 128,-1,29
 852 1000 852 1000 741 939 c 1,30,31
 873 903 873 903 948.5 791 c 128,-1,32
 1024 679 1024 679 1024 512 c 0,33,34
 1024 247 1024 247 899 114.5 c 128,-1,35
 774 -18 774 -18 512 -18 c 1,36,-1
 512 192 l 1,0,1
EndSplineSet
EndChar

StartChar: ae
Encoding: 230 230 166
Width: 1465
Flags: HW
LayerCount: 2
Fore
SplineSet
1112 837.5 m 128,-1,1
 1120 863 1120 863 1120 923 c 128,-1,2
 1120 983 1120 983 1089 1035.5 c 128,-1,3
 1058 1088 1058 1088 992 1088 c 0,4,5
 916 1088 916 1088 888 1006 c 0,6,7
 868 945 868 945 866 879.5 c 128,-1,8
 864 814 864 814 864 791 c 2,9,-1
 864 764 l 1,10,-1
 981 764 l 1,11,12
 1054 775 1054 775 1079 793.5 c 128,-1,0
 1104 812 1104 812 1112 837.5 c 128,-1,1
1108 424 m 2,13,-1
 1108 448 l 1,14,-1
 1363 448 l 1,15,16
 1363 220 1363 220 1275.5 101 c 128,-1,17
 1188 -18 1188 -18 991 -18 c 0,18,19
 767 -18 767 -18 684 179 c 1,20,21
 623 91 623 91 571 51 c 0,22,23
 480 -18 480 -18 363 -18 c 128,-1,24
 246 -18 246 -18 171.5 74.5 c 128,-1,25
 97 167 97 167 97 283 c 0,26,27
 97 472 97 472 217 570 c 0,28,29
 293 632 293 632 373 660 c 0,30,31
 477 695 477 695 609 725 c 1,32,-1
 609 896 l 2,33,34
 609 993 609 993 582 1046.5 c 128,-1,35
 555 1100 555 1100 493 1100 c 0,36,37
 432 1100 432 1100 402 1071 c 0,38,39
 354 1023 354 1023 353 896 c 1,40,-1
 97 896 l 1,41,42
 99 1080 99 1080 200.5 1189 c 128,-1,43
 302 1298 302 1298 481 1298 c 0,44,45
 576 1298 576 1298 644.5 1258 c 128,-1,46
 713 1218 713 1218 737 1146 c 1,47,48
 775 1213 775 1213 839.5 1255.5 c 128,-1,49
 904 1298 904 1298 992 1298 c 0,50,51
 1169 1298 1169 1298 1261.5 1185 c 128,-1,52
 1354 1072 1354 1072 1354 880 c 0,53,54
 1354 766 1354 766 1293 712 c 0,55,56
 1216 644 1216 644 1008 629 c 0,57,58
 979 627 979 627 936 624.5 c 128,-1,59
 893 622 893 622 864 619 c 1,60,-1
 864 576 l 2,61,62
 864 416 864 416 867 382 c 0,63,64
 881 194 881 194 981 185 c 1,65,-1
 992 185 l 2,66,67
 1062 184 1062 184 1086 248 c 0,68,69
 1108 304 1108 304 1108 424 c 2,13,-1
609 580 m 1,70,71
 419 529 419 529 374 444 c 0,72,73
 353 404 353 404 353 351 c 0,74,75
 353 192 353 192 481 192 c 0,76,77
 565 192 565 192 652 291 c 1,78,79
 613 433 613 433 609 580 c 1,70,71
EndSplineSet
EndChar

StartChar: eth
Encoding: 240 240 176
Width: 1152
Flags: HW
LayerCount: 2
Fore
SplineSet
384 704 m 2,0,-1
 384 698 l 2,1,2
 384 443 384 443 402.5 383 c 0,3,4
 421 322 421 322 441 278 c 0,5,6
 480 192 480 192 576 192 c 0,7,8
 686 192 686 192 730 294 c 0,9,10
 768 384 768 384 768 512 c 2,11,-1
 768 978 l 1,12,13
 693 1088 693 1088 576 1088 c 0,14,15
 384 1088 384 1088 384 704 c 2,0,-1
576 1546 m 1,16,17
 454 1600 454 1600 192 1600 c 1,18,-1
 192 1810 l 1,19,20
 434 1810 434 1810 599 1766 c 128,-1,21
 764 1722 764 1722 860 1611 c 1,22,-1
 1088 1664 l 1,23,-1
 1088 1536 l 1,24,-1
 932 1500 l 1,25,26
 1024 1311 1024 1311 1024 960 c 2,27,-1
 1024 576 l 2,28,29
 1024 324 1024 324 918 158 c 0,30,31
 866 76 866 76 778 29 c 128,-1,32
 690 -18 690 -18 580 -18 c 128,-1,33
 470 -18 470 -18 390 16 c 128,-1,34
 310 50 310 50 261 107.5 c 128,-1,35
 212 165 212 165 182 251 c 0,36,37
 129 403 129 403 129 640 c 0,38,39
 130 1130 130 1130 356 1259 c 0,40,41
 424 1298 424 1298 513 1298 c 128,-1,42
 602 1298 602 1298 674 1257 c 128,-1,43
 746 1216 746 1216 768 1152 c 1,44,45
 768 1345 768 1345 699 1446 c 1,46,-1
 256 1344 l 1,47,-1
 256 1472 l 1,48,-1
 576 1546 l 1,16,17
EndSplineSet
EndChar

StartChar: divide
Encoding: 247 247 183
Width: 640
Flags: HW
LayerCount: 2
Fore
SplineSet
192 489 m 1,0,-1
 448 489 l 1,1,-1
 448 233 l 1,2,-1
 192 233 l 1,3,-1
 192 489 l 1,0,-1
192 1135 m 1,4,-1
 448 1135 l 1,5,-1
 448 879 l 1,6,-1
 192 879 l 1,7,-1
 192 1135 l 1,4,-1
0 768 m 1,8,-1
 640 768 l 1,9,-1
 640 576 l 1,10,-1
 0 576 l 1,11,-1
 0 768 l 1,8,-1
EndSplineSet
EndChar

StartChar: oslash
Encoding: 248 248 184
Width: 1024
Flags: HW
LayerCount: 2
Fore
SplineSet
431 220 m 1,0,1
 464 192 464 192 501.5 192 c 128,-1,2
 539 192 539 192 559.5 200 c 128,-1,3
 580 208 580 208 593.5 219.5 c 128,-1,4
 607 231 607 231 616 253.5 c 128,-1,5
 625 276 625 276 630 293 c 128,-1,6
 635 310 635 310 637 342 c 0,7,8
 640 390 640 390 640 448 c 2,9,-1
 640 803 l 1,10,-1
 431 220 l 1,0,1
280 43 m 1,11,12
 128 141 128 141 128 448 c 2,13,-1
 128 832 l 2,14,15
 128 1178 128 1178 332 1266 c 0,16,17
 408 1298 408 1298 513.5 1298 c 128,-1,18
 619 1298 619 1298 707 1258 c 1,19,-1
 789 1491 l 1,20,-1
 876 1462 l 1,21,-1
 784 1205 l 1,22,23
 896 1093 896 1093 896 832 c 2,24,-1
 896 448 l 2,25,26
 896 222 896 222 807 102 c 128,-1,27
 718 -18 718 -18 512 -18 c 0,28,29
 418 -18 418 -18 354 6 c 1,30,-1
 272 -222 l 1,31,-1
 196 -196 l 1,32,-1
 280 43 l 1,11,12
385.5 921.5 m 128,-1,34
 384 869 384 869 384 832 c 2,35,-1
 384 346 l 1,36,-1
 622 1015 l 1,37,38
 594 1088 594 1088 513.5 1088 c 128,-1,39
 433 1088 433 1088 410 1031 c 128,-1,33
 387 974 387 974 385.5 921.5 c 128,-1,34
EndSplineSet
EndChar

StartChar: thorn
Encoding: 254 254 190
Width: 1056
Flags: HW
LayerCount: 2
Fore
SplineSet
562 1288 m 0,0,1
 599 1298 599 1298 654 1298 c 128,-1,2
 709 1298 709 1298 760 1274.5 c 128,-1,3
 811 1251 811 1251 844 1218 c 128,-1,4
 877 1185 877 1185 900 1123.5 c 128,-1,5
 923 1062 923 1062 934.5 1012 c 128,-1,6
 946 962 946 962 952 877 c 0,7,8
 960 764 960 764 960 635.5 c 128,-1,9
 960 507 960 507 952 427.5 c 128,-1,10
 944 348 944 348 922.5 264 c 128,-1,11
 901 180 901 180 866.5 119.5 c 128,-1,12
 832 59 832 59 773.5 20.5 c 128,-1,13
 715 -18 715 -18 638.5 -18 c 128,-1,14
 562 -18 562 -18 502 19 c 128,-1,15
 442 56 442 56 384 116 c 1,16,-1
 384 -410 l 1,17,-1
 128 -410 l 1,18,-1
 128 1791 l 1,19,-1
 384 1791 l 1,20,-1
 384 1153 l 1,21,22
 493 1268 493 1268 562 1288 c 0,0,1
706 823 m 2,23,24
 706 975 706 975 672 1033 c 0,25,26
 640 1088 640 1088 576 1088 c 0,27,28
 470 1088 470 1088 384 1037 c 1,29,-1
 384 232 l 1,30,31
 483 192 483 192 576 192 c 0,32,33
 658 192 658 192 684 308 c 0,34,35
 706 403 706 403 706 546 c 2,36,-1
 706 823 l 2,23,24
EndSplineSet
EndChar

StartChar: Cdotaccent
Encoding: 266 266 202
Width: 1107
Flags: HW
LayerCount: 2
Fore
SplineSet
1065 576 m 2,0,1
 1066 137 1066 137 814 24 c 0,2,3
 720 -18 720 -18 597.5 -18 c 128,-1,4
 475 -18 475 -18 389 14 c 128,-1,5
 303 46 303 46 248 102.5 c 0,6,7
 192 160 192 160 158 244 c 0,8,9
 96 397 96 397 96 641 c 2,10,-1
 96 1152 l 2,11,12
 96 1535 96 1535 248 1690 c 0,13,14
 366 1810 366 1810 588 1810 c 0,15,16
 850 1810 850 1810 962 1647 c 0,17,18
 1064 1497 1064 1497 1065 1216 c 1,19,-1
 809 1216 l 1,20,21
 809 1362 809 1362 802 1399.5 c 128,-1,22
 795 1437 795 1437 787 1465.5 c 128,-1,23
 779 1494 779 1494 768 1512 c 128,-1,24
 757 1530 757 1530 740.5 1548.5 c 128,-1,25
 724 1567 724 1567 702 1577 c 0,26,27
 653 1600 653 1600 589.5 1600 c 128,-1,28
 526 1600 526 1600 481.5 1580 c 128,-1,29
 437 1560 437 1560 412 1528.5 c 0,30,31
 388 1497 388 1497 374 1444 c 0,32,33
 352 1360 352 1360 352 1216 c 2,34,-1
 352 576 l 2,35,36
 352 364 352 364 420 270 c 0,37,38
 477 192 477 192 588 192 c 0,39,40
 784 192 784 192 805 460 c 0,41,42
 809 510 809 510 809 576 c 2,43,-1
 809 640 l 1,44,-1
 1065 640 l 1,45,-1
 1065 576 l 2,0,1
452 2168 m 1,46,-1
 708 2168 l 1,47,-1
 708 1912 l 1,48,-1
 452 1912 l 1,49,-1
 452 2168 l 1,46,-1
EndSplineSet
EndChar

StartChar: cdotaccent
Encoding: 267 267 203
Width: 901
Flags: HW
LayerCount: 2
Fore
SplineSet
349 640 m 2,0,-1
 347 518 l 1,1,2
 347 331 347 331 374 272 c 0,3,4
 399 216 399 216 425.5 204 c 128,-1,5
 452 192 452 192 478 192 c 128,-1,6
 504 192 504 192 524.5 200 c 128,-1,7
 545 208 545 208 558.5 219.5 c 128,-1,8
 572 231 572 231 581 253.5 c 128,-1,9
 590 276 590 276 595 293 c 128,-1,10
 600 310 600 310 602 342 c 0,11,12
 605 390 605 390 605 448 c 1,13,-1
 861 448 l 1,14,15
 861 224 861 224 771 103 c 128,-1,16
 681 -18 681 -18 477 -18 c 0,17,18
 268 -18 268 -18 180 133 c 0,19,20
 126 226 126 226 112.5 328.5 c 128,-1,21
 99 431 99 431 96 494 c 128,-1,22
 93 557 93 557 93 640 c 128,-1,23
 93 723 93 723 96 786 c 128,-1,24
 99 849 99 849 108.5 921 c 128,-1,25
 118 993 118 993 134.5 1045 c 128,-1,26
 151 1097 151 1097 180 1147 c 0,27,28
 209 1196 209 1196 249 1228 c 0,29,30
 337 1298 337 1298 461 1298 c 128,-1,31
 585 1298 585 1298 660.5 1267 c 128,-1,32
 736 1236 736 1236 780 1174 c 0,33,34
 862 1057 862 1057 861 832 c 1,35,-1
 605 832 l 1,36,37
 605 980 605 980 573 1040 c 1,38,39
 524 1090 524 1090 477 1099 c 1,40,41
 426 1099 426 1099 398 1059 c 0,42,43
 369 1016 369 1016 362 971.5 c 128,-1,44
 355 927 355 927 352 898.5 c 128,-1,45
 349 870 349 870 348 830 c 0,46,47
 347 804 347 804 347 783 c 0,48,49
 348 773 348 773 348 764 c 0,50,51
 350 683 350 683 349 640 c 2,0,-1
349 1656 m 1,52,-1
 605 1656 l 1,53,-1
 605 1400 l 1,54,-1
 349 1400 l 1,55,-1
 349 1656 l 1,52,-1
EndSplineSet
PairPos2: "'kern' Horizontal Kerning in Latin lookup 1 per glyph data 0" jcircumflex dx=0 dy=0 dh=-39 dv=0 dx=0 dy=0 dh=0 dv=0
PairPos2: "'kern' Horizontal Kerning in Latin lookup 1 per glyph data 0" jcircumflex dx=0 dy=0 dh=-39 dv=0 dx=0 dy=0 dh=0 dv=0
PairPos2: "'kern' Horizontal Kerning in Latin lookup 1 per glyph data 0" j dx=0 dy=0 dh=-39 dv=0 dx=0 dy=0 dh=0 dv=0
PairPos2: "'kern' Horizontal Kerning in Latin lookup 1 per glyph data 0" j dx=0 dy=0 dh=-39 dv=0 dx=0 dy=0 dh=0 dv=0
EndChar

StartChar: dcroat
Encoding: 273 273 207
Width: 1056
Flags: HW
LayerCount: 2
Fore
SplineSet
351 816 m 2,0,-1
 352 705 l 2,1,2
 352 661 352 661 351 600 c 0,3,4
 350 559 350 559 350 526 c 0,5,6
 350 509 350 509 350 495 c 0,7,8
 350 451 350 451 354 418.5 c 128,-1,9
 358 386 358 386 363 349 c 128,-1,10
 368 312 368 312 378 286 c 128,-1,11
 388 260 388 260 402 238 c 1,12,13
 444 199 444 199 480 192 c 1,14,15
 573 192 573 192 672 232 c 1,16,-1
 672 1037 l 1,17,18
 586 1088 586 1088 480 1088 c 0,19,20
 430 1088 430 1088 410 1064.5 c 128,-1,21
 390 1041 390 1041 380 1023.5 c 128,-1,22
 370 1006 370 1006 364.5 978.5 c 128,-1,23
 359 951 359 951 356 929 c 0,24,25
 351 892 351 892 351 816 c 2,0,-1
295 1274 m 128,-1,27
 346 1298 346 1298 400.5 1298 c 128,-1,28
 455 1298 455 1298 492.5 1286.5 c 0,29,30
 530 1274 530 1274 564 1250 c 0,31,32
 614 1214 614 1214 672 1153 c 1,33,-1
 672 1500 l 1,34,-1
 412 1500 l 1,35,-1
 412 1638 l 1,36,-1
 672 1638 l 1,37,-1
 672 1791 l 1,38,-1
 928 1791 l 1,39,-1
 928 1638 l 1,40,-1
 1056 1638 l 1,41,-1
 1056 1500 l 1,42,-1
 928 1500 l 1,43,-1
 928 0 l 1,44,-1
 672 0 l 1,45,-1
 672 116 l 1,46,47
 614 56 614 56 554 19 c 128,-1,48
 494 -18 494 -18 418 -18 c 128,-1,49
 342 -18 342 -18 284.5 19.5 c 128,-1,50
 227 57 227 57 192 116 c 128,-1,51
 157 175 157 175 135 256 c 0,52,53
 96 400 96 400 96 577 c 2,54,-1
 96 589 l 2,55,56
 96 906 96 906 114 982 c 128,-1,57
 132 1058 132 1058 155 1121.5 c 128,-1,58
 178 1185 178 1185 211 1217.5 c 128,-1,26
 244 1250 244 1250 295 1274 c 128,-1,27
EndSplineSet
EndChar

StartChar: Gdotaccent
Encoding: 288 288 218
Width: 1199
Flags: HW
LayerCount: 2
Fore
SplineSet
512 208 m 0,0,1
 554 192 554 192 613 192 c 128,-1,2
 672 192 672 192 719 217 c 128,-1,3
 766 242 766 242 793.5 281.5 c 128,-1,4
 821 321 821 321 837 382 c 0,5,6
 864 485 864 485 864 640 c 2,7,-1
 864 704 l 1,8,-1
 608 704 l 1,9,-1
 608 894 l 1,10,-1
 1120 894 l 1,11,-1
 1120 0 l 1,12,-1
 928 0 l 1,13,-1
 864 192 l 1,14,15
 789 -18 789 -18 608 -18 c 0,16,17
 259 -18 259 -18 156 265 c 0,18,19
 96 429 96 429 96 698 c 2,20,-1
 96 1152 l 2,21,22
 96 1810 96 1810 618 1810 c 0,23,24
 880 1810 880 1810 996 1648 c 0,25,26
 1104 1495 1104 1495 1105 1216 c 1,27,-1
 849 1216 l 1,28,29
 849 1387 849 1387 832.5 1437.5 c 128,-1,30
 816 1488 816 1488 799 1517 c 128,-1,31
 782 1546 782 1546 758 1562 c 0,32,33
 702 1600 702 1600 621 1600 c 128,-1,34
 540 1600 540 1600 486.5 1571.5 c 0,35,36
 432 1542 432 1542 404 1488 c 0,37,38
 352 1388 352 1388 352 1216 c 2,39,-1
 352 640 l 2,40,41
 352 423 352 423 398 327 c 0,42,43
 440 237 440 237 512 208 c 0,0,1
480 2168 m 1,44,-1
 736 2168 l 1,45,-1
 736 1912 l 1,46,-1
 480 1912 l 1,47,-1
 480 2168 l 1,44,-1
EndSplineSet
EndChar

StartChar: gdotaccent
Encoding: 289 289 219
Width: 968
Flags: HW
LayerCount: 2
Fore
SplineSet
626 832 m 0,0,1
 626 1032 626 1032 545 1094 c 0,2,3
 512 1120 512 1120 465.5 1120 c 128,-1,4
 419 1120 419 1120 386 1094.5 c 0,5,6
 352 1068 352 1068 336 1024 c 0,7,8
 306 942 306 942 306 832 c 0,9,10
 306 560 306 560 466 560 c 128,-1,11
 626 560 626 560 626 832 c 0,0,1
438 -196 m 1,12,-1
 530 -194 l 1,13,14
 754 -194 754 -194 754 -99 c 0,15,16
 754 -81 754 -81 750 -66 c 1,17,18
 736 10 736 10 549 32 c 2,19,-1
 338 57 l 1,20,21
 299 29 299 29 271.5 -24 c 128,-1,22
 244 -77 244 -77 244 -136.5 c 128,-1,23
 244 -196 244 -196 438 -196 c 1,12,-1
82 832 m 0,24,25
 82 1114 82 1114 254 1236 c 0,26,27
 342 1298 342 1298 466 1298 c 0,28,29
 598 1298 598 1298 676 1228 c 0,30,31
 710 1198 710 1198 742 1147 c 1,32,33
 823 1298 823 1298 978 1298 c 1,34,-1
 978 1088 l 1,35,36
 882 1088 882 1088 818 1024 c 1,37,38
 850 930 850 930 850 814 c 128,-1,39
 850 698 850 698 809.5 595 c 128,-1,40
 769 492 769 492 680.5 430 c 128,-1,41
 592 368 592 368 466 368 c 0,42,43
 429 368 429 368 385 375 c 2,44,-1
 337 383 l 1,45,46
 335 378 335 378 327 365.5 c 0,47,48
 318 353 318 353 314 345 c 0,49,50
 302 323 302 323 302 299 c 128,-1,51
 302 275 302 275 327 257 c 128,-1,52
 352 239 352 239 396 230.5 c 128,-1,53
 440 222 440 222 480.5 218 c 128,-1,54
 521 214 521 214 571 211.5 c 128,-1,55
 621 209 621 209 659 203.5 c 128,-1,56
 697 198 697 198 741.5 187.5 c 128,-1,57
 786 177 786 177 832.5 157 c 128,-1,58
 879 137 879 137 909 109 c 0,59,60
 978 45 978 45 978 -64 c 0,61,62
 978 -264 978 -264 789 -340 c 0,63,64
 682 -384 682 -384 530 -383 c 0,65,66
 350 -383 350 -383 299 -375 c 128,-1,67
 248 -367 248 -367 203 -358.5 c 128,-1,68
 158 -350 158 -350 128.5 -336 c 128,-1,69
 99 -322 99 -322 72 -303 c 0,70,71
 18 -265 18 -265 18 -180 c 128,-1,72
 18 -95 18 -95 71.5 -24 c 128,-1,73
 125 47 125 47 210 89 c 1,74,75
 158 103 158 103 120 131.5 c 128,-1,76
 82 160 82 160 82 201 c 0,77,78
 82 254 82 254 102 290.5 c 128,-1,79
 122 327 122 327 128.5 338.5 c 128,-1,80
 135 350 135 350 150 370.5 c 128,-1,81
 165 391 165 391 170.5 398.5 c 128,-1,82
 176 406 176 406 192 425.5 c 128,-1,83
 208 445 208 445 210 448 c 1,84,85
 82 600 82 600 82 832 c 0,24,25
370 1656 m 1,86,-1
 626 1656 l 1,87,-1
 626 1400 l 1,88,-1
 370 1400 l 1,89,-1
 370 1656 l 1,86,-1
EndSplineSet
PairPos2: "'kern' Horizontal Kerning in Latin lookup 1 per glyph data 0" ohungarumlaut dx=0 dy=0 dh=-15 dv=0 dx=0 dy=0 dh=0 dv=0
PairPos2: "'kern' Horizontal Kerning in Latin lookup 1 per glyph data 0" ohungarumlaut dx=0 dy=0 dh=-15 dv=0 dx=0 dy=0 dh=0 dv=0
PairPos2: "'kern' Horizontal Kerning in Latin lookup 1 per glyph data 0" ecaron dx=0 dy=0 dh=-13 dv=0 dx=0 dy=0 dh=0 dv=0
PairPos2: "'kern' Horizontal Kerning in Latin lookup 1 per glyph data 0" ecaron dx=0 dy=0 dh=-13 dv=0 dx=0 dy=0 dh=0 dv=0
PairPos2: "'kern' Horizontal Kerning in Latin lookup 1 per glyph data 0" odieresis dx=0 dy=0 dh=-15 dv=0 dx=0 dy=0 dh=0 dv=0
PairPos2: "'kern' Horizontal Kerning in Latin lookup 1 per glyph data 0" odieresis dx=0 dy=0 dh=-15 dv=0 dx=0 dy=0 dh=0 dv=0
PairPos2: "'kern' Horizontal Kerning in Latin lookup 1 per glyph data 0" otilde dx=0 dy=0 dh=-15 dv=0 dx=0 dy=0 dh=0 dv=0
PairPos2: "'kern' Horizontal Kerning in Latin lookup 1 per glyph data 0" otilde dx=0 dy=0 dh=-15 dv=0 dx=0 dy=0 dh=0 dv=0
PairPos2: "'kern' Horizontal Kerning in Latin lookup 1 per glyph data 0" ocircumflex dx=0 dy=0 dh=-15 dv=0 dx=0 dy=0 dh=0 dv=0
PairPos2: "'kern' Horizontal Kerning in Latin lookup 1 per glyph data 0" ocircumflex dx=0 dy=0 dh=-15 dv=0 dx=0 dy=0 dh=0 dv=0
PairPos2: "'kern' Horizontal Kerning in Latin lookup 1 per glyph data 0" oacute dx=0 dy=0 dh=-15 dv=0 dx=0 dy=0 dh=0 dv=0
PairPos2: "'kern' Horizontal Kerning in Latin lookup 1 per glyph data 0" oacute dx=0 dy=0 dh=-15 dv=0 dx=0 dy=0 dh=0 dv=0
PairPos2: "'kern' Horizontal Kerning in Latin lookup 1 per glyph data 0" ograve dx=0 dy=0 dh=-15 dv=0 dx=0 dy=0 dh=0 dv=0
PairPos2: "'kern' Horizontal Kerning in Latin lookup 1 per glyph data 0" ograve dx=0 dy=0 dh=-15 dv=0 dx=0 dy=0 dh=0 dv=0
PairPos2: "'kern' Horizontal Kerning in Latin lookup 1 per glyph data 0" o dx=0 dy=0 dh=-15 dv=0 dx=0 dy=0 dh=0 dv=0
PairPos2: "'kern' Horizontal Kerning in Latin lookup 1 per glyph data 0" o dx=0 dy=0 dh=-15 dv=0 dx=0 dy=0 dh=0 dv=0
EndChar

StartChar: gcommaaccent
Encoding: 291 291 221
Width: 973
Flags: HW
LayerCount: 2
Fore
SplineSet
641 832 m 0,0,1
 641 1032 641 1032 560 1094 c 0,2,3
 527 1120 527 1120 480.5 1120 c 128,-1,4
 434 1120 434 1120 401 1094.5 c 0,5,6
 368 1068 368 1068 352 1024 c 0,7,8
 322 942 322 942 321 832 c 0,9,10
 321 560 321 560 481 560 c 128,-1,11
 641 560 641 560 641 832 c 0,0,1
453 -196 m 1,12,-1
 545 -194 l 1,13,14
 769 -194 769 -194 769 -99 c 0,15,16
 769 -81 769 -81 765 -66 c 1,17,18
 751 10 751 10 564 32 c 2,19,-1
 353 57 l 1,20,21
 314 29 314 29 286.5 -24 c 128,-1,22
 259 -77 259 -77 259 -136.5 c 128,-1,23
 259 -196 259 -196 453 -196 c 1,12,-1
97 832 m 0,24,25
 98 1114 98 1114 270 1236 c 0,26,27
 358 1298 358 1298 481 1298 c 0,28,29
 614 1298 614 1298 692 1228 c 0,30,31
 726 1198 726 1198 757 1147 c 1,32,33
 838 1298 838 1298 993 1298 c 1,34,-1
 993 1088 l 1,35,36
 897 1088 897 1088 833 1024 c 1,37,38
 865 930 865 930 865 814 c 128,-1,39
 865 698 865 698 824.5 595 c 128,-1,40
 784 492 784 492 695.5 430 c 128,-1,41
 607 368 607 368 481 368 c 0,42,43
 444 368 444 368 400 375 c 1,44,-1
 352 375 l 1,45,46
 348 368 348 368 338 354 c 0,47,48
 316 324 316 324 316.5 295.5 c 128,-1,49
 317 267 317 267 354.5 246.5 c 128,-1,50
 392 226 392 226 451.5 216.5 c 128,-1,51
 511 207 511 207 583 199.5 c 128,-1,52
 655 192 655 192 727 176.5 c 128,-1,53
 799 161 799 161 858.5 136 c 128,-1,54
 918 111 918 111 955.5 60 c 128,-1,55
 993 9 993 9 993 -62.5 c 128,-1,56
 993 -134 993 -134 968.5 -189 c 128,-1,57
 944 -244 944 -244 903 -280 c 128,-1,58
 862 -316 862 -316 804 -340 c 0,59,60
 697 -384 697 -384 545 -383 c 0,61,62
 365 -383 365 -383 314 -375 c 128,-1,63
 263 -367 263 -367 218 -358.5 c 128,-1,64
 173 -350 173 -350 143.5 -336 c 128,-1,65
 114 -322 114 -322 87 -303 c 0,66,67
 33 -265 33 -265 33 -180 c 128,-1,68
 33 -95 33 -95 86.5 -24 c 128,-1,69
 140 47 140 47 225 89 c 1,70,71
 173 103 173 103 135 131.5 c 128,-1,72
 97 160 97 160 97 201 c 0,73,74
 97 254 97 254 117 290.5 c 128,-1,75
 137 327 137 327 143.5 338.5 c 128,-1,76
 150 350 150 350 165 370.5 c 128,-1,77
 180 391 180 391 185.5 398.5 c 128,-1,78
 191 406 191 406 207 425.5 c 128,-1,79
 223 445 223 445 225 448 c 1,80,81
 97 600 97 600 97 832 c 0,24,25
627 1377 m 1,82,-1
 371 1377 l 1,83,84
 371 1407 371 1407 370 1457.5 c 0,85,86
 368 1508 368 1508 368 1540 c 0,87,88
 368 1550 368 1550 368 1562 c 0,89,90
 368 1586 368 1586 369 1616 c 0,91,92
 370 1661 370 1661 374.5 1690.5 c 128,-1,93
 379 1720 379 1720 387 1754.5 c 128,-1,94
 395 1789 395 1789 409.5 1810.5 c 128,-1,95
 424 1832 424 1832 444 1852 c 0,96,97
 483 1890 483 1890 563 1889 c 1,98,-1
 627 1761 l 1,99,100
 558 1761 558 1761 528.5 1731 c 128,-1,101
 499 1701 499 1701 499 1633 c 1,102,-1
 627 1633 l 1,103,-1
 627 1377 l 1,82,-1
EndSplineSet
EndChar

StartChar: Hbar
Encoding: 294 294 224
Width: 1216
Flags: HW
LayerCount: 2
Fore
SplineSet
832 1355 m 1,0,-1
 384 1355 l 1,1,-1
 384 1024 l 1,2,-1
 832 1024 l 1,3,-1
 832 1355 l 1,0,-1
832 832 m 1,4,-1
 384 832 l 1,5,-1
 384 0 l 1,6,-1
 128 0 l 1,7,-1
 128 1355 l 1,8,-1
 30 1355 l 1,9,-1
 30 1494 l 1,10,-1
 128 1494 l 1,11,-1
 128 1792 l 1,12,-1
 384 1792 l 1,13,-1
 384 1494 l 1,14,-1
 832 1494 l 1,15,-1
 832 1792 l 1,16,-1
 1088 1792 l 1,17,-1
 1088 1494 l 1,18,-1
 1186 1494 l 1,19,-1
 1186 1355 l 1,20,-1
 1088 1355 l 1,21,-1
 1088 0 l 1,22,-1
 832 0 l 1,23,-1
 832 832 l 1,4,-1
EndSplineSet
EndChar

StartChar: hbar
Encoding: 295 295 225
Width: 1024
Flags: HW
LayerCount: 2
Fore
SplineSet
384 1142 m 1,0,1
 441 1194 441 1194 477 1221.5 c 128,-1,2
 513 1249 513 1249 576.5 1273.5 c 128,-1,3
 640 1298 640 1298 717 1298 c 128,-1,4
 794 1298 794 1298 845 1238 c 128,-1,5
 896 1178 896 1178 896 1091 c 2,6,-1
 896 0 l 1,7,-1
 640 0 l 1,8,-1
 640 960 l 2,9,10
 640 1026 640 1026 623.5 1057 c 128,-1,11
 607 1088 607 1088 540.5 1088 c 128,-1,12
 474 1088 474 1088 384 1013 c 1,13,-1
 384 0 l 1,14,-1
 128 0 l 1,15,-1
 128 1450 l 1,16,-1
 -1 1450 l 1,17,-1
 -1 1602 l 1,18,-1
 128 1602 l 1,19,-1
 128 1792 l 1,20,-1
 384 1792 l 1,21,-1
 384 1602 l 1,22,-1
 551 1602 l 1,23,-1
 551 1450 l 1,24,-1
 384 1450 l 1,25,-1
 384 1142 l 1,0,1
EndSplineSet
EndChar

StartChar: Idotaccent
Encoding: 304 304 234
Width: 542
Flags: HW
LayerCount: 2
Fore
SplineSet
140 1792 m 1,0,-1
 396 1792 l 1,1,-1
 396 0 l 1,2,-1
 140 0 l 1,3,-1
 140 1792 l 1,0,-1
140 2168 m 1,4,-1
 396 2168 l 1,5,-1
 396 1912 l 1,6,-1
 140 1912 l 1,7,-1
 140 2168 l 1,4,-1
EndSplineSet
EndChar

StartChar: dotlessi
Encoding: 305 305 235
Width: 512
Flags: HW
LayerCount: 2
Fore
SplineSet
128 1280 m 1,0,-1
 384 1280 l 1,1,-1
 384 0 l 1,2,-1
 128 0 l 1,3,-1
 128 1280 l 1,0,-1
EndSplineSet
EndChar

StartChar: kgreenlandic
Encoding: 312 312 242
Width: 960
Flags: HW
LayerCount: 2
Fore
SplineSet
384 1281 m 1,0,-1
 384 737 l 1,1,-1
 704 1280 l 1,2,-1
 960 1280 l 1,3,-1
 673 793 l 1,4,-1
 960 0 l 1,5,-1
 704 0 l 1,6,-1
 502 619 l 1,7,-1
 384 438 l 1,8,-1
 384 0 l 1,9,-1
 128 0 l 1,10,-1
 128 1281 l 1,11,-1
 384 1281 l 1,0,-1
EndSplineSet
EndChar

StartChar: Lslash
Encoding: 321 321 248
Width: 945
Flags: HW
LayerCount: 2
Fore
SplineSet
177 0 m 1,0,-1
 177 858 l 1,1,-1
 49 787 l 1,2,-1
 49 993 l 1,3,-1
 177 1064 l 1,4,-1
 177 1792 l 1,5,-1
 433 1792 l 1,6,-1
 433 1207 l 1,7,-1
 699 1355 l 1,8,-1
 699 1149 l 1,9,-1
 433 1001 l 1,10,-1
 433 192 l 1,11,-1
 881 192 l 1,12,-1
 881 0 l 1,13,-1
 177 0 l 1,0,-1
EndSplineSet
EndChar

StartChar: lslash
Encoding: 322 322 249
Width: 519
Flags: HW
LayerCount: 2
Fore
SplineSet
142 0 m 1,0,-1
 142 1160 l 1,1,-1
 12 1100 l 1,2,-1
 12 1292 l 1,3,-1
 142 1352 l 1,4,-1
 142 1792 l 1,5,-1
 398 1792 l 1,6,-1
 398 1469 l 1,7,-1
 556 1542 l 1,8,-1
 556 1347 l 1,9,-1
 398 1277 l 1,10,-1
 398 0 l 1,11,-1
 142 0 l 1,0,-1
EndSplineSet
EndChar

StartChar: OE
Encoding: 338 338 262
Width: 1664
Flags: HW
LayerCount: 2
Fore
SplineSet
834 1520.5 m 128,-1,1
 774 1600 774 1600 638.5 1600 c 128,-1,2
 503 1600 503 1600 443.5 1517 c 128,-1,3
 384 1434 384 1434 384 1280 c 2,4,-1
 384 512 l 2,5,6
 384 358 384 358 443.5 275 c 128,-1,7
 503 192 503 192 640 192 c 128,-1,8
 777 192 777 192 836.5 275 c 128,-1,9
 896 358 896 358 896 512 c 2,10,-1
 896 1294 l 1,11,0
 894 1441 894 1441 834 1520.5 c 128,-1,1
640 1810 m 0,12,13
 816 1810 816 1810 896 1664 c 1,14,-1
 896 1792 l 1,15,-1
 1600 1792 l 1,16,-1
 1600 1600 l 1,17,-1
 1152 1600 l 1,18,-1
 1152 1024 l 1,19,-1
 1472 1024 l 1,20,-1
 1472 832 l 1,21,-1
 1152 832 l 1,22,-1
 1152 192 l 1,23,-1
 1600 192 l 1,24,-1
 1600 0 l 1,25,-1
 896 0 l 1,26,-1
 896 128 l 1,27,28
 820 -18 820 -18 640 -18 c 0,29,30
 128 -18 128 -18 128 576 c 2,31,-1
 128 1216 l 2,32,33
 128 1810 128 1810 640 1810 c 0,12,13
EndSplineSet
EndChar

StartChar: oe
Encoding: 339 339 263
Width: 1536
Flags: HW
LayerCount: 2
Fore
SplineSet
1152 768 m 1,0,1
 1152 922 1152 922 1137 982 c 1,2,3
 1108 1087 1108 1087 1025 1088 c 0,4,5
 975 1088 975 1088 956 1064.5 c 128,-1,6
 937 1041 937 1041 927.5 1025 c 128,-1,7
 918 1009 918 1009 912 981 c 128,-1,8
 906 953 906 953 902.5 933.5 c 128,-1,9
 899 914 899 914 898 880 c 0,10,11
 896 812 896 812 896 792 c 2,12,-1
 896 768 l 1,13,-1
 1152 768 l 1,0,1
512 1088 m 128,-1,15
 485 1088 485 1088 464.5 1080 c 128,-1,16
 444 1072 444 1072 430.5 1060.5 c 128,-1,17
 417 1049 417 1049 408 1026.5 c 128,-1,18
 399 1004 399 1004 394 987 c 128,-1,19
 389 970 389 970 387 938 c 0,20,21
 384 890 384 890 384 832 c 2,22,-1
 384 448 l 2,23,24
 384 327 384 327 391.5 301.5 c 128,-1,25
 399 276 399 276 408 253.5 c 128,-1,26
 417 231 417 231 430.5 219.5 c 128,-1,27
 444 208 444 208 464.5 200 c 128,-1,28
 485 192 485 192 512 192 c 128,-1,29
 539 192 539 192 559.5 200 c 128,-1,30
 580 208 580 208 593.5 219.5 c 128,-1,31
 607 231 607 231 616 253.5 c 128,-1,32
 625 276 625 276 630 293 c 128,-1,33
 635 310 635 310 637 342 c 0,34,35
 640 390 640 390 640 448 c 2,36,-1
 640 832 l 2,37,38
 640 953 640 953 632.5 978.5 c 128,-1,39
 625 1004 625 1004 616 1026.5 c 128,-1,40
 607 1049 607 1049 593.5 1060.5 c 128,-1,41
 580 1072 580 1072 559.5 1080 c 128,-1,14
 539 1088 539 1088 512 1088 c 128,-1,15
896 576 m 2,42,43
 896 418 896 418 899 380 c 1,44,45
 922 198 922 198 1024 192 c 1,46,47
 1105 192 1105 192 1129 253 c 0,48,49
 1152 312 1152 312 1152 360 c 2,50,-1
 1152 448 l 1,51,-1
 1408 448 l 1,52,53
 1408 218 1408 218 1317.5 100 c 128,-1,54
 1227 -18 1227 -18 1035.5 -18 c 128,-1,55
 844 -18 844 -18 768 128 c 1,56,57
 692 -18 692 -18 499 -18 c 128,-1,58
 306 -18 306 -18 217 102 c 128,-1,59
 128 222 128 222 128 448 c 2,60,-1
 128 832 l 2,61,62
 128 1058 128 1058 217 1178 c 128,-1,63
 306 1298 306 1298 512 1298 c 0,64,65
 688 1298 688 1298 768 1152 c 1,66,67
 842 1298 842 1298 1025 1298 c 0,68,69
 1190 1298 1190 1298 1272 1212 c 0,70,71
 1357 1124 1357 1124 1383 986 c 0,72,73
 1408 851 1408 851 1408 670 c 2,74,-1
 1408 640 l 1,75,-1
 896 640 l 1,76,-1
 896 576 l 2,42,43
EndSplineSet
EndChar

StartChar: Zdotaccent
Encoding: 379 379 296
Width: 951
Flags: HW
LayerCount: 2
Fore
SplineSet
318 192 m 1,0,-1
 894 192 l 1,1,-1
 894 0 l 1,2,-1
 62 0 l 1,3,-1
 62 192 l 1,4,-1
 638 1600 l 1,5,-1
 126 1600 l 1,6,-1
 126 1792 l 1,7,-1
 894 1792 l 1,8,-1
 894 1600 l 1,9,-1
 318 192 l 1,0,-1
350 2168 m 1,10,-1
 606 2168 l 1,11,-1
 606 1912 l 1,12,-1
 350 1912 l 1,13,-1
 350 2168 l 1,10,-1
EndSplineSet
EndChar

StartChar: zdotaccent
Encoding: 380 380 297
Width: 782
Flags: HW
LayerCount: 2
Fore
SplineSet
489 1088 m 1,0,-1
 105 1088 l 1,1,-1
 105 1280 l 1,2,-1
 745 1280 l 1,3,-1
 745 1088 l 1,4,-1
 297 192 l 1,5,-1
 745 192 l 1,6,-1
 745 0 l 1,7,-1
 41 0 l 1,8,-1
 41 192 l 1,9,-1
 489 1088 l 1,0,-1
265 1656 m 1,10,-1
 521 1656 l 1,11,-1
 521 1400 l 1,12,-1
 265 1400 l 1,13,-1
 265 1656 l 1,10,-1
EndSplineSet
EndChar

StartChar: uni0237
Encoding: 567 567 341
Width: 576
Flags: HW
LayerCount: 2
Fore
SplineSet
128 -320 m 0,0,1
 44 -320 44 -320 0 -303 c 1,2,-1
 0 -121 l 1,3,4
 35 -128 35 -128 64 -128 c 0,5,6
 192 -128 192 -128 192 21 c 2,7,-1
 192 1280 l 1,8,-1
 448 1280 l 1,9,-1
 448 -7 l 2,10,11
 448 -155 448 -155 362.5 -237.5 c 128,-1,12
 277 -320 277 -320 128 -320 c 0,0,1
EndSplineSet
EndChar

StartChar: circumflex
Encoding: 710 710 342
Width: 768
Flags: HW
LayerCount: 2
Fore
SplineSet
384 1664 m 1,0,-1
 256 1408 l 1,1,-1
 64 1408 l 1,2,-1
 256 1792 l 1,3,-1
 512 1792 l 1,4,-1
 704 1408 l 1,5,-1
 512 1408 l 1,6,-1
 384 1664 l 1,0,-1
EndSplineSet
EndChar

StartChar: caron
Encoding: 711 711 343
Width: 768
Flags: HW
LayerCount: 2
Fore
SplineSet
512 1792 m 1,0,-1
 704 1792 l 1,1,-1
 512 1408 l 1,2,-1
 256 1408 l 1,3,-1
 64 1792 l 1,4,-1
 256 1792 l 1,5,-1
 384 1536 l 1,6,-1
 512 1792 l 1,0,-1
EndSplineSet
EndChar

StartChar: breve
Encoding: 728 728 344
Width: 768
Flags: HW
LayerCount: 2
Fore
SplineSet
704 1792 m 1,0,1
 704 1592 704 1592 634.5 1500 c 128,-1,2
 565 1408 565 1408 385 1408 c 128,-1,3
 205 1408 205 1408 134.5 1501 c 128,-1,4
 64 1594 64 1594 64 1792 c 1,5,-1
 256 1792 l 1,6,7
 256 1690 256 1690 280.5 1645 c 128,-1,8
 305 1600 305 1600 384 1600 c 128,-1,9
 463 1600 463 1600 487.5 1645.5 c 128,-1,10
 512 1691 512 1691 512 1792 c 1,11,-1
 704 1792 l 1,0,1
EndSplineSet
EndChar

StartChar: dotaccent
Encoding: 729 729 345
Width: 384
Flags: HW
LayerCount: 2
Fore
SplineSet
64 1702 m 1,0,-1
 320 1702 l 1,1,-1
 320 1446 l 1,2,-1
 64 1446 l 1,3,-1
 64 1702 l 1,0,-1
EndSplineSet
EndChar

StartChar: ring
Encoding: 730 730 346
Width: 640
Flags: HW
LayerCount: 2
Fore
SplineSet
64 1664 m 128,-1,1
 64 1780 64 1780 133.5 1850 c 128,-1,2
 203 1920 203 1920 320 1920 c 128,-1,3
 437 1920 437 1920 506.5 1850 c 128,-1,4
 576 1780 576 1780 576 1664 c 128,-1,5
 576 1548 576 1548 506.5 1478 c 128,-1,6
 437 1408 437 1408 320 1408 c 128,-1,7
 203 1408 203 1408 133.5 1478 c 128,-1,0
 64 1548 64 1548 64 1664 c 128,-1,1
448 1664 m 128,-1,9
 448 1723 448 1723 414 1757.5 c 128,-1,10
 380 1792 380 1792 320 1792 c 128,-1,11
 260 1792 260 1792 226 1758 c 128,-1,12
 192 1724 192 1724 192 1664 c 128,-1,13
 192 1604 192 1604 226 1570 c 128,-1,14
 260 1536 260 1536 320 1536 c 128,-1,15
 380 1536 380 1536 414 1570.5 c 128,-1,8
 448 1605 448 1605 448 1664 c 128,-1,9
EndSplineSet
EndChar

StartChar: ogonek
Encoding: 731 731 347
Width: 537
Flags: HW
LayerCount: 2
Fore
SplineSet
290 -391 m 1,0,-1
 402 -385 l 1,1,-1
 402 -513 l 1,2,-1
 357 -513 l 2,3,4
 114 -514 114 -514 44 -478 c 0,5,6
 -5 -453 -5 -453 -19 -427 c 0,7,8
 -46 -379 -46 -379 -46 -321 c 0,9,10
 -46 -213 -46 -213 35 -115.5 c 128,-1,11
 116 -18 116 -18 210 9 c 1,12,-1
 338 9 l 1,13,14
 332 1 332 1 285 -56 c 128,-1,15
 238 -113 238 -113 216 -144 c 128,-1,16
 194 -175 194 -175 170 -226 c 128,-1,17
 146 -277 146 -277 146 -317 c 0,18,19
 146 -391 146 -391 290 -391 c 1,0,-1
EndSplineSet
EndChar

StartChar: tilde
Encoding: 732 732 348
Width: 960
Flags: HW
LayerCount: 2
Fore
SplineSet
613 1452 m 0,0,1
 565 1452 565 1452 514.5 1474 c 128,-1,2
 464 1496 464 1496 417 1517.5 c 128,-1,3
 370 1539 370 1539 329 1539 c 0,4,5
 281 1539 281 1539 281 1472 c 1,6,-1
 127 1472 l 1,7,8
 127 1588 127 1588 184.5 1666.5 c 128,-1,9
 242 1745 242 1745 347 1745 c 0,10,11
 405 1745 405 1745 492 1702 c 128,-1,12
 579 1659 579 1659 629 1659 c 128,-1,13
 679 1659 679 1659 679 1728 c 1,14,-1
 833 1728 l 1,15,16
 833 1611 833 1611 775.5 1531.5 c 128,-1,17
 718 1452 718 1452 613 1452 c 0,0,1
EndSplineSet
EndChar

StartChar: hungarumlaut
Encoding: 733 733 349
Width: 640
Flags: HW
LayerCount: 2
Fore
SplineSet
640 1408 m 1,0,-1
 512 1408 l 1,1,-1
 640 1792 l 1,2,-1
 896 1792 l 1,3,-1
 640 1408 l 1,0,-1
346 1408 m 1,4,-1
 218 1408 l 1,5,-1
 306 1792 l 1,6,-1
 512 1792 l 1,7,-1
 346 1408 l 1,4,-1
EndSplineSet
EndChar

StartChar: uni030F
Encoding: 783 783 350
Width: 640
Flags: HW
LayerCount: 2
Fore
SplineSet
8 1792 m 1,0,-1
 264 1792 l 1,1,-1
 392 1408 l 1,2,-1
 264 1408 l 1,3,-1
 8 1792 l 1,0,-1
392 1792 m 1,4,-1
 598 1792 l 1,5,-1
 686 1408 l 1,6,-1
 558 1408 l 1,7,-1
 392 1792 l 1,4,-1
EndSplineSet
EndChar

StartChar: uni0311
Encoding: 785 785 351
Width: 768
Flags: HW
LayerCount: 2
Fore
SplineSet
64 1408 m 1,0,1
 64 1608 64 1608 133.5 1700 c 128,-1,2
 203 1792 203 1792 383 1792 c 128,-1,3
 563 1792 563 1792 633.5 1699 c 128,-1,4
 704 1606 704 1606 704 1408 c 1,5,-1
 512 1408 l 1,6,7
 512 1510 512 1510 487.5 1555 c 128,-1,8
 463 1600 463 1600 384 1600 c 128,-1,9
 305 1600 305 1600 280.5 1554.5 c 128,-1,10
 256 1509 256 1509 256 1408 c 1,11,-1
 64 1408 l 1,0,1
EndSplineSet
EndChar

StartChar: uni0326
Encoding: 806 806 352
Width: 330
Flags: HW
LayerCount: 2
Fore
SplineSet
37 -79 m 1,0,-1
 293 -79 l 1,1,2
 293 -329 293 -329 286.5 -389 c 128,-1,3
 280 -449 280 -449 268 -485.5 c 128,-1,4
 256 -522 256 -522 236 -544 c 0,5,6
 192 -592 192 -592 101 -591 c 1,7,-1
 37 -463 l 1,8,9
 106 -463 106 -463 135.5 -433 c 128,-1,10
 165 -403 165 -403 165 -335 c 1,11,-1
 37 -335 l 1,12,-1
 37 -79 l 1,0,-1
EndSplineSet
EndChar

StartChar: endash
Encoding: 8211 8211 361
Width: 384
Flags: HW
LayerCount: 2
Fore
SplineSet
0 640 m 1,0,-1
 384 640 l 1,1,-1
 384 448 l 1,2,-1
 0 448 l 1,3,-1
 0 640 l 1,0,-1
EndSplineSet
EndChar

StartChar: emdash
Encoding: 8212 8212 362
Width: 384
Flags: HW
LayerCount: 2
Fore
SplineSet
0 640 m 1,0,-1
 384 640 l 1,1,-1
 384 448 l 1,2,-1
 0 448 l 1,3,-1
 0 640 l 1,0,-1
EndSplineSet
EndChar

StartChar: quoteleft
Encoding: 8216 8216 363
Width: 512
Flags: HW
LayerCount: 2
Fore
SplineSet
128 1280 m 1,0,-1
 125 1469 l 1,1,2
 125 1662 125 1662 177 1730 c 0,3,4
 225 1792 225 1792 320 1792 c 1,5,-1
 384 1664 l 1,6,7
 315 1664 315 1664 285.5 1634 c 128,-1,8
 256 1604 256 1604 256 1536 c 1,9,-1
 384 1536 l 1,10,-1
 384 1280 l 1,11,-1
 128 1280 l 1,0,-1
EndSplineSet
EndChar

StartChar: quoteright
Encoding: 8217 8217 364
Width: 512
Flags: HW
LayerCount: 2
Fore
SplineSet
128 1792 m 1,0,-1
 384 1792 l 1,1,2
 384 1542 384 1542 377.5 1482 c 128,-1,3
 371 1422 371 1422 359 1385.5 c 0,4,5
 347 1350 347 1350 327 1328 c 0,6,7
 283 1280 283 1280 192 1280 c 1,8,-1
 128 1408 l 1,9,10
 197 1408 197 1408 226.5 1438 c 128,-1,11
 256 1468 256 1468 256 1536 c 1,12,-1
 128 1536 l 1,13,-1
 128 1792 l 1,0,-1
EndSplineSet
PairPos2: "'kern' Horizontal Kerning in Latin lookup 1 per glyph data 0" dcaron dx=0 dy=0 dh=-70 dv=0 dx=0 dy=0 dh=0 dv=0
PairPos2: "'kern' Horizontal Kerning in Latin lookup 1 per glyph data 0" dcaron dx=0 dy=0 dh=-70 dv=0 dx=0 dy=0 dh=0 dv=0
PairPos2: "'kern' Horizontal Kerning in Latin lookup 1 per glyph data 0" d dx=0 dy=0 dh=-70 dv=0 dx=0 dy=0 dh=0 dv=0
PairPos2: "'kern' Horizontal Kerning in Latin lookup 1 per glyph data 0" d dx=0 dy=0 dh=-70 dv=0 dx=0 dy=0 dh=0 dv=0
EndChar

StartChar: quotesinglbase
Encoding: 8218 8218 365
Width: 384
Flags: HW
LayerCount: 2
Fore
SplineSet
62 63 m 1,0,-1
 318 63 l 1,1,-1
 254 -321 l 1,2,-1
 126 -321 l 1,3,-1
 62 63 l 1,0,-1
EndSplineSet
EndChar

StartChar: quotedblleft
Encoding: 8220 8220 366
Width: 896
Flags: HW
LayerCount: 2
Fore
SplineSet
512 1280 m 1,0,-1
 509 1469 l 1,1,2
 509 1662 509 1662 561 1730 c 0,3,4
 609 1792 609 1792 704 1792 c 1,5,-1
 768 1664 l 1,6,7
 699 1664 699 1664 669.5 1634 c 128,-1,8
 640 1604 640 1604 640 1536 c 1,9,-1
 768 1536 l 1,10,-1
 768 1280 l 1,11,-1
 512 1280 l 1,0,-1
128 1280 m 1,12,-1
 125 1469 l 1,13,14
 125 1662 125 1662 177 1730 c 0,15,16
 225 1792 225 1792 320 1792 c 1,17,-1
 384 1664 l 1,18,19
 315 1664 315 1664 285.5 1634 c 128,-1,20
 256 1604 256 1604 256 1536 c 1,21,-1
 384 1536 l 1,22,-1
 384 1280 l 1,23,-1
 128 1280 l 1,12,-1
EndSplineSet
EndChar

StartChar: quotedblright
Encoding: 8221 8221 367
Width: 896
Flags: HW
LayerCount: 2
Fore
SplineSet
512 1792 m 1,0,-1
 768 1792 l 1,1,2
 768 1542 768 1542 761.5 1482 c 128,-1,3
 755 1422 755 1422 743 1385.5 c 0,4,5
 731 1350 731 1350 711 1328 c 0,6,7
 667 1280 667 1280 576 1280 c 1,8,-1
 512 1408 l 1,9,10
 581 1408 581 1408 610.5 1438 c 128,-1,11
 640 1468 640 1468 640 1536 c 1,12,-1
 512 1536 l 1,13,-1
 512 1792 l 1,0,-1
128 1792 m 1,14,-1
 384 1792 l 1,15,16
 384 1542 384 1542 377.5 1482 c 128,-1,17
 371 1422 371 1422 359 1385.5 c 0,18,19
 347 1350 347 1350 327 1328 c 0,20,21
 283 1280 283 1280 192 1280 c 1,22,-1
 128 1408 l 1,23,24
 197 1408 197 1408 226.5 1438 c 128,-1,25
 256 1468 256 1468 256 1536 c 1,26,-1
 128 1536 l 1,27,-1
 128 1792 l 1,14,-1
EndSplineSet
EndChar

StartChar: quotedblbase
Encoding: 8222 8222 368
Width: 704
Flags: HW
LayerCount: 2
Fore
SplineSet
385 64 m 1,0,-1
 641 64 l 1,1,-1
 577 -320 l 1,2,-1
 449 -320 l 1,3,-1
 385 64 l 1,0,-1
62 64 m 1,4,-1
 318 64 l 1,5,-1
 254 -320 l 1,6,-1
 126 -320 l 1,7,-1
 62 64 l 1,4,-1
EndSplineSet
EndChar

StartChar: daggerdbl
Encoding: 8225 8225 369
Width: 850
Flags: HW
LayerCount: 2
Fore
SplineSet
550 500 m 1,0,-1
 550 0 l 1,1,-1
 300 0 l 1,2,-1
 300 500 l 1,3,-1
 100 500 l 1,4,-1
 100 700 l 1,5,-1
 300 700 l 1,6,-1
 300 1050 l 1,7,-1
 100 1050 l 1,8,-1
 100 1250 l 1,9,-1
 300 1250 l 1,10,-1
 300 1536 l 1,11,-1
 550 1536 l 1,12,-1
 550 1250 l 1,13,-1
 751 1250 l 1,14,-1
 751 1050 l 1,15,-1
 550 1050 l 1,16,-1
 550 700 l 1,17,-1
 751 700 l 1,18,-1
 751 500 l 1,19,-1
 550 500 l 1,0,-1
EndSplineSet
EndChar

StartChar: bullet
Encoding: 8226 8226 370
Width: 960
Flags: HW
LayerCount: 2
Fore
SplineSet
292 678.5 m 128,-1,1
 221 762 221 762 221 891.5 c 128,-1,2
 221 1021 221 1021 291.5 1104 c 128,-1,3
 362 1187 362 1187 485.5 1187 c 128,-1,4
 609 1187 609 1187 680 1103.5 c 128,-1,5
 751 1020 751 1020 751 890.5 c 128,-1,6
 751 761 751 761 680.5 678 c 128,-1,7
 610 595 610 595 486.5 595 c 128,-1,0
 363 595 363 595 292 678.5 c 128,-1,1
EndSplineSet
EndChar

StartChar: guilsinglleft
Encoding: 8249 8249 371
Width: 582
Flags: HW
LayerCount: 2
Fore
SplineSet
64 704 m 1,0,-1
 512 1216 l 1,1,-1
 512 896 l 1,2,-1
 256 641 l 1,3,-1
 512 384 l 1,4,-1
 512 64 l 1,5,-1
 64 576 l 1,6,-1
 64 704 l 1,0,-1
EndSplineSet
EndChar

StartChar: guilsinglright
Encoding: 8250 8250 372
Width: 577
Flags: HW
LayerCount: 2
Fore
SplineSet
512 576 m 1,0,-1
 64 64 l 1,1,-1
 64 384 l 1,2,-1
 320 641 l 1,3,-1
 64 896 l 1,4,-1
 64 1216 l 1,5,-1
 512 704 l 1,6,-1
 512 576 l 1,0,-1
EndSplineSet
EndChar

StartChar: fraction
Encoding: 8260 8260 373
Width: 537
Flags: HW
LayerCount: 2
Fore
SplineSet
301 1901 m 1,0,-1
 520 1901 l 1,1,-1
 238 383 l 1,2,-1
 18 383 l 1,3,-1
 301 1901 l 1,0,-1
EndSplineSet
EndChar

StartChar: uni2074
Encoding: 8308 8308 374
Width: 768
Flags: HW
LayerCount: 2
Fore
SplineSet
384 960 m 1,0,-1
 384 1216 l 1,1,-1
 256 960 l 1,2,-1
 384 960 l 1,0,-1
384 832 m 1,3,-1
 64 832 l 1,4,-1
 64 960 l 1,5,-1
 404 1536 l 1,6,-1
 576 1536 l 1,7,-1
 576 960 l 1,8,-1
 704 960 l 1,9,-1
 704 832 l 1,10,-1
 576 832 l 1,11,-1
 576 576 l 1,12,-1
 384 576 l 1,13,-1
 384 832 l 1,3,-1
EndSplineSet
EndChar

StartChar: Euro
Encoding: 8364 8364 375
Width: 971
Flags: HW
LayerCount: 2
Fore
SplineSet
432.5 215.5 m 128,-1,1
 461 205 461 205 501.5 205 c 128,-1,2
 542 205 542 205 573 226 c 128,-1,3
 604 247 604 247 620.5 278 c 128,-1,4
 637 309 637 309 647 357 c 0,5,6
 662 429 662 429 662 541 c 1,7,-1
 909 541 l 1,8,9
 908 216 908 216 780 80 c 0,10,11
 680 -26 680 -26 494 -27 c 0,12,13
 146 -27 146 -27 84 331 c 0,14,15
 70 409 70 409 68 508 c 1,16,-1
 0 508 l 1,17,-1
 0 674 l 1,18,-1
 68 674 l 1,19,-1
 68 827 l 1,20,-1
 0 827 l 1,21,-1
 0 993 l 1,22,-1
 70 993 l 1,23,24
 80 1310 80 1310 204 1436 c 0,25,26
 303 1536 303 1536 487 1536 c 0,27,28
 715 1536 715 1536 811 1392 c 0,29,30
 901 1257 901 1257 903 1018 c 1,31,-1
 653 1018 l 1,32,33
 653 1309 653 1309 492 1309 c 0,34,35
 439 1309 439 1309 417 1295.5 c 128,-1,36
 395 1282 395 1282 382.5 1272.5 c 128,-1,37
 370 1263 370 1263 361 1245.5 c 128,-1,38
 352 1228 352 1228 345.5 1214.5 c 128,-1,39
 339 1201 339 1201 335 1176 c 128,-1,40
 331 1151 331 1151 328.5 1135 c 0,41,42
 326 1120 326 1120 324 1090 c 0,43,44
 322 1041 322 1041 322 993 c 1,45,-1
 518 993 l 1,46,-1
 518 827 l 1,47,-1
 322 827 l 1,48,-1
 322 674 l 1,49,-1
 518 674 l 1,50,-1
 518 508 l 1,51,-1
 324 508 l 1,52,53
 331 349 331 349 349 311 c 128,-1,54
 367 273 367 273 385.5 249.5 c 128,-1,0
 404 226 404 226 432.5 215.5 c 128,-1,1
EndSplineSet
EndChar

StartChar: trademark
Encoding: 8482 8482 376
Width: 2204
Flags: HW
LayerCount: 2
Fore
SplineSet
1139 686 m 1,0,-1
 1036 686 l 1,1,-1
 899 1241 l 1,2,-1
 899 686 l 1,3,-1
 741 686 l 1,4,-1
 741 1518 l 1,5,-1
 983 1518 l 1,6,-1
 1087 1065 l 1,7,-1
 1194 1518 l 1,8,-1
 1436 1518 l 1,9,-1
 1436 686 l 1,10,-1
 1276 686 l 1,11,-1
 1276 1241 l 1,12,-1
 1139 686 l 1,0,-1
649 1518 m 1,13,-1
 649 1364 l 1,14,-1
 485 1364 l 1,15,-1
 485 686 l 1,16,-1
 315 686 l 1,17,-1
 315 1364 l 1,18,-1
 152 1364 l 1,19,-1
 152 1518 l 1,20,-1
 649 1518 l 1,13,-1
EndSplineSet
EndChar

StartChar: product
Encoding: 8719 8719 377
Width: 1216
Flags: HW
LayerCount: 2
Fore
SplineSet
1088 1792 m 1,0,-1
 1088 0 l 1,1,-1
 832 0 l 1,2,-1
 832 1600 l 1,3,-1
 384 1600 l 1,4,-1
 384 0 l 1,5,-1
 128 0 l 1,6,-1
 128 1792 l 1,7,-1
 1088 1792 l 1,0,-1
EndSplineSet
EndChar

StartChar: integral
Encoding: 8747 8747 378
Width: 704
Flags: HW
LayerCount: 2
Fore
SplineSet
640 1526 m 1,0,-1
 554 1536 l 1,1,2
 490 1536 490 1536 469 1495.5 c 128,-1,3
 448 1455 448 1455 448 1376 c 2,4,-1
 448 128 l 2,5,6
 448 -116 448 -116 367 -192 c 0,7,8
 299 -256 299 -256 158 -256 c 0,9,10
 96 -256 96 -256 0 -244 c 1,11,-1
 0 -54 l 1,12,13
 60 -64 60 -64 86 -64 c 0,14,15
 150 -64 150 -64 171 -23.5 c 128,-1,16
 192 17 192 17 192 96 c 2,17,-1
 192 1344 l 2,18,19
 192 1498 192 1498 217 1565.5 c 128,-1,20
 242 1633 242 1633 274 1663 c 0,21,22
 343 1728 343 1728 482 1728 c 0,23,24
 544 1728 544 1728 640 1716 c 1,25,-1
 640 1526 l 1,0,-1
EndSplineSet
EndChar

StartChar: uniFB01
Encoding: 64257 64257 379
Width: 1186
Flags: HW
LayerCount: 2
Fore
SplineSet
622 1526 m 1,0,-1
 536 1536 l 1,1,2
 472 1536 472 1536 451 1495.5 c 128,-1,3
 430 1455 430 1455 430 1376 c 2,4,-1
 430 1280 l 1,5,-1
 1058 1280 l 1,6,-1
 1058 0 l 1,7,-1
 802 0 l 1,8,-1
 802 1088 l 1,9,-1
 430 1088 l 1,10,-1
 430 0 l 1,11,-1
 174 0 l 1,12,-1
 174 1088 l 1,13,-1
 46 1088 l 1,14,-1
 46 1280 l 1,15,-1
 174 1280 l 1,16,-1
 174 1329 l 2,17,18
 174 1489 174 1489 198.5 1558.5 c 0,19,20
 222 1628 222 1628 254 1660 c 0,21,22
 322 1728 322 1728 464 1728 c 0,23,24
 526 1728 526 1728 622 1716 c 1,25,-1
 622 1526 l 1,0,-1
802 1728 m 1,26,-1
 1058 1728 l 1,27,-1
 1058 1472 l 1,28,-1
 802 1472 l 1,29,-1
 802 1728 l 1,26,-1
EndSplineSet
Ligature2: "'liga' Standard Ligatures in Latin lookup 0 subtable" f i
EndChar

StartChar: uniFB02
Encoding: 64258 64258 380
Width: 1161
Flags: HW
LayerCount: 2
Fore
SplineSet
1042 0 m 1,0,-1
 786 0 l 1,1,-1
 786 1522 l 1,2,3
 619 1536 619 1536 545.5 1536 c 128,-1,4
 472 1536 472 1536 451 1495.5 c 128,-1,5
 430 1455 430 1455 430 1376 c 2,6,-1
 430 1280 l 1,7,-1
 622 1280 l 1,8,-1
 622 1088 l 1,9,-1
 430 1088 l 1,10,-1
 430 0 l 1,11,-1
 174 0 l 1,12,-1
 174 1088 l 1,13,-1
 46 1088 l 1,14,-1
 46 1280 l 1,15,-1
 174 1280 l 1,16,-1
 174 1329 l 2,17,18
 174 1489 174 1489 198.5 1558.5 c 0,19,20
 222 1628 222 1628 254 1660 c 0,21,22
 322 1728 322 1728 447.5 1728 c 128,-1,23
 573 1728 573 1728 669 1722 c 0,24,25
 791 1714 791 1714 1042 1681 c 1,26,-1
 1042 0 l 1,0,-1
EndSplineSet
Ligature2: "'liga' Standard Ligatures in Latin lookup 0 subtable" f l
EndChar

StartChar: uniFB00
Encoding: 64256 64256 381
Width: 1220
Flags: HW
LayerCount: 2
Fore
SplineSet
1222 1526 m 1,0,-1
 1136 1536 l 1,1,2
 1072 1536 1072 1536 1051 1495.5 c 128,-1,3
 1030 1455 1030 1455 1030 1376 c 2,4,-1
 1030 1280 l 1,5,-1
 1222 1280 l 1,6,-1
 1222 1088 l 1,7,-1
 1030 1088 l 1,8,-1
 1030 0 l 1,9,-1
 774 0 l 1,10,-1
 774 1088 l 1,11,-1
 430 1088 l 1,12,-1
 430 0 l 1,13,-1
 174 0 l 1,14,-1
 174 1088 l 1,15,-1
 46 1088 l 1,16,-1
 46 1280 l 1,17,-1
 174 1280 l 1,18,-1
 174 1329 l 2,19,20
 174 1489 174 1489 198.5 1558.5 c 0,21,22
 222 1628 222 1628 254 1660 c 0,23,24
 322 1728 322 1728 464 1728 c 0,25,26
 526 1728 526 1728 622 1716 c 1,27,-1
 622 1526 l 1,28,-1
 536 1536 l 1,29,30
 472 1536 472 1536 451 1495.5 c 128,-1,31
 430 1455 430 1455 430 1376 c 2,32,-1
 430 1280 l 1,33,-1
 774 1280 l 1,34,-1
 774 1329 l 2,35,36
 774 1489 774 1489 798.5 1558.5 c 0,37,38
 822 1628 822 1628 854 1660 c 0,39,40
 922 1728 922 1728 1064 1728 c 0,41,42
 1126 1728 1126 1728 1222 1716 c 1,43,-1
 1222 1526 l 1,0,-1
EndSplineSet
Ligature2: "'liga' Standard Ligatures in Latin lookup 0 subtable" f f
EndChar

StartChar: uniFB03
Encoding: 64259 64259 386
Width: 1718
Flags: HW
LayerCount: 2
Fore
SplineSet
1334 1728 m 1,0,-1
 1590 1728 l 1,1,-1
 1590 1472 l 1,2,-1
 1334 1472 l 1,3,-1
 1334 1728 l 1,0,-1
622 1526 m 1,4,-1
 536 1536 l 1,5,6
 472 1536 472 1536 451 1495.5 c 128,-1,7
 430 1455 430 1455 430 1376 c 2,8,-1
 430 1280 l 1,9,-1
 736 1280 l 1,10,-1
 736 1329 l 2,11,12
 736 1489 736 1489 760.5 1558.5 c 0,13,14
 784 1628 784 1628 816 1660 c 0,15,16
 884 1728 884 1728 1026 1728 c 0,17,18
 1088 1728 1088 1728 1184 1716 c 1,19,-1
 1184 1526 l 1,20,-1
 1098 1536 l 1,21,22
 1034 1536 1034 1536 1013 1495.5 c 128,-1,23
 992 1455 992 1455 992 1376 c 2,24,-1
 992 1280 l 1,25,-1
 1590 1280 l 1,26,-1
 1590 0 l 1,27,-1
 1334 0 l 1,28,-1
 1334 1088 l 1,29,-1
 992 1088 l 1,30,-1
 992 0 l 1,31,-1
 736 0 l 1,32,-1
 736 1088 l 1,33,-1
 430 1088 l 1,34,-1
 430 0 l 1,35,-1
 174 0 l 1,36,-1
 174 1088 l 1,37,-1
 46 1088 l 1,38,-1
 46 1280 l 1,39,-1
 174 1280 l 1,40,-1
 174 1329 l 2,41,42
 174 1489 174 1489 198.5 1558.5 c 0,43,44
 222 1628 222 1628 254 1660 c 0,45,46
 322 1728 322 1728 464 1728 c 0,47,48
 526 1728 526 1728 622 1716 c 1,49,-1
 622 1526 l 1,4,-1
EndSplineSet
Ligature2: "'liga' Standard Ligatures in Latin lookup 0 subtable" f f i
EndChar

StartChar: uniFB04
Encoding: 64260 64260 387
Width: 1677
Flags: HW
LayerCount: 2
Fore
SplineSet
622 1526 m 1,0,-1
 536 1536 l 1,1,2
 472 1536 472 1536 451 1495.5 c 128,-1,3
 430 1455 430 1455 430 1376 c 2,4,-1
 430 1280 l 1,5,-1
 712 1280 l 1,6,-1
 712 1329 l 2,7,8
 712 1489 712 1489 736.5 1558.5 c 0,9,10
 760 1628 760 1628 792 1660 c 0,11,12
 860 1728 860 1728 983.5 1728 c 128,-1,13
 1107 1728 1107 1728 1200 1722 c 0,14,15
 1307 1715 1307 1715 1558 1681 c 1,16,-1
 1558 0 l 1,17,-1
 1302 0 l 1,18,-1
 1302 1522 l 1,19,20
 1160 1536 1160 1536 1085 1536 c 128,-1,21
 1010 1536 1010 1536 989 1495.5 c 128,-1,22
 968 1455 968 1455 968 1376 c 2,23,-1
 968 1280 l 1,24,-1
 1160 1280 l 1,25,-1
 1160 1088 l 1,26,-1
 968 1088 l 1,27,-1
 968 0 l 1,28,-1
 712 0 l 1,29,-1
 712 1088 l 1,30,-1
 430 1088 l 1,31,-1
 430 0 l 1,32,-1
 174 0 l 1,33,-1
 174 1088 l 1,34,-1
 46 1088 l 1,35,-1
 46 1280 l 1,36,-1
 174 1280 l 1,37,-1
 174 1329 l 2,38,39
 174 1489 174 1489 198.5 1558.5 c 0,40,41
 222 1628 222 1628 254 1660 c 0,42,43
 322 1728 322 1728 464 1728 c 0,44,45
 526 1728 526 1728 622 1716 c 1,46,-1
 622 1526 l 1,0,-1
EndSplineSet
Ligature2: "'liga' Standard Ligatures in Latin lookup 0 subtable" f f l
EndChar

StartChar: foundryicon
Encoding: 65540 -1 388
Width: 1362
GlyphClass: 2
Flags: HW
LayerCount: 2
Fore
SplineSet
221 277 m 1,0,-1
 389 819 l 1,1,-1
 -70 1157 l 1,2,-1
 502 1168 l 1,3,-1
 680 1710 l 1,4,-1
 868 1168 l 1,5,-1
 1440 1168 l 1,6,-1
 979 819 l 1,7,-1
 1149 277 l 1,8,-1
 680 604 l 1,9,-1
 221 277 l 1,0,-1
EndSplineSet
EndChar

StartChar: minus
Encoding: 8722 8722 391
Width: 768
Flags: HW
LayerCount: 2
Fore
SplineSet
0 699 m 1,0,-1
 750 699 l 1,1,-1
 750 548 l 1,2,-1
 0 548 l 1,3,-1
 0 699 l 1,0,-1
EndSplineSet
EndChar

